<svg width="1053" height="487" viewBox="0 0 1053 487" fill="none" xmlns="http://www.w3.org/2000/svg">
<path d="M494.954 294.581C494.954 294.581 494.14 298.199 489.319 300.857C493.967 302.492 494.954 308.002 494.954 308.002C494.954 308.002 496.624 301.896 500.81 300.995C496.718 299.472 495.558 296.118 494.954 294.581Z" fill="#FFC552"/>
<path d="M1000.92 334.224C1000.92 334.224 1000.11 337.842 995.285 340.499C999.933 342.134 1000.92 347.644 1000.92 347.644C1000.92 347.644 1002.59 341.539 1006.78 340.638C1002.68 339.115 1001.52 335.762 1000.92 334.224Z" fill="#FFC552"/>
<path d="M742.185 186.785C742.185 186.785 741.371 190.403 736.55 193.06C741.198 194.695 742.185 200.205 742.185 200.205C742.185 200.205 743.856 194.1 748.04 193.199C743.948 191.676 742.79 188.321 742.185 186.785Z" fill="#FFC552"/>
<path d="M775.562 155.98C775.562 155.98 774.748 159.598 769.927 162.255C774.575 163.89 775.562 169.4 775.562 169.4C775.562 169.4 777.233 163.295 781.418 162.394C777.326 160.871 776.166 157.518 775.562 155.98Z" fill="#FFC552"/>
<path d="M5.63467 248.748C5.63467 248.748 4.82105 252.366 0 255.024C4.64797 256.659 5.63467 262.169 5.63467 262.169C5.63467 262.169 7.30612 256.063 11.4904 255.162C7.39834 253.639 6.23983 250.286 5.63467 248.748Z" fill="#FFC552"/>
<path d="M768.011 138.423C768.011 138.423 766.945 143.156 760.639 146.633C766.721 148.773 768.011 155.98 768.011 155.98C768.011 155.98 770.196 147.992 775.672 146.814C770.319 144.822 768.801 140.434 768.011 138.423Z" fill="#FFB624"/>
<path d="M238.655 160.622C238.655 160.622 237.59 165.355 231.283 168.832C237.365 170.972 238.655 178.179 238.655 178.179C238.655 178.179 240.84 170.191 246.316 169.013C240.963 167.021 239.445 162.633 238.655 160.622Z" fill="#FFB624"/>
<path d="M523.494 330.087C523.494 330.087 522.43 334.821 516.122 338.298C522.204 340.437 523.494 347.644 523.494 347.644C523.494 347.644 525.68 339.656 531.155 338.478C525.802 336.486 524.285 332.098 523.494 330.087Z" fill="#FFB624"/>
<path d="M1029.47 308C1029.47 308 1028.41 312.733 1022.1 316.21C1028.18 318.35 1029.47 325.557 1029.47 325.557C1029.47 325.557 1031.66 317.569 1037.13 316.39C1031.78 314.399 1030.26 310.012 1029.47 308Z" fill="#FFB624"/>
<path d="M24.3953 277.024C24.3953 277.024 23.3315 281.757 17.0234 285.235C23.1053 287.374 24.3953 294.581 24.3953 294.581C24.3953 294.581 26.5809 286.593 32.0564 285.414C26.7034 283.423 25.1874 279.035 24.3953 277.024Z" fill="#FFB624"/>
<g opacity="0.3294">
<path d="M16.9922 369.556C27.4353 394.337 48.2393 413.614 72.3029 420.808C83.6 424.185 96.4638 424.745 106.266 417.734C116.766 410.223 121.4 395.042 119.196 381.531C116.991 368.021 108.847 356.292 98.7631 348.125C88.6788 339.959 76.7412 334.992 64.7239 331.048C56.5359 328.36 48.0751 326.083 39.5384 326.572C31.0018 327.061 22.2794 330.656 16.9164 337.937C11.5533 345.219 11.2969 356.04 16.9922 369.556Z" fill="#E4E6F2"/>
</g>
<path d="M148.173 349.401L135.252 340.11L121.052 363.74L133.973 373.031L148.173 349.401Z" fill="#F6915C"/>
<path d="M113.568 371.626L111.941 374.361L160.518 411.973L162.188 409.727L113.568 371.626Z" fill="#E6E6E6"/>
<path d="M162.05 410.007C157.859 406.926 153.489 403.596 149.042 400.161C137.075 390.94 124.519 380.904 113.028 372.458C113.272 364.62 117.604 357.348 123.842 354.08C125.772 354.275 126.751 356.463 126.889 358.369C127.03 360.287 126.698 362.301 127.355 364.083C128.315 366.679 131.183 367.93 133.712 367.576C136.242 367.223 138.477 365.612 140.452 363.848C145.328 370.593 150.02 379.207 158.816 385.992C160.377 387.196 161.69 388.501 162.776 389.843C169.203 397.905 167.496 407.788 162.05 410.007Z" fill="#383838"/>
<path d="M143.24 372.37C141.994 368.557 142.565 364.093 144.719 360.801C145.219 360.036 145.802 359.327 146.198 358.49C146.594 357.654 146.785 356.637 146.45 355.771C145.953 354.49 144.418 353.981 143.203 354.396C141.988 354.81 141.074 355.923 140.421 357.117C139.097 359.539 138.617 362.5 139.097 365.272C139.58 368.048 141.016 370.609 143.24 372.37Z" fill="#383838"/>
<path d="M119.527 372.532C118.93 370.09 120.257 367.58 122.49 366.928C124.724 366.275 127.017 367.727 127.613 370.17C128.21 372.613 126.883 375.122 124.65 375.774C122.417 376.426 120.123 374.975 119.527 372.532Z" fill="#E6E6E6"/>
<path d="M162.05 410.008C157.86 406.926 153.49 403.596 149.042 400.161C151.564 396.563 154.375 393.24 158.029 391.227C159.503 390.411 161.143 389.845 162.777 389.841C169.203 397.905 167.497 407.788 162.05 410.008Z" fill="#E6E6E6"/>
<path d="M142.352 368.563C141.579 368.087 140.506 368.774 140.333 369.725C140.16 370.676 140.731 371.658 141.517 372.109C142.301 372.559 143.244 372.561 144.113 372.37C145.419 372.083 146.847 370.972 146.617 369.536C144.482 369.916 142.932 372.546 143.496 374.83C144.061 377.115 146.611 378.532 148.629 377.684C149.649 377.257 150.525 375.835 149.823 374.92C149.399 374.364 148.565 374.351 148.019 374.76C147.473 375.169 147.188 375.896 147.1 376.613C146.782 379.207 149.18 381.741 151.539 381.306C152.514 381.127 153.549 380.022 153.03 379.102C152.709 378.534 151.928 378.448 151.404 378.788C150.88 379.13 150.581 379.776 150.434 380.423C150.031 382.18 150.598 384.16 151.847 385.35C153.095 386.54 154.968 386.883 156.503 386.203C157.231 385.881 157.954 385.152 157.809 384.309C157.655 383.416 156.51 383.057 155.814 383.555C155.118 384.052 154.886 385.089 155.04 385.981C155.194 386.874 155.658 387.662 156.112 388.422" stroke="#E6E6E6" stroke-miterlimit="10" stroke-linejoin="round"/>
<path d="M141.807 368.476C143.224 369.252 144.906 369.428 146.433 368.959C147.958 368.491 149.312 367.384 150.153 365.915C150.499 365.31 150.762 364.534 150.468 363.896C150.076 363.049 148.987 362.986 148.145 363.216C145.62 363.904 143.649 366.053 142.083 368.325C142.709 366.075 143.088 363.744 143.21 361.396C143.267 360.298 143.133 358.952 142.215 358.503C141.556 358.18 140.742 358.524 140.282 359.132C139.821 359.74 139.651 360.551 139.581 361.338C139.35 363.979 139.742 367.344 141.807 368.476Z" stroke="#E6E6E6" stroke-miterlimit="10" stroke-linejoin="round"/>
<path d="M74.4802 429.165L59.7939 423.874L51.7077 450.733L66.3939 456.024L74.4802 429.165Z" fill="#F6915C"/>
<path d="M46.3487 460.484L45.4277 463.588L101.282 486.067L102.359 483.424L46.3487 460.484Z" fill="#E6E6E6"/>
<path d="M102.292 483.734C97.5118 481.953 92.5012 479.982 87.3896 477.931C73.6415 472.436 59.1278 466.322 46.0253 461.44C44.3955 453.801 46.8465 445.547 52.092 440.616C54.0023 440.254 55.4678 442.088 56.0553 443.888C56.6478 445.7 56.807 447.739 57.8657 449.273C59.4108 451.505 62.477 451.896 64.8357 450.834C67.1945 449.774 68.9682 447.581 70.4565 445.316C76.7696 450.439 83.3493 457.419 93.4563 461.466C95.2503 462.183 96.8283 463.069 98.1965 464.054C106.32 470.011 107.024 480.039 102.292 483.734Z" fill="#383838"/>
<path d="M75.175 452.751C73.0651 449.425 72.5535 444.952 73.8509 441.16C74.1529 440.279 74.5458 439.429 74.729 438.508C74.9122 437.588 74.8541 436.553 74.3234 435.811C73.5389 434.715 71.9357 434.661 70.8618 435.408C69.7879 436.155 69.1701 437.49 68.824 438.829C68.1228 441.544 68.3628 444.539 69.4872 447.079C70.6116 449.621 72.609 451.684 75.175 452.751Z" fill="#383838"/>
<path d="M52.3167 459.661C51.1595 457.472 51.8442 454.672 53.8442 453.406C55.8454 452.14 58.405 452.889 59.5622 455.077C60.7195 457.266 60.0347 460.066 58.0348 461.332C56.0336 462.598 53.474 461.85 52.3167 459.661Z" fill="#E6E6E6"/>
<path d="M102.292 483.734C97.5114 481.953 92.5008 479.982 87.3892 477.931C88.9684 473.739 90.89 469.73 93.9398 466.747C95.1691 465.537 96.6181 464.526 98.1948 464.056C106.32 470.011 107.023 480.039 102.292 483.734Z" fill="#E6E6E6"/>
<path d="M73.41 449.328C72.5509 449.089 71.6779 450.058 71.7372 451.025C71.7966 451.993 72.5812 452.779 73.4466 452.99C74.312 453.202 75.2216 452.935 76.015 452.502C77.2077 451.853 78.322 450.374 77.7585 449.053C75.7876 450.029 74.9172 453.008 76.0062 455.054C77.0952 457.099 79.8936 457.742 81.6421 456.349C82.524 455.645 83.0319 454.024 82.1374 453.34C81.5954 452.925 80.7868 453.148 80.3573 453.699C79.9277 454.249 79.8241 455.033 79.91 455.75C80.2221 458.344 83.1392 460.109 85.3135 459.017C86.2118 458.565 86.9483 457.205 86.2282 456.463C85.7835 456.006 85.009 456.145 84.5845 456.624C84.1588 457.102 84.0261 457.812 84.0362 458.478C84.064 460.289 85.0848 462.04 86.5731 462.832C88.0614 463.625 89.9501 463.423 91.2703 462.33C91.8957 461.813 92.4225 460.902 92.0814 460.13C91.7201 459.312 90.5287 459.291 89.9766 459.969C89.4233 460.648 89.4448 461.715 89.8061 462.533C90.1674 463.351 90.8029 463.98 91.4219 464.584" stroke="#E6E6E6" stroke-miterlimit="10" stroke-linejoin="round"/>
<path d="M72.8644 449.399C74.4171 449.744 76.0835 449.435 77.4454 448.549C78.8073 447.663 79.8496 446.208 80.312 444.549C80.5028 443.865 80.571 443.043 80.1352 442.511C79.5553 441.804 78.489 442.055 77.731 442.516C75.4569 443.901 74.0659 446.536 73.0931 449.176C73.1626 446.825 72.9743 444.466 72.5321 442.165C72.3262 441.09 71.8765 439.828 70.8847 439.655C70.1709 439.531 69.4672 440.095 69.1678 440.814C68.8684 441.532 68.8961 442.364 69.0162 443.144C69.4204 445.757 70.6004 448.894 72.8644 449.399Z" stroke="#E6E6E6" stroke-miterlimit="10" stroke-linejoin="round"/>
<path d="M66.5638 205.467C68.7533 248.982 75.8724 281.01 88.6161 322.633C78.3373 352.871 68.0963 395.874 56.875 421.267C59.7846 428.913 69.2056 432.806 77.0499 432.863C87.9971 413.04 97.7933 391.266 109.856 367.304C120.658 345.847 123.65 338.06 122.607 321.974C121.938 311.653 120.855 305.804 119.751 296.995C115.141 260.211 110.93 235.18 105.633 198.665C93.1163 200.498 65.85 205.935 66.5638 205.467Z" fill="#0054D3"/>
<path d="M104.894 256.39C124.506 263.286 144.545 268.624 164.425 272.54C156.743 291.235 140.695 324.287 130.354 341.297C135.254 347.833 141.487 351.194 148.648 353.923C164.304 331.662 186.499 294.449 200.061 270.514C203.302 264.793 206.609 258.076 204.838 251.554C203.154 245.353 197.516 241.757 192.331 238.88C174.117 228.77 155.432 219.739 136.443 211.658C136.488 206.77 135.443 198.515 134.291 193.678C120.359 195.968 106.478 198.604 92.2017 201.003C96.674 217.324 99.9651 237.193 104.894 256.39Z" fill="#0054D3"/>
<path d="M80.1868 203.24C84.9447 235.951 88.3293 263.1 94.7169 292.461C97.0074 302.993 99.3093 313.613 99.418 324.453C99.5999 342.714 93.5559 360.641 86.3331 377.628C79.1104 394.616 71.3836 414.774 65.4053 428.834" stroke="#003D99" stroke-miterlimit="10"/>
<path d="M118.158 283.93C116.643 273.517 114.605 265.602 114.517 256.25C114.439 248.067 115.729 239.68 119.386 232.577C120.748 229.932 121.851 227.149 122.28 224.227C123.65 214.911 121.86 205.283 120.057 196.022" stroke="#003D99" stroke-miterlimit="10"/>
<path d="M137.896 347.364C150.673 322.798 163.325 298.168 175.85 273.477C177.016 271.177 177.863 267.748 175.596 266.652C173.676 265.724 171.551 267.582 170.139 269.257C171.409 267.885 172.649 265.563 171.199 264.467C170.299 263.786 169.008 264.206 167.879 264.436C164.775 265.064 161.657 263.985 158.724 262.921C144.188 257.647 129.655 252.372 115.121 247.098" stroke="#003D99" stroke-miterlimit="10"/>
<path d="M113.27 197.481C116.12 209.365 117.995 221.509 118.871 233.755" stroke="#003D99" stroke-miterlimit="10"/>
<path d="M84.1484 229.436C87.0416 228.606 89.6656 226.78 91.4697 224.346C93.8941 221.074 94.7621 216.882 94.6534 212.87C94.5448 208.858 93.5366 204.958 92.9188 200.895" stroke="#003D99" stroke-miterlimit="10"/>
<path d="M68.0229 211.704C90.8143 207.992 111.473 204.02 135.012 199.924" stroke="#003D99" stroke-miterlimit="10"/>
<path d="M200.799 130.225C185.618 144.226 170.377 158.276 153.593 169.882C150.39 172.096 147.023 174.264 143.275 174.865C139.527 175.466 135.277 174.142 133.246 170.643C131.197 167.113 131.941 162.297 134.074 158.827C136.206 155.357 139.477 152.952 142.704 150.709C159.171 139.266 167.483 142.942 194.389 120.268C196.044 123.969 198.332 127.331 200.799 130.225Z" fill="#F6915C"/>
<path d="M191.197 123.556C192.3 127.668 195.033 130.374 199.207 131.542C201.384 129.815 204.058 127.838 206.442 125.946C208.828 124.054 211.209 121.711 212.018 119.112C212.646 117.092 212.211 115.27 211.773 113.554C211.317 111.77 210.86 109.987 210.404 108.203C209.965 106.485 209.353 104.601 207.53 104.277C205.278 103.876 202.484 106.062 200.488 108.203C196.157 112.849 192.893 118.325 191.197 123.556Z" fill="#F6915C"/>
<path d="M111.21 106.502C119.916 107.748 126.534 115.385 132.319 122.61C138.104 129.835 144.547 137.576 152.771 140.102C151.935 144.45 150.962 148.812 149.156 152.792C147.349 156.771 144.63 160.381 141.013 162.402C137.282 164.488 132.873 164.735 128.743 163.963C124.613 163.191 120.691 161.467 116.102 160.432C115.893 142.504 107.05 124.925 111.21 106.502Z" fill="#6B92FF"/>
<mask id="mask0_92_16493" style="mask-type:luminance" maskUnits="userSpaceOnUse" x="56" y="106" width="86" height="107">
<path d="M142 194.046C139.592 201.459 133.597 207.367 126.877 209.86C120.157 212.34 112.888 211.347 105.838 210.64C94.8768 209.525 86.3895 215.191 71.4702 209.95C67.1621 208.43 60.5837 204.798 56.6748 199.828C56.8959 184.564 61.3379 169.357 62.4371 152.915C62.9348 145.4 62.6986 137.803 63.9051 130.37C65.1243 122.952 67.9985 115.488 73.4588 110.903C76.7992 108.088 80.5703 106.882 84.6195 106.402C89.6262 105.794 95.055 106.27 100.65 106.162C102.975 106.116 105.336 106.029 107.637 106.082C112.44 106.21 117.028 107.006 120.631 110.268C125.977 115.072 129.077 122.309 130.675 129.674C132.259 137.039 132.509 144.663 133.123 152.198C134.428 168.069 137.371 178.931 142 194.046Z" fill="white"/>
</mask>
<g mask="url(#mask0_92_16493)">
<path d="M142 194.046C139.592 201.459 133.597 207.367 126.877 209.86C120.157 212.34 112.888 211.347 105.838 210.64C94.8768 209.525 86.3895 215.191 71.4702 209.95C67.1621 208.43 60.5837 204.798 56.6748 199.828C56.8959 184.564 61.3379 169.357 62.4371 152.915C62.9348 145.4 62.6986 137.803 63.9051 130.37C65.1243 122.952 67.9985 115.488 73.4588 110.903C76.7992 108.088 80.5703 106.882 84.6195 106.402C89.6262 105.794 95.055 106.27 100.65 106.162C102.975 106.116 105.336 106.029 107.637 106.082C112.44 106.21 117.028 107.006 120.631 110.268C125.977 115.072 129.077 122.309 130.675 129.674C132.259 137.039 132.509 144.663 133.123 152.198C134.428 168.069 137.371 178.931 142 194.046Z" fill="#A7C2FF"/>
</g>
<mask id="mask1_92_16493" style="mask-type:luminance" maskUnits="userSpaceOnUse" x="56" y="106" width="86" height="107">
<path d="M142 194.046C139.592 201.459 133.597 207.367 126.877 209.86C120.157 212.34 112.888 211.347 105.838 210.64C94.8768 209.525 86.3895 215.191 71.4702 209.95C67.1621 208.43 60.5837 204.798 56.6748 199.828C56.8959 184.564 61.3379 169.357 62.4371 152.915C62.9348 145.4 62.6986 137.803 63.9051 130.37C65.1243 122.952 67.9985 115.488 73.4588 110.903C76.7992 108.088 80.5703 106.882 84.6195 106.402C89.6262 105.794 95.055 106.27 100.65 106.162C102.975 106.116 105.336 106.029 107.637 106.082C112.44 106.21 117.028 107.006 120.631 110.268C125.977 115.072 129.077 122.309 130.675 129.674C132.259 137.039 132.509 144.663 133.123 152.198C134.428 168.069 137.371 178.931 142 194.046Z" fill="white"/>
</mask>
<g mask="url(#mask1_92_16493)">
<path d="M39.5024 168.885C83.1522 189.336 115.136 188.685 154.774 168.627" stroke="#95ADE6" stroke-width="4" stroke-miterlimit="10"/>
<path d="M39.8594 190.988C83.5091 211.439 115.493 210.788 155.131 190.729" stroke="#95ADE6" stroke-width="4" stroke-miterlimit="10"/>
<path d="M39.146 146.782C82.7957 167.233 114.779 166.582 154.418 146.523" stroke="#95ADE6" stroke-width="4" stroke-miterlimit="10"/>
<path d="M38.7886 124.679C82.4383 145.13 114.422 144.479 154.061 124.421" stroke="#95ADE6" stroke-width="4" stroke-miterlimit="10"/>
<path d="M38.4312 102.577C82.0809 123.028 114.065 122.377 153.703 102.318" stroke="#95ADE6" stroke-width="4" stroke-miterlimit="10"/>
</g>
<path d="M107.637 106.083C107.543 106.457 107.41 106.819 107.251 107.154C106.48 108.731 105.209 109.834 103.871 110.675C99.9181 113.13 95.1349 113.471 90.9721 111.603C88.554 110.53 86.3759 108.72 84.6211 106.403C89.6279 105.795 95.0566 106.271 100.652 106.163C102.975 106.117 105.337 106.03 107.637 106.083Z" fill="#F6915C"/>
<path d="M117.427 200.026C97.6422 198.184 77.7832 196.329 58.4118 191.554C54.7152 190.644 50.9326 189.573 47.8942 187.097C44.8545 184.622 42.7067 180.4 43.5317 176.355C44.3643 172.274 48.0041 169.445 51.755 168.641C55.506 167.836 59.3732 168.666 63.104 169.576C82.1444 174.221 85.6465 183.251 119.329 188.029C118.108 191.925 117.553 196.072 117.427 200.026Z" fill="#F6915C"/>
<path d="M114.948 187.884C113.069 191.646 113.252 195.673 115.448 199.726C118.104 200.188 121.272 200.86 124.182 201.367C127.091 201.874 130.29 202.059 132.541 200.846C134.293 199.903 135.162 198.279 135.96 196.725C136.79 195.11 137.622 193.496 138.452 191.883C139.251 190.329 140.037 188.524 138.957 186.883C137.623 184.857 134.236 184.244 131.44 184.213C125.377 184.15 119.527 185.497 114.948 187.884Z" fill="#F6915C"/>
<path d="M43.8662 175.244C47.1055 164.916 53.5007 152.247 57.2365 140.337C64.5376 138.204 72.8683 141.171 77.5946 147.471C75.4254 154.792 72.977 162.011 70.2557 169.107C69.0479 172.257 67.6897 175.522 65.2097 177.598C62.3419 179.998 58.3938 180.38 54.869 179.528C51.3429 178.68 48.072 177.083 43.8662 175.244Z" fill="#F6915C"/>
<path d="M82.9538 106.634C72.7545 106.612 64.0107 112.026 58.2572 122.168C53.3149 130.88 50.2259 141.932 42.8579 147.582C44.7694 162.216 64.5893 172.173 79.4188 166.3C82.3953 152.245 88.4381 117.429 82.9538 106.634Z" fill="#6B92FF"/>
<path d="M102.591 82.0498L102.637 95.2949L102.666 103.921L102.684 107.602L87.0107 107.662L86.9602 92.705L86.9185 82.1092L88.4333 82.0996C88.4333 82.0996 88.4332 82.0995 88.4459 82.0982L102.591 82.0498Z" fill="#F6915C"/>
<path opacity="0.5412" d="M102.572 91.9628L102.601 100.589C101.413 102.029 99.498 102.578 97.7672 102.27C95.8569 101.922 94.1514 100.683 92.725 99.2114C90.0909 96.5041 88.2691 93.0836 86.8933 89.3743L86.8516 78.7785L88.3664 78.7688C88.3664 78.7688 88.3664 78.7688 88.379 78.7675C94.7161 80.817 99.5068 85.5462 102.362 91.5081C102.432 91.6588 102.501 91.8108 102.572 91.9628Z" fill="#F6915C"/>
<path d="M114.827 58.4314C116.411 66.0131 116.635 75.4771 113.613 86.0936C108.952 102.468 94.9164 98.1723 90.9809 95.751C83.9174 91.406 78.049 84.4794 75.3845 76.1086C72.7201 67.7364 73.5072 57.945 78.1299 50.6646C82.7526 43.3828 91.3195 39.0972 99.2674 40.8316C107.214 42.566 112.938 49.3917 114.827 58.4314Z" fill="#F6915C"/>
<path d="M86.5603 92.7506C85.7568 87.8472 85.8945 82.7628 86.9621 77.9203C87.1339 77.1436 87.3499 76.3324 87.8818 75.7837C88.4124 75.2364 89.3574 75.09 89.8426 75.687C94.3743 67.5553 84.4265 64.2357 82.5895 58.2129C83.9514 58.8804 85.3411 59.5562 86.8243 59.7428C88.3075 59.9294 89.9259 59.5521 90.9606 58.3746C91.9941 57.1972 92.2063 55.1228 91.1691 53.9495C93.2625 57.1916 96.8316 59.2315 100.46 59.2563C101.958 59.2674 103.567 58.8887 104.575 57.6767C105.583 56.4647 105.635 54.2535 104.379 53.3607C106.4 55.9616 109.47 57.6961 112.585 57.4819C115.699 57.269 118.712 54.874 119.454 51.5586C120.16 48.4048 118.763 45.0065 116.535 42.8603C114.308 40.714 111.381 39.6388 108.467 39.0183C105.554 38.3964 102.575 38.1753 99.678 37.4621C96.9731 36.796 94.3617 35.7056 91.6378 35.1404C88.9127 34.5765 85.964 34.5834 83.5206 36.0166C81.0772 37.4497 79.3363 40.5979 80.0097 43.5402C79.7633 42.266 79.4841 40.9213 78.6629 39.976C77.843 39.0321 76.2878 38.7253 75.4956 39.6982C74.8892 40.4445 74.9726 41.6386 75.4413 42.494C75.9113 43.3495 76.6819 43.9465 77.4311 44.5159C76.0022 44.1897 74.4938 44.86 73.4224 45.9449C72.3511 47.0298 71.6562 48.485 71.0978 49.961C68.1668 57.714 68.6026 66.7454 71.5943 74.4708C74.586 82.1962 79.9895 88.6474 86.5603 92.7506Z" fill="#CD6437"/>
<path d="M108.168 71.1194C108.359 70.1672 109.219 69.5633 110.09 69.7719C110.96 69.9806 111.512 70.9218 111.322 71.874C111.131 72.8262 110.27 73.4287 109.4 73.2214C108.528 73.0141 107.977 72.073 108.168 71.1194Z" fill="#383838"/>
<path d="M95.9391 71.3379C96.1299 70.3857 96.9903 69.7818 97.8607 69.9905C98.7312 70.1991 99.2833 71.1403 99.0925 72.0925C98.9017 73.0447 98.0414 73.6486 97.1709 73.4399C96.2992 73.2312 95.7484 72.2901 95.9391 71.3379Z" fill="#383838"/>
<path d="M92.7519 68.3307C94.2781 67.6493 95.8043 66.968 97.3304 66.2867C97.7246 66.1112 98.1542 65.8997 98.331 65.4754C98.5155 65.036 98.3474 64.4901 98.0253 64.1598C97.7031 63.8295 97.2597 63.6775 96.8225 63.6028C95.0008 63.2933 93.0514 64.2634 92.0672 65.9674C91.8322 66.3751 91.644 66.845 91.6894 67.3246C91.7349 67.8027 92.1278 68.6084 92.7519 68.3307Z" fill="#CD6437"/>
<path d="M112.88 67.2028C111.398 66.4123 109.916 65.6218 108.436 64.8327C108.053 64.6282 107.637 64.3863 107.487 63.951C107.33 63.4991 107.53 62.967 107.871 62.6602C108.212 62.3534 108.664 62.2345 109.104 62.1917C110.94 62.0148 112.827 63.1232 113.706 64.8949C113.916 65.3178 114.075 65.8015 114.001 66.2755C113.926 66.7495 113.485 67.5248 112.88 67.2028Z" fill="#CD6437"/>
<path d="M104.049 67.3756C104.159 70.651 104.878 73.9014 106.358 77.2279C111.305 75.1936 110.749 81.9709 106.371 81.6586" stroke="#CC5E33" stroke-width="0.7" stroke-miterlimit="10"/>
<path d="M99.6792 82.0526C101.704 85.5311 106.34 86.8081 109.63 84.7945" stroke="#383838" stroke-width="0.7" stroke-miterlimit="10"/>
<path d="M80.6528 77.3828C80.2624 74.1669 82.3293 71.2136 85.2679 70.7865C88.2078 70.3595 90.9077 72.6204 91.298 75.835C91.6884 79.0509 89.6215 82.0042 86.6829 82.4313C83.743 82.8583 81.0432 80.5974 80.6528 77.3828Z" fill="#F6915C"/>
<path d="M83.2725 74.1809C85.8889 74.5388 88.1895 76.8371 88.753 79.655" stroke="#CC5E33" stroke-width="0.7" stroke-miterlimit="10"/>
<path d="M83.9092 77.7641C84.9477 77.0248 86.206 76.6627 87.4416 76.747" stroke="#CC5E33" stroke-width="0.7" stroke-miterlimit="10"/>
<g opacity="0.3294">
<path d="M346.279 235.673C326.354 251.84 306.907 269.384 292.613 291.564C278.319 313.744 269.53 341.243 273.065 368.104C276.6 394.963 294.236 420.309 318.377 426.554C344.248 433.247 371.222 418.044 397.548 422.083C415.454 424.831 432.731 436.397 450.454 432.483C465.842 429.084 477.223 414.659 484.598 399.499C499.204 369.47 502.629 334.326 501.325 300.343C500.352 274.98 496.135 247.938 480.091 229.598C464.881 212.211 441.406 205.93 419.457 207.537C397.505 209.143 373.946 213.225 346.279 235.673Z" fill="#E4E6F2"/>
<path d="M338.619 154.216C327 151.523 314.425 154.164 304.544 161.375C294.663 168.586 287.605 180.271 285.417 193.042C284.244 199.882 284.569 207.468 288.325 213.083C291.333 217.578 296.121 220.212 300.898 222.147C314.492 227.655 330.033 228.67 343.331 222.359C356.63 216.047 367.051 201.633 367.322 185.777C367.589 169.924 356.113 154.142 338.619 154.216Z" fill="#E4E6F2"/>
</g>
<path d="M356.191 138.191C347.509 135.443 343.456 123.094 346.887 113.946C350.318 104.799 359.331 99.225 368.322 98.2147C377.313 97.2045 386.297 100.051 394.7 103.696C400.969 106.414 407.663 110.284 409.855 117.26C411.393 122.157 410.267 127.758 407.598 132.034C404.928 136.31 400.874 139.371 396.54 141.456C386.498 146.289 375.126 144.184 356.191 138.191Z" fill="#FDC4BB"/>
<path d="M407.526 323.141C410.067 331.172 412.84 339.587 418.706 345.158C424.572 350.729 434.568 352.06 439.677 345.658C442.34 342.322 443.151 337.592 442.748 333.184C442.345 328.777 440.859 324.587 439.387 320.46C436.105 311.259 432.823 302.057 429.541 292.857C428.156 288.977 426.634 284.892 423.585 282.396C418.859 278.526 411.626 280.015 407.492 284.626C403.358 289.238 401.976 296.152 402.488 302.587C402.998 309.02 405.013 315.196 407.526 323.141Z" fill="#905338"/>
<path d="M422.276 235.474C423.654 265.627 425.033 295.78 426.412 325.933C426.877 336.103 427.254 346.779 423.173 355.931C419.092 365.084 408.947 371.861 400.353 367.949C391.571 363.951 389.005 351.913 387.781 341.595C383.59 306.275 381.378 270.675 381.426 235.082C393.675 234.341 405.927 233.6 422.276 235.474Z" fill="#F6A357"/>
<path d="M362.428 240.122C353.963 274.027 344.086 308.379 337.403 344.083C332.919 368.036 343.321 399.518 353.784 466.96C358.832 466.256 363.881 465.554 368.736 464.855C367.724 431.538 371.489 375.079 364.732 351.042C374.839 324 386.827 298.362 400.031 267.879C403.634 259.56 405.522 249.649 402.675 240.986C399.77 232.139 391.132 226.274 382.54 226.364C373.947 226.454 364.579 231.505 362.428 240.122Z" fill="#F6A357"/>
<path d="M346.918 429.198C346.252 428.253 345.815 427.078 345.872 425.887C345.93 424.695 346.54 423.51 347.527 423C348.512 422.491 349.841 422.802 350.427 423.808C350.928 422.693 352.002 421.913 353.135 421.843C354.268 421.772 355.416 422.412 356.029 423.457C356.54 422.404 357.595 421.692 358.685 421.666C359.775 421.64 360.857 422.299 361.41 423.327C361.829 422.288 362.859 421.582 363.898 421.623C364.936 421.665 365.915 422.452 366.263 423.523C366.856 422.584 367.958 422.063 368.99 422.234C370.022 422.405 370.935 423.261 371.247 424.351C371.965 423.713 373.164 424.115 373.608 425.005C374.051 425.893 373.838 427.049 373.281 427.857C372.724 428.667 371.881 429.183 371.023 429.565C367.791 431.005 364.163 430.82 360.694 430.411C357.224 430.002 353.705 429.393 350.269 430.059C349.644 430.18 349.009 430.343 348.381 430.245C347.752 430.146 347.227 429.639 346.918 429.198Z" fill="#EBEBEB"/>
<path d="M374.324 428.272C372.224 446.272 371.041 464.401 370.634 483.498C351.829 486.175 333.122 485.664 314.163 486.067C312.357 479.941 313.124 474.963 316.544 469.725C319.964 464.487 325.724 461.17 331.607 461.051C334.281 460.998 336.95 461.563 339.619 461.362C342.285 461.162 345.119 459.987 346.414 457.428C347.475 455.327 347.29 452.768 347.074 450.378C346.293 441.742 345.28 435.162 344.759 426.709C353.255 423.87 368.473 423.623 374.324 428.272Z" fill="#905338"/>
<path d="M371.122 463.168C366.321 463.544 361.704 466.189 358.689 470.293C355.674 474.397 354.305 479.898 354.776 485.144" stroke="#AB6243" stroke-miterlimit="10"/>
<path d="M363.176 466.323C362.919 452.566 362.663 438.81 362.406 425.052" stroke="#AB6243" stroke-miterlimit="10"/>
<path d="M435.268 28.7664C435.076 22.1203 434.017 15.1758 429.758 9.92554C424.672 11.5356 421.942 14.236 418.917 19.3384C419.191 24.6135 419.262 30.9389 422.636 34.7201C423.785 36.0081 425.18 37.0847 426.371 37.7162C429.384 39.3138 435.46 35.4125 435.268 28.7664Z" fill="#F6A357"/>
<path d="M433.845 18.0448C432.033 12.5597 429.365 7.41446 425.991 2.89808C425.188 1.82288 424.301 0.747687 423.127 0.21838C422.435 -0.0939532 421.511 -0.134039 421.058 0.519649C420.767 0.939778 420.767 1.53266 420.934 2.02742C421.1 2.52079 421.408 2.93954 421.706 3.35414C425.207 8.22156 427.965 13.7261 429.83 19.5747C431.052 19.3881 432.236 18.8906 433.845 18.0448Z" fill="#F6A357"/>
<path d="M429.253 15.1855C426.373 10.2766 422.728 5.90807 418.523 2.32316C417.521 1.46908 416.438 0.637111 415.186 0.404934C414.447 0.268116 413.539 0.45331 413.23 1.20097C413.032 1.68053 413.153 2.25959 413.415 2.70045C413.676 3.14131 414.062 3.47576 414.436 3.80605C418.837 7.70192 422.643 12.4007 425.647 17.6496C426.803 17.1728 427.857 16.4003 429.253 15.1855Z" fill="#F6A357"/>
<path d="M427.723 18.805C424.844 13.8961 421.199 9.52758 416.993 5.94266C415.991 5.08858 414.908 4.25662 413.656 4.02444C412.917 3.88762 412.009 4.07282 411.701 4.82048C411.502 5.30004 411.624 5.87909 411.885 6.31995C412.147 6.76081 412.532 7.09525 412.906 7.42555C417.307 11.3214 421.113 16.0202 424.117 21.2691C425.273 20.7909 426.327 20.0184 427.723 18.805Z" fill="#F6A357"/>
<path d="M426.416 22.2461C423.326 18.1968 419.604 14.7266 415.459 12.0303C414.472 11.3877 413.414 10.7741 412.267 10.7215C411.59 10.6898 410.794 10.9689 410.595 11.6765C410.467 12.1312 410.635 12.6356 410.916 12.9991C411.196 13.3626 411.576 13.6141 411.946 13.8656C416.299 16.8176 420.199 20.5642 423.437 24.9023C424.422 24.3301 425.288 23.5078 426.416 22.2461Z" fill="#F6A357"/>
<path d="M435.272 26.9713C435.022 23.8728 435.248 20.755 435.222 17.6455C435.197 14.6673 434.924 11.6255 434.01 8.90849C433.935 8.68323 433.756 8.4939 433.538 8.47455C432.61 8.39163 431.683 9.19042 431.332 10.1716C430.938 11.2759 431.094 12.5169 431.327 13.6737C431.559 14.8318 431.865 16.0023 431.751 17.1812C431.643 18.2937 431.168 19.3247 430.967 20.422C430.397 23.537 432.468 26.9395 435.272 26.9713Z" fill="#F6A357"/>
<path d="M388.095 126.886C394.926 122.342 401.826 117.74 407.504 111.583C413.181 105.426 417.606 97.4713 418.289 88.7578C419.436 74.1113 410.118 59.4497 411.274 45.1321C411.577 41.3717 413.146 37.8462 415.659 35.2591C420.995 29.7642 427.547 25.6569 435.188 25.9043C439.882 26.0563 444.431 28.2053 447.385 32.1979C454.817 42.2423 448.095 55.9877 449.192 68.2834C449.884 76.0448 452.894 83.3321 453.587 91.0934C455.656 114.304 437.864 126.516 419.737 146.343C415.284 151.215 409.439 155.032 403.16 155.557C395.441 156.204 382.676 143.297 388.095 126.886Z" fill="#FDC4BB"/>
<path d="M306.418 80.7533C304.378 74.49 303.046 67.6007 305.258 61.0127C310.53 60.4806 313.974 61.9041 318.492 65.4462C319.998 70.4656 322.042 76.3834 320.165 81.2508C319.525 82.9092 318.585 84.4681 317.688 85.5322C315.417 88.223 308.457 87.0165 306.418 80.7533Z" fill="#F6A357"/>
<path d="M304.164 70.2045C304.02 64.3752 304.786 58.5197 306.419 52.9668C306.808 51.6442 307.275 50.2898 308.19 49.3279C308.731 48.7599 309.578 48.3536 310.217 48.7821C310.628 49.0571 310.826 49.6099 310.836 50.135C310.846 50.6616 310.7 51.1743 310.561 51.6774C308.926 57.6061 308.197 63.8334 308.413 70.0221C307.21 70.3385 305.943 70.3482 304.164 70.2045Z" fill="#F6A357"/>
<path d="M307.484 65.7076C308.527 59.9875 310.462 54.465 313.181 49.4483C313.829 48.2529 314.558 47.045 315.647 46.3305C316.29 45.9076 317.197 45.7169 317.734 46.289C318.079 46.6566 318.16 47.244 318.063 47.7595C317.965 48.275 317.719 48.7393 317.481 49.1968C314.684 54.581 312.71 60.4753 311.665 66.563C310.428 66.5796 309.19 66.2811 307.484 65.7076Z" fill="#F6A357"/>
<path d="M310.117 68.4661C311.159 62.746 313.095 57.2235 315.814 52.2068C316.462 51.0128 317.191 49.8049 318.28 49.089C318.923 48.6661 319.83 48.4754 320.367 49.049C320.712 49.4166 320.793 50.0039 320.695 50.5194C320.598 51.0349 320.352 51.4992 320.114 51.9567C317.317 57.341 315.343 63.2352 314.298 69.3216C313.061 69.3368 311.823 69.0383 310.117 68.4661Z" fill="#F6A357"/>
<path d="M312.482 71.1471C314.009 66.1428 316.316 61.4261 319.273 57.2607C319.978 56.2684 320.758 55.2748 321.807 54.7676C322.428 54.4677 323.262 54.4096 323.684 54.9887C323.955 55.3605 323.967 55.8981 323.826 56.3486C323.686 56.7991 323.417 57.1861 323.155 57.5661C320.089 62.0521 317.709 67.0978 316.142 72.431C315.033 72.2928 313.953 71.8713 312.482 71.1471Z" fill="#F6A357"/>
<path d="M305.814 79.0837C305.013 76.1 303.762 73.2876 302.748 70.3812C301.778 67.5993 301.017 64.657 300.96 61.7631C300.955 61.524 301.059 61.2752 301.256 61.1702C302.092 60.7224 303.222 61.0956 303.875 61.8681C304.61 62.7388 304.879 63.9563 305.048 65.1269C305.218 66.2974 305.324 67.5108 305.824 68.5625C306.297 69.5548 307.084 70.3246 307.636 71.2657C309.206 73.9399 308.414 77.9339 305.814 79.0837Z" fill="#F6A357"/>
<path d="M359.933 129.398C351.248 130.212 342.564 131.025 333.879 131.839C330.604 132.146 327.093 132.399 324.25 130.595C320.561 128.255 319.137 123.029 319.588 118.391C320.039 113.753 321.981 109.475 323.604 105.161C325.228 100.848 326.573 96.1515 325.757 91.5729C324.941 86.9943 321.281 82.7239 317.136 83.0653C312.408 82.2444 307.572 81.4235 302.861 82.3522C298.149 83.2823 293.503 86.3075 291.706 91.1611C290.509 94.3949 290.691 98.0158 290.891 101.498C291.676 115.102 292.461 128.705 293.245 142.306C293.574 148.011 294.023 154.086 297.192 158.633C300.028 162.703 304.679 164.88 309.319 165.539C313.959 166.2 318.66 165.514 323.297 164.83C332.189 163.519 341.08 162.206 349.972 160.894C353.175 160.422 356.59 159.845 358.985 157.471C361.581 154.898 362.357 150.829 362.819 147.03C363.505 141.404 363.811 135.721 359.933 129.398Z" fill="#FDC4BB"/>
<path d="M443.336 304.009C445.722 308.045 447.007 313.075 447.659 318.665C436.32 330.817 421.812 336.222 406.463 337.77C391.114 339.318 375.684 336.64 360.579 333.106C353.382 331.423 346.147 329.514 339.527 325.817C332.908 322.119 326.878 316.451 323.216 308.96C323.618 305.191 324.021 301.421 324.132 298.361C360.019 322.01 405.549 324.62 443.336 304.009Z" fill="#E69C91"/>
<path d="M312.475 278.756C312.854 288.333 316.593 298.104 323.504 303.176C325.753 311.247 332.651 317.673 340.13 320.672C347.609 323.685 355.682 323.768 363.591 323.519C371.487 323.284 379.484 322.759 387.216 324.624C396.047 326.753 404.385 331.963 413.381 332.101C426.027 332.295 437.372 322.303 444.851 310.293C449.261 308.635 452.95 304.461 455.236 299.583C457.523 294.69 458.534 289.121 459.09 283.579C461.162 262.959 457.068 241.552 447.681 223.987C441.63 212.655 433.456 202.828 428.895 190.556C425.117 180.385 424.069 169.149 422.111 158.273C420.165 147.41 417.019 136.257 410.146 128.656C404.272 122.161 396.325 119.065 388.201 118.582C385.106 118.374 381.998 118.568 378.966 119.079C373.546 120.005 369.276 121.221 365.145 122.962C360.887 124.745 356.794 127.067 351.791 130.149C342.48 135.87 339.827 143.223 338.942 149.856C338.045 156.504 338.74 163.276 338.955 169.992C339.549 189.036 336.226 208.232 329.353 225.48C325.904 234.172 321.571 242.34 318.122 251.033C314.673 259.726 312.095 269.165 312.475 278.756Z" fill="#FDC4BB"/>
<path d="M365.145 122.962C365.322 123.405 365.537 123.833 365.789 124.22C369.731 130.232 384.033 129.693 388.202 118.582C385.106 118.374 381.998 118.568 378.966 119.079C373.546 120.005 369.276 121.221 365.145 122.962Z" fill="#F6A357"/>
<path d="M389.111 111.428C389.232 115.527 387.912 119.658 385.482 122.78C383.051 125.903 379.536 127.987 375.817 128.51" stroke="#C98C83" stroke-miterlimit="10"/>
<path d="M411.518 106.316C407.428 113.17 400.554 117.951 393.146 119.096" stroke="#C98C83" stroke-miterlimit="10"/>
<path d="M399.164 111.485C396.242 113.798 394.386 117.338 392.39 120.623C390.392 123.908 387.978 127.195 384.571 128.489" stroke="#C98C83" stroke-miterlimit="10"/>
<path d="M380.078 129.851C379.392 131.302 378.832 132.899 378.95 134.529C379.069 136.158 380.026 137.805 381.48 138.184C381.936 138.303 382.453 138.279 382.825 137.967C383.492 137.403 383.286 136.107 382.561 135.637C381.835 135.167 380.856 135.42 380.221 136.025C379.585 136.631 379.232 137.515 378.98 138.396C377.396 143.943 379.489 150.498 383.886 153.759" stroke="#C98C83" stroke-miterlimit="10"/>
<path d="M366.953 128.427C367.215 130.358 366.348 132.417 364.838 133.455C363.378 134.46 361.466 134.534 360.118 135.713C358.71 136.944 358.28 139.331 359.158 141.054C359.773 142.262 360.9 143.085 361.5 144.304C362.05 145.422 362.085 146.823 361.594 147.973C361.102 149.123 360.096 149.991 358.958 150.245" stroke="#C98C83" stroke-miterlimit="10"/>
<path d="M365.183 113.666C363.068 117.307 363.771 122.589 366.745 125.421" stroke="#C98C83" stroke-miterlimit="10"/>
<path d="M360.371 128.656C358.47 129.813 356.531 130.985 354.399 131.46C352.268 131.936 349.874 131.614 348.235 130.049C346.894 128.77 346.223 126.84 345.854 124.934C345.204 121.578 345.35 118.04 346.272 114.759" stroke="#C98C83" stroke-miterlimit="10"/>
<path d="M412.474 273.543C401.667 249.228 386.956 226.996 369.218 208.168C366.881 205.688 364.344 203.175 361.181 202.328C358.017 201.481 354.097 202.942 353.095 206.332" stroke="#C98C83" stroke-miterlimit="10"/>
<path d="M378.929 236.696C381.147 248.393 381.447 260.522 379.811 272.332" stroke="#C98C83" stroke-miterlimit="10"/>
<path d="M370.287 98.2604L370.241 111.505L370.212 120.132L370.194 123.814L385.867 120.352L385.918 108.917L385.96 98.3212L384.445 98.3115C384.445 98.3115 384.445 98.3115 384.432 98.3101L370.287 98.2604Z" fill="#F6A357"/>
<path opacity="0.5412" d="M370.306 108.174L370.277 116.8C371.464 118.24 373.38 118.789 375.111 118.48C377.021 118.132 378.726 116.894 380.153 115.422C382.787 112.715 384.609 109.294 385.984 105.585L386.026 94.9892L384.511 94.9795C384.511 94.9795 384.511 94.9795 384.499 94.9781C378.162 97.0277 373.371 101.757 370.514 107.719C370.446 107.869 370.375 108.022 370.306 108.174Z" fill="#F6A357"/>
<path d="M359.728 68.0042C356.504 74.9432 354.186 84.07 354.765 95.1702C355.661 112.292 371.211 113.783 375.576 112.473C383.409 110.122 390.653 104.951 395.103 97.5307C399.553 90.1107 400.962 80.3994 398.084 72.1115C395.206 63.8236 387.828 57.4014 379.715 56.9855C371.602 56.5695 363.572 59.7301 359.728 68.0042Z" fill="#F6A357"/>
<path d="M386.168 107.926C392.816 104.688 398.593 99.1449 401.95 92.0815C405.305 85.0181 406.108 76.44 403.655 68.9454C401.202 61.4508 395.392 55.2497 388.347 53.2555C384.358 52.1264 379.788 52.4443 376.76 55.475C371.21 54.5933 365.038 54.6679 360.646 58.4822C357.485 61.2255 355.743 65.5553 355.11 69.9142C354.476 74.273 354.836 78.7231 355.198 83.1192C356.181 79.6006 357.188 76.0254 359.056 72.9643C360.923 69.9031 363.808 67.3768 367.153 66.9871C368.358 66.8461 369.595 66.983 370.773 66.672C371.952 66.3611 373.125 65.4254 373.247 64.1056C373.101 68.9454 374.988 73.8142 378.269 77.0647C381.55 80.3151 386.166 81.8865 390.554 81.248C388.548 82.677 386.499 84.1571 385.084 86.2688C383.669 88.3819 382.999 91.2951 384.027 93.6598C384.623 95.0279 385.708 96.0714 386.385 97.3939C388.003 100.553 387.001 104.481 386.168 107.926Z" fill="#383838"/>
<path d="M390.408 65.8039C387.827 64.5808 385.315 63.0592 383.339 60.8701C381.362 58.6824 379.956 55.7553 379.923 52.679C379.89 49.6027 381.414 46.4406 383.971 45.1609C385.585 44.3538 387.441 44.3262 389.098 43.6283C390.822 42.9013 392.238 41.4295 394.001 40.82C401.14 38.349 412.216 44.7214 410.476 58.6769C409.768 64.3625 406.796 67.425 403.609 68.5969C398.975 70.2996 394.774 67.8741 390.408 65.8039Z" fill="#383838"/>
<path d="M406.581 46.2983C409.363 48.5344 411.378 51.883 412.157 55.5619C412.764 58.4379 412.561 61.687 410.905 64.0184C409.248 66.3498 405.892 67.3062 403.732 65.5345" stroke="#383838" stroke-miterlimit="10"/>
<path d="M370.069 56.0803C367.73 55.7555 365.337 55.5869 363.033 56.13C360.729 56.6732 358.501 58.0013 357.199 60.1503C355.897 62.2993 355.703 65.3273 357.079 67.421" stroke="#383838" stroke-miterlimit="10"/>
<path d="M364.462 82.9342C364.487 81.9599 363.786 81.1473 362.895 81.1183C362.004 81.0906 361.262 81.8577 361.235 82.832C361.21 83.8063 361.911 84.6189 362.802 84.6479C363.694 84.6769 364.436 83.9086 364.462 82.9342Z" fill="#383838"/>
<path d="M376.279 86.3823C376.304 85.408 375.603 84.5954 374.712 84.5664C373.822 84.5388 373.079 85.3058 373.052 86.2801C373.027 87.2544 373.728 88.067 374.619 88.096C375.51 88.1251 376.254 87.3567 376.279 86.3823Z" fill="#383838"/>
<path d="M380.036 84.3079C378.706 83.2424 377.375 82.1782 376.046 81.1127C375.703 80.8377 375.333 80.5184 375.256 80.061C375.175 79.5856 375.458 79.1005 375.843 78.8642C376.228 78.6279 376.692 78.5988 377.133 78.6417C378.969 78.8227 380.646 80.2807 381.224 82.1948C381.361 82.6523 381.44 83.1581 381.289 83.6114C381.14 84.0647 380.581 84.7432 380.036 84.3079Z" fill="#383838"/>
<path d="M360.757 77.8856C362.369 77.5111 363.982 77.1365 365.595 76.762C366.012 76.6653 366.468 76.5409 366.71 76.1581C366.963 75.7614 366.886 75.192 366.623 74.8037C366.36 74.4154 365.947 74.1804 365.53 74.0229C363.788 73.365 361.712 73.9413 360.467 75.4284C360.169 75.7836 359.908 76.2106 359.876 76.6901C359.841 77.1697 360.098 78.039 360.757 77.8856Z" fill="#383838"/>
<path d="M368.835 95.8477C365.136 97.3098 361.39 96.5787 359.518 93.1002" stroke="#383838" stroke-width="0.7" stroke-miterlimit="10"/>
<path d="M389.775 96.2927C390.865 93.2757 389.513 89.8636 386.755 88.6709C383.997 87.4782 380.878 88.957 379.788 91.9739C378.697 94.9908 380.049 98.403 382.807 99.5956C385.565 100.788 388.684 99.3096 389.775 96.2927Z" fill="#F6A357"/>
<path d="M387.941 92.4936C385.322 92.1494 382.582 93.7691 381.412 96.3549" stroke="#BF672C" stroke-width="0.7" stroke-miterlimit="10"/>
<path d="M386.53 95.8021C385.686 94.8098 384.546 94.1258 383.328 93.8798" stroke="#BF672C" stroke-width="0.7" stroke-miterlimit="10"/>
<path d="M370.378 78.5212C369.908 81.6307 367.914 84.4141 365.268 85.6579C364.391 86.0697 363.416 86.3489 362.754 87.1007C361.897 88.075 361.841 89.7652 362.635 90.8031C363.427 91.841 364.957 92.0828 365.987 91.3338" stroke="#BF672C" stroke-width="0.7" stroke-miterlimit="10"/>
<g opacity="0.3294">
<path d="M587.081 90.6068C559.973 98.1083 539.159 127.107 538.93 157.693C538.701 188.28 559.078 217.648 586.071 225.634C601.126 230.088 617.641 228.518 631.767 235.749C645.77 242.917 655.099 257.491 664.921 270.551C674.742 283.612 687.112 296.482 702.529 297.742C724.09 299.504 741.385 277.821 749.433 255.871C766.094 210.42 757.751 154.775 727.573 118.603C697.396 82.4337 647.955 73.763 587.081 90.6068Z" fill="#E4E6F2"/>
<path d="M661.625 308.148C648.952 292.925 633.121 279.74 614.633 275.885C596.143 272.031 574.844 279.541 565.557 297.449C558.371 311.305 559.364 328.6 563.401 343.907C568.646 363.789 578.961 382.42 594.089 394.842C609.217 407.265 629.362 412.918 647.671 407.713C665.98 402.508 681.627 385.681 684.754 365.273C687.881 344.864 675.15 324.391 661.625 308.148Z" fill="#E4E6F2"/>
</g>
<path d="M617.856 440.086L602.393 440.015L602.284 468.294L617.747 468.365L617.856 440.086Z" fill="#F6915C"/>
<path d="M620.021 479.453L619.996 482.716L560.508 484.685L560.25 481.804L620.021 479.453Z" fill="#E6E6E6"/>
<path d="M560.224 482.122C565.274 482.088 570.598 481.956 576.041 481.782C590.673 481.334 606.209 480.563 620.05 480.473C623.808 473.794 623.873 465.113 620.326 458.619C618.619 457.614 616.697 458.846 615.62 460.349C614.532 461.863 613.792 463.742 612.344 464.83C610.233 466.412 607.211 465.72 605.28 463.896C603.35 462.071 602.303 459.378 601.547 456.713C594.077 459.385 585.814 463.726 575.054 464.063C573.144 464.121 571.391 464.415 569.808 464.877C560.378 467.71 556.808 476.978 560.224 482.122Z" fill="#D1D1D1"/>
<path d="M594.919 462.131C597.885 459.707 599.665 455.642 599.532 451.596C599.502 450.655 599.374 449.712 599.466 448.777C599.559 447.841 599.914 446.878 600.631 446.359C601.692 445.592 603.229 446.097 604.031 447.178C604.833 448.258 605.033 449.737 604.973 451.127C604.852 453.947 603.757 456.704 601.955 458.723C600.154 460.742 597.661 462.008 594.919 462.131Z" fill="#D1D1D1"/>
<path d="M614.597 476.605C616.328 474.93 616.491 472.036 614.959 470.142C613.427 468.249 610.782 468.071 609.051 469.747C607.32 471.422 607.157 474.316 608.69 476.209C610.222 478.103 612.866 478.28 614.597 476.605Z" fill="#E6E6E6"/>
<path d="M560.224 482.122C565.274 482.088 570.598 481.956 576.041 481.782C575.756 477.26 575.094 472.789 573.065 468.904C572.249 467.331 571.168 465.869 569.81 464.877C560.378 467.71 556.808 476.978 560.224 482.122Z" fill="#E6E6E6"/>
<path d="M597.584 459.495C598.468 459.567 599.015 460.788 598.679 461.686C598.343 462.583 597.37 463.057 596.488 462.957C595.607 462.858 594.821 462.29 594.193 461.604C593.249 460.575 592.621 458.787 593.538 457.728C595.125 459.337 595.089 462.464 593.464 464.027C591.839 465.589 588.998 465.229 587.743 463.302C587.11 462.329 587.098 460.615 588.145 460.276C588.779 460.07 589.482 460.562 589.729 461.234C589.977 461.906 589.849 462.682 589.559 463.335C588.513 465.687 585.233 466.35 583.487 464.562C582.766 463.823 582.461 462.276 583.359 461.823C583.913 461.544 584.608 461.943 584.873 462.544C585.138 463.145 585.059 463.864 584.855 464.494C584.304 466.202 582.83 467.508 581.188 467.745C579.547 467.981 577.813 467.135 576.877 465.641C576.434 464.934 576.197 463.889 576.744 463.274C577.324 462.623 578.459 463.017 578.787 463.852C579.116 464.686 578.786 465.691 578.206 466.343C577.626 466.994 576.843 467.37 576.079 467.729" stroke="#E6E6E6" stroke-miterlimit="10" stroke-linejoin="round"/>
<path d="M598.081 459.751C596.509 459.541 595.018 458.67 593.983 457.357C592.948 456.045 592.38 454.303 592.422 452.57C592.438 451.856 592.612 451.051 593.18 450.698C593.934 450.228 594.874 450.836 595.459 451.536C597.215 453.637 597.771 456.619 597.929 459.461C598.543 457.207 599.405 455.034 600.491 453.004C600.997 452.056 601.79 451.015 602.781 451.195C603.494 451.324 603.998 452.103 604.075 452.888C604.151 453.674 603.884 454.452 603.544 455.15C602.402 457.49 600.375 460.058 598.081 459.751Z" stroke="#E6E6E6" stroke-miterlimit="10" stroke-linejoin="round"/>
<path d="M728.253 393.582L717.664 405.907L736.502 425.272L747.091 412.947L728.253 393.582Z" fill="#F6915C"/>
<path d="M756.082 418.674L758.247 420.92L719.009 469.868L716.907 468.11L756.082 418.674Z" fill="#E6E6E6"/>
<path d="M717.102 468.347C720.522 464.283 724.063 459.932 727.658 455.459C737.333 443.443 747.409 430.486 756.786 419.347C754.88 411.786 749.12 405.816 742.358 404.228C740.523 404.908 740.036 407.286 740.308 409.174C740.578 411.076 741.33 412.949 741.071 414.85C740.689 417.618 738.166 419.564 735.631 419.866C733.096 420.168 730.58 419.17 728.283 417.958C724.977 425.758 722.247 435.33 715.136 444.169C713.873 445.736 712.875 447.339 712.104 448.922C707.569 458.399 711.332 467.575 717.102 468.347Z" fill="#D1D1D1"/>
<path d="M727.384 426.953C727.785 422.929 726.279 418.733 723.483 416.08C722.832 415.463 722.116 414.922 721.553 414.21C720.99 413.498 720.587 412.558 720.73 411.63C720.941 410.257 722.324 409.373 723.594 409.467C724.864 409.561 725.99 410.409 726.879 411.406C728.682 413.425 729.778 416.181 729.901 419C730.025 421.818 729.172 424.676 727.384 426.953Z" fill="#D1D1D1"/>
<path d="M750.481 421.073C750.54 418.545 748.716 416.443 746.405 416.378C744.094 416.312 742.173 418.309 742.113 420.835C742.054 423.363 743.878 425.465 746.188 425.53C748.5 425.596 750.421 423.6 750.481 421.073Z" fill="#E6E6E6"/>
<path d="M717.102 468.347C720.522 464.283 724.063 459.932 727.658 455.458C724.44 452.602 720.998 450.085 717.016 449.06C715.409 448.641 713.693 448.51 712.103 448.92C707.569 458.399 711.332 467.575 717.102 468.347Z" fill="#E6E6E6"/>
<path d="M727.437 423.024C728.088 422.365 729.278 422.76 729.648 423.641C730.018 424.521 729.672 425.622 729.005 426.261C728.337 426.899 727.421 427.141 726.535 427.176C725.204 427.228 723.579 426.512 723.497 425.057C725.655 424.883 727.722 427.046 727.658 429.412C727.595 431.778 725.418 433.805 723.273 433.496C722.19 433.339 721.037 432.18 721.523 431.112C721.819 430.464 722.626 430.237 723.244 430.497C723.862 430.757 724.295 431.389 724.533 432.064C725.393 434.506 723.6 437.581 721.214 437.759C720.227 437.832 718.987 437.023 719.295 435.994C719.486 435.36 720.226 435.078 720.81 435.276C721.392 435.473 721.819 436.027 722.102 436.619C722.869 438.225 722.737 440.295 721.776 441.77C720.815 443.244 719.067 444.054 717.43 443.785C716.654 443.657 715.795 443.134 715.756 442.277C715.716 441.369 716.753 440.729 717.535 441.036C718.317 441.343 718.764 442.291 718.805 443.199C718.845 444.107 718.561 444.99 718.282 445.845" stroke="#E6E6E6" stroke-miterlimit="10" stroke-linejoin="round"/>
<path d="M727.949 422.8C726.736 423.916 725.137 424.515 723.554 424.449C721.971 424.383 720.418 423.649 719.287 422.436C718.821 421.935 718.402 421.247 718.552 420.552C718.752 419.629 719.799 419.29 720.667 419.3C723.27 419.327 725.642 420.914 727.65 422.726C726.561 420.698 725.697 418.526 725.079 416.273C724.791 415.222 724.634 413.878 725.43 413.207C726.002 412.724 726.866 412.851 727.444 413.327C728.021 413.802 728.36 414.546 728.595 415.293C729.382 417.802 729.717 421.175 727.949 422.8Z" stroke="#E6E6E6" stroke-miterlimit="10" stroke-linejoin="round"/>
<path d="M606.453 205.346C601.067 240.756 594.316 276.778 590.864 313.823C588.548 338.675 592.661 349.369 600.643 444.063C605.604 442.794 614.986 443.894 619.756 442.65C618.093 405.546 627.564 341.612 618.685 317.905C626.321 289.295 635.953 261.905 646.363 229.455C649.205 220.599 650.194 210.313 646.586 201.814C642.902 193.136 633.78 188.117 625.237 189.149C616.693 190.183 607.823 196.347 606.453 205.346Z" fill="#F64735"/>
<path d="M617.517 209.281C626.961 243.613 635.432 279.177 647.261 313.995C655.198 337.354 679.39 358.305 721.234 410.256C725.155 406.628 731.991 400.927 735.749 397.417C718.589 369.264 691.22 320.35 673.749 303.645C669.051 274.254 666.629 244.949 662.863 210.733C661.834 201.395 658.577 191.711 651.934 185.937C645.151 180.04 634.985 180.148 627.771 185.368C620.558 190.589 615.117 200.556 617.517 209.281Z" fill="#F64735"/>
<path d="M651.23 182.587C655.085 216.377 658.94 250.166 662.794 283.956C663.627 291.25 664.482 298.645 667.001 305.436C669.479 312.118 673.465 317.941 677.405 323.679C695.188 349.569 717.047 381.491 730.125 402.763" stroke="#B03427" stroke-miterlimit="10"/>
<path d="M620.126 227.33C627.896 246.561 632.869 266.698 638.918 286.962" stroke="#B03427" stroke-miterlimit="10"/>
<path d="M630.313 257.145C623.723 278.968 619.055 294.741 615.177 313.835C614.127 319.005 616.564 331.484 616.943 336.769C619.56 373.278 615.462 420.968 616.943 441.629" stroke="#B03427" stroke-miterlimit="10"/>
<path d="M568.646 249.767C557.201 232.016 545.718 214.197 536.594 194.904C534.853 191.224 533.168 187.367 532.944 183.229C532.72 179.091 534.292 174.575 537.653 172.662C541.044 170.733 545.367 171.959 548.344 174.582C551.32 177.205 553.229 180.976 554.994 184.685C563.998 203.618 559.934 212.36 578.268 243.636C574.752 245.123 571.494 247.326 568.646 249.767Z" fill="#D28D7D"/>
<path d="M575.546 239.876C571.706 240.723 569.006 243.469 567.582 247.916C568.968 250.437 570.537 253.522 572.056 256.284C573.574 259.047 575.503 261.844 577.8 262.948C579.587 263.807 581.282 263.49 582.884 263.16C584.548 262.817 586.212 262.473 587.876 262.13C589.479 261.8 591.246 261.296 591.7 259.336C592.26 256.915 590.509 253.683 588.73 251.323C584.87 246.204 580.164 242.174 575.546 239.876Z" fill="#D28D7D"/>
<path d="M721.494 61.6055C707.646 77.1738 693.744 92.7946 678.086 106.153C675.098 108.701 671.942 111.222 668.266 112.224C664.589 113.226 660.242 112.365 657.905 109.102C655.547 105.81 655.855 100.937 657.666 97.2543C659.476 93.5713 662.515 90.8252 665.523 88.2464C680.879 75.0856 689.483 77.8496 714.218 52.3876C716.199 55.8937 718.779 58.9922 721.494 61.6055Z" fill="#D28D7D"/>
<path d="M711.339 56.0043C712.806 59.9789 715.77 62.3767 720.029 63.0898C722.039 61.137 724.523 58.8816 726.726 56.7423C728.929 54.6029 731.089 52.013 731.658 49.3416C732.102 47.2631 731.505 45.4983 730.914 43.8371C730.3 42.111 729.686 40.3849 729.071 38.6587C728.48 36.9962 727.7 35.1871 725.857 35.06C723.579 34.9038 720.997 37.3804 719.203 39.7256C715.311 44.8142 712.556 50.6158 711.339 56.0043Z" fill="#D28D7D"/>
<mask id="mask2_92_16493" style="mask-type:luminance" maskUnits="userSpaceOnUse" x="532" y="76" width="156" height="170">
<path d="M665.222 170.929C670.225 180.382 675.089 191.576 671.628 201.817C669.341 208.602 663.871 213.37 658.653 217.793C652.589 222.92 646.524 228.047 640.46 233.174C637.289 235.855 634.055 238.578 630.29 240.07C626.525 241.563 622.065 241.66 618.73 239.255C614.99 242.13 611.023 244.617 606.64 245.488C602.268 246.359 597.379 245.377 594.221 241.95C589.698 237.058 589.963 229.18 589.23 222.27C588.081 211.56 583.709 201.305 576.95 193.469C571.77 196.081 566.11 198.044 561.474 201.941C556.496 202.701 551.266 200.269 546.376 197.325C535.056 190.512 537.116 176.429 532.921 165.76C546.781 156.694 559.023 144.325 573.248 133.698C580.538 128.239 588.358 123.236 597.177 119.366C605.212 115.842 613.399 112.235 621.371 108.172C637.1 100.184 651.982 90.4686 663.214 76.3169C675.001 87.8428 682.569 100.917 687.028 115.165C675.759 121.55 665.437 130.132 656.606 140.276C654.698 150.959 660.207 161.476 665.222 170.929Z" fill="white"/>
</mask>
<g mask="url(#mask2_92_16493)">
<path d="M665.222 170.929C670.225 180.382 675.089 191.576 671.628 201.817C669.341 208.602 663.871 213.37 658.653 217.793C652.589 222.92 646.524 228.047 640.46 233.174C637.289 235.855 634.055 238.578 630.29 240.07C626.525 241.563 622.065 241.66 618.73 239.255C614.99 242.13 611.023 244.617 606.64 245.488C602.268 246.359 597.379 245.377 594.221 241.95C589.698 237.058 589.963 229.18 589.23 222.27C588.081 211.56 583.709 201.305 576.95 193.469C571.77 196.081 566.11 198.044 561.474 201.941C556.496 202.701 551.266 200.269 546.376 197.325C535.056 190.512 537.116 176.429 532.921 165.76C546.781 156.694 559.023 144.325 573.248 133.698C580.538 128.239 588.358 123.236 597.177 119.366C605.212 115.842 613.399 112.235 621.371 108.172C637.1 100.184 651.982 90.4686 663.214 76.3169C675.001 87.8428 682.569 100.917 687.028 115.165C675.759 121.55 665.437 130.132 656.606 140.276C654.698 150.959 660.207 161.476 665.222 170.929Z" fill="#383838"/>
</g>
<mask id="mask3_92_16493" style="mask-type:luminance" maskUnits="userSpaceOnUse" x="532" y="76" width="156" height="170">
<path d="M665.222 170.929C670.225 180.382 675.089 191.576 671.628 201.817C669.341 208.602 663.871 213.37 658.653 217.793C652.589 222.92 646.524 228.047 640.46 233.174C637.289 235.855 634.055 238.578 630.29 240.07C626.525 241.563 622.065 241.66 618.73 239.255C614.99 242.13 611.023 244.617 606.64 245.488C602.268 246.359 597.379 245.377 594.221 241.95C589.698 237.058 589.963 229.18 589.23 222.27C588.081 211.56 583.709 201.305 576.95 193.469C571.77 196.081 566.11 198.044 561.474 201.941C556.496 202.701 551.266 200.269 546.376 197.325C535.056 190.512 537.116 176.429 532.921 165.76C546.781 156.694 559.023 144.325 573.248 133.698C580.538 128.239 588.358 123.236 597.177 119.366C605.212 115.842 613.399 112.235 621.371 108.172C637.1 100.184 651.982 90.4686 663.214 76.3169C675.001 87.8428 682.569 100.917 687.028 115.165C675.759 121.55 665.437 130.132 656.606 140.276C654.698 150.959 660.207 161.476 665.222 170.929Z" fill="white"/>
</mask>
<g mask="url(#mask3_92_16493)">
<path d="M575.643 79.6322C576.873 79.6322 577.871 78.5407 577.871 77.1943C577.871 75.8479 576.873 74.7565 575.643 74.7565C574.412 74.7565 573.414 75.8479 573.414 77.1943C573.414 78.5407 574.412 79.6322 575.643 79.6322Z" fill="#D1D1D1"/>
<path d="M587.241 92.3191C588.472 92.3191 589.47 91.2276 589.47 89.8812C589.47 88.5348 588.472 87.4434 587.241 87.4434C586.01 87.4434 585.013 88.5348 585.013 89.8812C585.013 91.2276 586.01 92.3191 587.241 92.3191Z" fill="#D1D1D1"/>
<path d="M598.838 105.005C600.069 105.005 601.067 103.913 601.067 102.567C601.067 101.22 600.069 100.129 598.838 100.129C597.608 100.129 596.61 101.22 596.61 102.567C596.61 103.913 597.608 105.005 598.838 105.005Z" fill="#D1D1D1"/>
<path d="M610.435 117.691C611.666 117.691 612.664 116.6 612.664 115.253C612.664 113.907 611.666 112.816 610.435 112.816C609.204 112.816 608.207 113.907 608.207 115.253C608.207 116.6 609.204 117.691 610.435 117.691Z" fill="#D1D1D1"/>
<path d="M622.033 130.378C623.264 130.378 624.262 129.287 624.262 127.94C624.262 126.594 623.264 125.502 622.033 125.502C620.802 125.502 619.805 126.594 619.805 127.94C619.805 129.287 620.802 130.378 622.033 130.378Z" fill="#D1D1D1"/>
<path d="M633.631 143.065C634.862 143.065 635.86 141.973 635.86 140.627C635.86 139.281 634.862 138.189 633.631 138.189C632.4 138.189 631.402 139.281 631.402 140.627C631.402 141.973 632.4 143.065 633.631 143.065Z" fill="#D1D1D1"/>
<path d="M596.385 76.4301C597.256 75.4779 598.667 75.4779 599.537 76.4301C600.408 77.3823 600.408 78.926 599.537 79.8782C598.667 80.8304 597.256 80.8304 596.385 79.8782C595.515 78.926 595.515 77.3823 596.385 76.4301Z" fill="#D1D1D1"/>
<path d="M607.981 89.1169C608.852 88.1647 610.263 88.1647 611.134 89.1169C612.004 90.0691 612.004 91.6128 611.134 92.565C610.263 93.5172 608.852 93.5172 607.981 92.565C607.111 91.6128 607.111 90.0691 607.981 89.1169Z" fill="#D1D1D1"/>
<path d="M619.58 101.802C620.45 100.85 621.861 100.85 622.732 101.802C623.602 102.754 623.602 104.298 622.732 105.25C621.861 106.202 620.45 106.202 619.58 105.25C618.709 104.298 618.709 102.754 619.58 101.802Z" fill="#D1D1D1"/>
<path d="M631.177 114.489C632.048 113.537 633.459 113.537 634.329 114.489C635.2 115.441 635.2 116.985 634.329 117.937C633.459 118.889 632.048 118.889 631.177 117.937C630.307 116.985 630.307 115.441 631.177 114.489Z" fill="#D1D1D1"/>
<path d="M642.775 127.176C643.645 126.224 645.057 126.224 645.927 127.176C646.798 128.128 646.798 129.672 645.927 130.624C645.057 131.576 643.645 131.576 642.775 130.624C641.904 129.672 641.904 128.128 642.775 127.176Z" fill="#D1D1D1"/>
<path d="M618.702 77.3893C619.573 76.4371 620.984 76.4371 621.854 77.3893C622.725 78.3415 622.725 79.8852 621.854 80.8374C620.984 81.7896 619.573 81.7896 618.702 80.8374C617.832 79.8852 617.832 78.3415 618.702 77.3893Z" fill="#D1D1D1"/>
<path d="M630.299 90.0763C631.17 89.1241 632.581 89.1241 633.451 90.0763C634.322 91.0285 634.322 92.5722 633.451 93.5244C632.581 94.4766 631.17 94.4766 630.299 93.5244C629.429 92.5722 629.429 91.0285 630.299 90.0763Z" fill="#D1D1D1"/>
<path d="M641.897 102.763C642.767 101.811 644.178 101.811 645.049 102.763C645.919 103.715 645.919 105.259 645.049 106.211C644.178 107.163 642.767 107.163 641.897 106.211C641.026 105.259 641.026 103.715 641.897 102.763Z" fill="#D1D1D1"/>
<path d="M653.495 115.45C654.365 114.498 655.776 114.498 656.647 115.45C657.517 116.402 657.517 117.946 656.647 118.898C655.776 119.85 654.365 119.85 653.495 118.898C652.624 117.946 652.624 116.402 653.495 115.45Z" fill="#D1D1D1"/>
<path d="M641.02 78.3494C641.891 77.3972 643.302 77.3972 644.172 78.3494C645.043 79.3016 645.043 80.8453 644.172 81.7975C643.302 82.7497 641.891 82.7497 641.02 81.7975C640.15 80.8453 640.15 79.3016 641.02 78.3494Z" fill="#D1D1D1"/>
<path d="M652.617 91.0362C653.487 90.084 654.898 90.084 655.769 91.0362C656.639 91.9884 656.639 93.5321 655.769 94.4843C654.898 95.4365 653.487 95.4365 652.617 94.4843C651.746 93.5321 651.746 91.9884 652.617 91.0362Z" fill="#D1D1D1"/>
<path d="M664.214 103.721C665.085 102.769 666.496 102.769 667.366 103.721C668.237 104.674 668.237 106.217 667.366 107.17C666.496 108.122 665.085 108.122 664.214 107.17C663.344 106.217 663.344 104.674 664.214 103.721Z" fill="#D1D1D1"/>
<path d="M663.338 79.3086C664.209 78.3564 665.62 78.3564 666.491 79.3086C667.361 80.2608 667.361 81.8045 666.491 82.7567C665.62 83.7089 664.209 83.7089 663.338 82.7567C662.468 81.8045 662.468 80.2608 663.338 79.3086Z" fill="#D1D1D1"/>
<path d="M674.936 91.9953C675.806 91.0431 677.217 91.0431 678.088 91.9953C678.958 92.9475 678.958 94.4912 678.088 95.4434C677.217 96.3956 675.806 96.3956 674.936 95.4434C674.065 94.4912 674.065 92.9475 674.936 91.9953Z" fill="#D1D1D1"/>
<path d="M687.231 84.4304C688.461 84.4304 689.459 83.3389 689.459 81.9926C689.459 80.6462 688.461 79.5547 687.231 79.5547C686 79.5547 685.002 80.6462 685.002 81.9926C685.002 83.3389 686 84.4304 687.231 84.4304Z" fill="#D1D1D1"/>
<path d="M642.855 150.717C643.725 149.765 645.136 149.765 646.007 150.717C646.877 151.669 646.877 153.213 646.007 154.165C645.136 155.117 643.725 155.117 642.855 154.165C641.984 153.213 641.984 151.668 642.855 150.717Z" fill="#D1D1D1"/>
<path d="M654.451 163.403C655.322 162.45 656.733 162.45 657.603 163.403C658.474 164.355 658.474 165.899 657.603 166.851C656.733 167.803 655.322 167.803 654.451 166.851C653.581 165.899 653.581 164.355 654.451 163.403Z" fill="#D1D1D1"/>
<path d="M666.049 176.089C666.919 175.137 668.331 175.137 669.201 176.089C670.071 177.042 670.071 178.585 669.201 179.537C668.331 180.49 666.919 180.49 666.049 179.537C665.178 178.585 665.178 177.042 666.049 176.089Z" fill="#D1D1D1"/>
<path d="M677.647 188.776C678.517 187.824 679.929 187.824 680.799 188.776C681.67 189.728 681.67 191.272 680.799 192.224C679.929 193.177 678.517 193.177 677.647 192.224C676.777 191.272 676.777 189.728 677.647 188.776Z" fill="#D1D1D1"/>
<path d="M653.574 138.99C654.445 138.037 655.856 138.037 656.726 138.99C657.597 139.942 657.597 141.486 656.726 142.438C655.856 143.39 654.445 143.39 653.574 142.438C652.704 141.486 652.704 139.942 653.574 138.99Z" fill="#D1D1D1"/>
<path d="M665.172 151.677C666.043 150.724 667.454 150.724 668.325 151.677C669.195 152.629 669.195 154.172 668.325 155.125C667.454 156.077 666.043 156.077 665.172 155.125C664.302 154.172 664.302 152.629 665.172 151.677Z" fill="#D1D1D1"/>
<path d="M678.345 168.524C679.576 168.524 680.574 167.433 680.574 166.087C680.574 164.74 679.576 163.649 678.345 163.649C677.114 163.649 676.117 164.74 676.117 166.087C676.117 167.433 677.114 168.524 678.345 168.524Z" fill="#D1D1D1"/>
<path d="M664.294 127.263C665.165 126.311 666.576 126.311 667.447 127.263C668.317 128.215 668.317 129.759 667.447 130.711C666.576 131.664 665.165 131.664 664.294 130.711C663.424 129.759 663.424 128.215 664.294 127.263Z" fill="#D1D1D1"/>
<path d="M675.893 139.95C676.763 138.998 678.174 138.998 679.045 139.95C679.915 140.902 679.915 142.446 679.045 143.398C678.174 144.35 676.763 144.35 675.893 143.398C675.022 142.446 675.022 140.902 675.893 139.95Z" fill="#D1D1D1"/>
<path d="M687.49 152.635C688.36 151.683 689.771 151.683 690.642 152.635C691.512 153.588 691.512 155.131 690.642 156.084C689.771 157.036 688.36 157.036 687.49 156.084C686.619 155.133 686.619 153.589 687.49 152.635Z" fill="#D1D1D1"/>
<path d="M675.014 115.537C675.884 114.584 677.295 114.584 678.166 115.537C679.036 116.489 679.036 118.033 678.166 118.985C677.295 119.937 675.884 119.937 675.014 118.985C674.145 118.033 674.145 116.489 675.014 115.537Z" fill="#D1D1D1"/>
<path d="M686.612 128.222C687.482 127.27 688.893 127.27 689.764 128.222C690.634 129.174 690.634 130.718 689.764 131.67C688.893 132.622 687.482 132.622 686.612 131.67C685.741 130.718 685.741 129.174 686.612 128.222Z" fill="#D1D1D1"/>
<path d="M685.735 103.809C686.605 102.857 688.017 102.857 688.887 103.809C689.757 104.761 689.757 106.305 688.887 107.257C688.017 108.209 686.605 108.209 685.735 107.257C684.864 106.305 684.864 104.761 685.735 103.809Z" fill="#D1D1D1"/>
<path d="M533.008 171.129C533.878 170.177 535.29 170.177 536.16 171.129C537.03 172.081 537.03 173.625 536.16 174.577C535.29 175.529 533.878 175.529 533.008 174.577C532.139 173.625 532.139 172.081 533.008 171.129Z" fill="#D1D1D1"/>
<path d="M544.605 183.816C545.476 182.864 546.887 182.864 547.758 183.816C548.628 184.768 548.628 186.312 547.758 187.264C546.887 188.216 545.476 188.216 544.605 187.264C543.735 186.312 543.735 184.768 544.605 183.816Z" fill="#D1D1D1"/>
<path d="M556.203 196.502C557.074 195.55 558.485 195.55 559.355 196.502C560.226 197.455 560.226 198.998 559.355 199.95C558.485 200.903 557.074 200.903 556.203 199.95C555.333 198.998 555.333 197.455 556.203 196.502Z" fill="#D1D1D1"/>
<path d="M567.801 209.189C568.671 208.237 570.082 208.237 570.953 209.189C571.823 210.141 571.823 211.685 570.953 212.637C570.082 213.59 568.671 213.59 567.801 212.637C566.93 211.685 566.93 210.141 567.801 209.189Z" fill="#D1D1D1"/>
<path d="M533.708 150.878C534.939 150.878 535.937 149.787 535.937 148.44C535.937 147.094 534.939 146.003 533.708 146.003C532.477 146.003 531.479 147.094 531.479 148.44C531.479 149.787 532.477 150.878 533.708 150.878Z" fill="#D1D1D1"/>
<path d="M545.304 163.565C546.535 163.565 547.533 162.474 547.533 161.127C547.533 159.781 546.535 158.69 545.304 158.69C544.073 158.69 543.076 159.781 543.076 161.127C543.076 162.474 544.073 163.565 545.304 163.565Z" fill="#D1D1D1"/>
<path d="M556.902 176.251C558.133 176.251 559.131 175.159 559.131 173.813C559.131 172.467 558.133 171.375 556.902 171.375C555.672 171.375 554.674 172.467 554.674 173.813C554.674 175.159 555.672 176.251 556.902 176.251Z" fill="#D1D1D1"/>
<path d="M568.5 188.937C569.731 188.937 570.729 187.846 570.729 186.5C570.729 185.153 569.731 184.062 568.5 184.062C567.269 184.062 566.271 185.153 566.271 186.5C566.271 187.846 567.269 188.937 568.5 188.937Z" fill="#D1D1D1"/>
<path d="M580.098 201.624C581.329 201.624 582.326 200.533 582.326 199.187C582.326 197.84 581.329 196.749 580.098 196.749C578.867 196.749 577.869 197.84 577.869 199.187C577.869 200.533 578.867 201.624 580.098 201.624Z" fill="#D1D1D1"/>
<path d="M531.254 122.303C532.124 121.351 533.536 121.351 534.406 122.303C535.276 123.255 535.276 124.799 534.406 125.751C533.536 126.703 532.124 126.703 531.254 125.751C530.382 124.799 530.382 123.255 531.254 122.303Z" fill="#D1D1D1"/>
<path d="M542.85 134.99C543.721 134.038 545.132 134.038 546.002 134.99C546.873 135.942 546.873 137.486 546.002 138.438C545.132 139.39 543.721 139.39 542.85 138.438C541.98 137.486 541.98 135.942 542.85 134.99Z" fill="#D1D1D1"/>
<path d="M554.448 147.676C555.319 146.724 556.73 146.724 557.6 147.676C558.471 148.628 558.471 150.172 557.6 151.124C556.73 152.076 555.319 152.076 554.448 151.124C553.578 150.172 553.578 148.628 554.448 147.676Z" fill="#D1D1D1"/>
<path d="M566.046 160.363C566.916 159.411 568.328 159.411 569.198 160.363C570.069 161.315 570.069 162.859 569.198 163.811C568.328 164.763 566.916 164.763 566.046 163.811C565.175 162.859 565.175 161.315 566.046 160.363Z" fill="#D1D1D1"/>
<path d="M577.644 173.049C578.514 172.096 579.925 172.096 580.796 173.049C581.666 174.001 581.666 175.545 580.796 176.497C579.925 177.449 578.514 177.449 577.644 176.497C576.773 175.545 576.773 174.001 577.644 173.049Z" fill="#D1D1D1"/>
<path d="M589.241 185.735C590.111 184.783 591.522 184.783 592.393 185.735C593.263 186.688 593.263 188.231 592.393 189.184C591.522 190.136 590.111 190.136 589.241 189.184C588.37 188.231 588.37 186.688 589.241 185.735Z" fill="#D1D1D1"/>
<path d="M541.974 110.576C542.844 109.624 544.255 109.624 545.126 110.576C545.996 111.529 545.996 113.072 545.126 114.025C544.255 114.977 542.844 114.977 541.974 114.025C541.103 113.072 541.103 111.529 541.974 110.576Z" fill="#D1D1D1"/>
<path d="M555.147 127.424C556.378 127.424 557.376 126.333 557.376 124.986C557.376 123.64 556.378 122.548 555.147 122.548C553.916 122.548 552.918 123.64 552.918 124.986C552.918 126.333 553.916 127.424 555.147 127.424Z" fill="#D1D1D1"/>
<path d="M566.745 140.111C567.976 140.111 568.973 139.02 568.973 137.673C568.973 136.327 567.976 135.235 566.745 135.235C565.514 135.235 564.516 136.327 564.516 137.673C564.516 139.02 565.514 140.111 566.745 140.111Z" fill="#D1D1D1"/>
<path d="M578.342 152.798C579.573 152.798 580.571 151.706 580.571 150.36C580.571 149.014 579.573 147.922 578.342 147.922C577.112 147.922 576.114 149.014 576.114 150.36C576.114 151.706 577.112 152.798 578.342 152.798Z" fill="#D1D1D1"/>
<path d="M589.939 165.485C591.17 165.485 592.168 164.393 592.168 163.047C592.168 161.7 591.17 160.609 589.939 160.609C588.708 160.609 587.71 161.7 587.71 163.047C587.71 164.393 588.708 165.485 589.939 165.485Z" fill="#D1D1D1"/>
<path d="M599.961 174.009C600.832 173.057 602.243 173.057 603.114 174.009C603.984 174.961 603.984 176.505 603.114 177.457C602.243 178.409 600.832 178.409 599.961 177.457C599.091 176.505 599.091 174.961 599.961 174.009Z" fill="#D1D1D1"/>
<path d="M554.27 103.011C555.501 103.011 556.499 101.92 556.499 100.573C556.499 99.227 555.501 98.1355 554.27 98.1355C553.039 98.1355 552.042 99.227 552.042 100.573C552.042 101.92 553.039 103.011 554.27 103.011Z" fill="#D1D1D1"/>
<path d="M565.867 115.698C567.098 115.698 568.096 114.607 568.096 113.26C568.096 111.914 567.098 110.822 565.867 110.822C564.636 110.822 563.639 111.914 563.639 113.26C563.639 114.607 564.636 115.698 565.867 115.698Z" fill="#D1D1D1"/>
<path d="M577.464 128.385C578.695 128.385 579.693 127.293 579.693 125.947C579.693 124.601 578.695 123.509 577.464 123.509C576.234 123.509 575.236 124.601 575.236 125.947C575.236 127.293 576.234 128.385 577.464 128.385Z" fill="#D1D1D1"/>
<path d="M589.063 141.072C590.293 141.072 591.291 139.98 591.291 138.634C591.291 137.287 590.293 136.196 589.063 136.196C587.832 136.196 586.834 137.287 586.834 138.634C586.834 139.98 587.832 141.072 589.063 141.072Z" fill="#D1D1D1"/>
<path d="M600.661 153.757C601.892 153.757 602.889 152.666 602.889 151.319C602.889 149.973 601.892 148.881 600.661 148.881C599.43 148.881 598.432 149.973 598.432 151.319C598.432 152.666 599.43 153.757 600.661 153.757Z" fill="#D1D1D1"/>
<path d="M612.258 166.444C613.489 166.444 614.486 165.352 614.486 164.006C614.486 162.66 613.489 161.568 612.258 161.568C611.027 161.568 610.029 162.66 610.029 164.006C610.029 165.352 611.027 166.444 612.258 166.444Z" fill="#D1D1D1"/>
<path d="M563.413 87.1226C564.284 86.1704 565.695 86.1704 566.565 87.1226C567.436 88.0748 567.436 89.6185 566.565 90.5707C565.695 91.5229 564.284 91.5229 563.413 90.5707C562.543 89.6199 562.543 88.0748 563.413 87.1226Z" fill="#D1D1D1"/>
<path d="M575.011 99.8095C575.882 98.8573 577.293 98.8573 578.163 99.8095C579.034 100.762 579.034 102.305 578.163 103.258C577.293 104.21 575.882 104.21 575.011 103.258C574.141 102.305 574.141 100.762 575.011 99.8095Z" fill="#D1D1D1"/>
<path d="M586.608 112.496C587.479 111.544 588.89 111.544 589.761 112.496C590.631 113.448 590.631 114.992 589.761 115.944C588.89 116.896 587.479 116.896 586.608 115.944C585.738 114.992 585.738 113.448 586.608 112.496Z" fill="#D1D1D1"/>
<path d="M598.207 125.183C599.077 124.231 600.488 124.231 601.359 125.183C602.229 126.135 602.229 127.679 601.359 128.631C600.488 129.583 599.077 129.583 598.207 128.631C597.336 127.679 597.336 126.135 598.207 125.183Z" fill="#D1D1D1"/>
<path d="M609.805 137.87C610.675 136.917 612.086 136.917 612.957 137.87C613.827 138.822 613.827 140.366 612.957 141.318C612.086 142.27 610.675 142.27 609.805 141.318C608.934 140.366 608.934 138.822 609.805 137.87Z" fill="#D1D1D1"/>
<path d="M621.401 150.555C622.271 149.603 623.683 149.603 624.553 150.555C625.423 151.507 625.423 153.051 624.553 154.003C623.683 154.955 622.271 154.955 621.401 154.003C620.53 153.052 620.53 151.507 621.401 150.555Z" fill="#D1D1D1"/>
<path d="M580.177 225.166C581.408 225.166 582.406 224.074 582.406 222.728C582.406 221.381 581.408 220.29 580.177 220.29C578.946 220.29 577.949 221.381 577.949 222.728C577.949 224.074 578.946 225.166 580.177 225.166Z" fill="#D1D1D1"/>
<path d="M591.774 237.851C593.005 237.851 594.003 236.76 594.003 235.413C594.003 234.067 593.005 232.975 591.774 232.975C590.543 232.975 589.545 234.067 589.545 235.413C589.545 236.76 590.543 237.851 591.774 237.851Z" fill="#D1D1D1"/>
<path d="M603.372 250.538C604.602 250.538 605.6 249.446 605.6 248.1C605.6 246.754 604.602 245.662 603.372 245.662C602.141 245.662 601.143 246.754 601.143 248.1C601.143 249.446 602.141 250.538 603.372 250.538Z" fill="#D1D1D1"/>
<path d="M589.32 209.277C590.191 208.325 591.602 208.325 592.472 209.277C593.343 210.229 593.343 211.773 592.472 212.725C591.602 213.677 590.191 213.677 589.32 212.725C588.45 211.773 588.45 210.229 589.32 209.277Z" fill="#D1D1D1"/>
<path d="M600.918 221.962C601.788 221.01 603.2 221.01 604.07 221.962C604.941 222.915 604.941 224.458 604.07 225.41C603.2 226.363 601.788 226.363 600.918 225.41C600.048 224.46 600.048 222.916 600.918 221.962Z" fill="#D1D1D1"/>
<path d="M612.516 234.649C613.386 233.697 614.797 233.697 615.668 234.649C616.538 235.601 616.538 237.145 615.668 238.097C614.797 239.049 613.386 239.049 612.516 238.097C611.645 237.145 611.645 235.601 612.516 234.649Z" fill="#D1D1D1"/>
<path d="M601.617 201.712C602.848 201.712 603.845 200.62 603.845 199.274C603.845 197.927 602.848 196.836 601.617 196.836C600.386 196.836 599.388 197.927 599.388 199.274C599.388 200.62 600.386 201.712 601.617 201.712Z" fill="#D1D1D1"/>
<path d="M613.215 214.399C614.446 214.399 615.444 213.307 615.444 211.961C615.444 210.614 614.446 209.523 613.215 209.523C611.984 209.523 610.986 210.614 610.986 211.961C610.986 213.307 611.984 214.399 613.215 214.399Z" fill="#D1D1D1"/>
<path d="M624.812 227.085C626.043 227.085 627.041 225.994 627.041 224.647C627.041 223.301 626.043 222.21 624.812 222.21C623.581 222.21 622.583 223.301 622.583 224.647C622.583 225.994 623.581 227.085 624.812 227.085Z" fill="#D1D1D1"/>
<path d="M636.411 239.771C637.642 239.771 638.639 238.679 638.639 237.333C638.639 235.986 637.642 234.895 636.411 234.895C635.18 234.895 634.182 235.986 634.182 237.333C634.182 238.679 635.18 239.771 636.411 239.771Z" fill="#D1D1D1"/>
<path d="M610.761 185.823C611.631 184.87 613.042 184.87 613.913 185.823C614.783 186.775 614.783 188.318 613.913 189.271C613.042 190.223 611.631 190.223 610.761 189.271C609.89 188.318 609.89 186.775 610.761 185.823Z" fill="#D1D1D1"/>
<path d="M622.359 198.509C623.229 197.557 624.641 197.557 625.511 198.509C626.381 199.462 626.381 201.005 625.511 201.957C624.641 202.91 623.229 202.91 622.359 201.957C621.488 201.005 621.488 199.462 622.359 198.509Z" fill="#D1D1D1"/>
<path d="M633.956 211.196C634.827 210.244 636.238 210.244 637.108 211.196C637.979 212.148 637.979 213.692 637.108 214.644C636.238 215.596 634.827 215.596 633.956 214.644C633.086 213.692 633.086 212.148 633.956 211.196Z" fill="#D1D1D1"/>
<path d="M645.553 223.883C646.423 222.931 647.834 222.931 648.705 223.883C649.575 224.835 649.575 226.379 648.705 227.331C647.834 228.283 646.423 228.283 645.553 227.331C644.682 226.379 644.682 224.835 645.553 223.883Z" fill="#D1D1D1"/>
<path d="M657.151 236.568C658.021 235.616 659.433 235.616 660.303 236.568C661.173 237.521 661.173 239.064 660.303 240.016C659.433 240.969 658.021 240.969 657.151 240.016C656.28 239.064 656.28 237.521 657.151 236.568Z" fill="#D1D1D1"/>
<path d="M621.481 174.096C622.351 173.144 623.763 173.144 624.633 174.096C625.504 175.048 625.504 176.592 624.633 177.544C623.763 178.497 622.351 178.497 621.481 177.544C620.611 176.592 620.611 175.048 621.481 174.096Z" fill="#D1D1D1"/>
<path d="M633.079 186.783C633.95 185.831 635.361 185.831 636.231 186.783C637.102 187.735 637.102 189.279 636.231 190.231C635.361 191.183 633.95 191.183 633.079 190.231C632.209 189.279 632.209 187.735 633.079 186.783Z" fill="#D1D1D1"/>
<path d="M644.676 199.469C645.547 198.516 646.958 198.516 647.828 199.469C648.699 200.421 648.699 201.964 647.828 202.917C646.958 203.869 645.547 203.869 644.676 202.917C643.806 201.966 643.806 200.422 644.676 199.469Z" fill="#D1D1D1"/>
<path d="M656.274 212.155C657.145 211.203 658.556 211.203 659.427 212.155C660.297 213.108 660.297 214.651 659.427 215.603C658.556 216.556 657.145 216.556 656.274 215.603C655.404 214.651 655.404 213.108 656.274 212.155Z" fill="#D1D1D1"/>
<path d="M667.871 224.842C668.741 223.89 670.152 223.89 671.023 224.842C671.893 225.794 671.893 227.338 671.023 228.29C670.152 229.242 668.741 229.242 667.871 228.29C667.001 227.338 667.001 225.794 667.871 224.842Z" fill="#D1D1D1"/>
<path d="M679.469 237.529C680.339 236.577 681.751 236.577 682.621 237.529C683.491 238.481 683.491 240.025 682.621 240.977C681.751 241.929 680.339 241.929 679.469 240.977C678.598 240.025 678.598 238.481 679.469 237.529Z" fill="#D1D1D1"/>
<path d="M632.202 162.37C633.072 161.418 634.483 161.418 635.354 162.37C636.224 163.322 636.224 164.866 635.354 165.818C634.483 166.77 633.072 166.77 632.202 165.818C631.331 164.866 631.331 163.322 632.202 162.37Z" fill="#D1D1D1"/>
<path d="M645.375 179.218C646.606 179.218 647.604 178.127 647.604 176.78C647.604 175.434 646.606 174.342 645.375 174.342C644.144 174.342 643.146 175.434 643.146 176.78C643.146 178.127 644.144 179.218 645.375 179.218Z" fill="#D1D1D1"/>
<path d="M656.973 191.905C658.204 191.905 659.201 190.813 659.201 189.467C659.201 188.121 658.204 187.029 656.973 187.029C655.742 187.029 654.744 188.121 654.744 189.467C654.744 190.813 655.742 191.905 656.973 191.905Z" fill="#D1D1D1"/>
<path d="M668.57 204.592C669.801 204.592 670.799 203.5 670.799 202.154C670.799 200.808 669.801 199.716 668.57 199.716C667.34 199.716 666.342 200.808 666.342 202.154C666.342 203.5 667.34 204.592 668.57 204.592Z" fill="#D1D1D1"/>
<path d="M680.167 217.277C681.398 217.277 682.396 216.185 682.396 214.839C682.396 213.493 681.398 212.401 680.167 212.401C678.936 212.401 677.938 213.493 677.938 214.839C677.938 216.185 678.936 217.277 680.167 217.277Z" fill="#D1D1D1"/>
</g>
<path d="M621.371 108.171C621.194 108.986 620.992 109.788 620.764 110.575C618.857 117.32 616.027 123.995 611.2 128.694C605.541 134.208 597.682 136.377 590.102 136.336C584.404 136.308 578.795 135.134 573.249 133.696C580.538 128.237 588.359 123.235 597.177 119.365C605.212 115.841 613.399 112.234 621.371 108.171Z" fill="#D28D7D"/>
<path d="M609.881 96.1377L609.927 109.383L609.957 118.009L609.974 121.69L594.301 121.75L594.25 106.793L594.208 96.1971L595.723 96.1875C595.723 96.1875 595.723 96.1875 595.736 96.1861L609.881 96.1377Z" fill="#D28D7D"/>
<path opacity="0.5412" d="M609.862 106.051L609.891 114.677C608.704 116.117 606.789 116.666 605.058 116.358C603.147 116.01 601.442 114.771 600.016 113.299C597.381 110.592 595.56 107.172 594.184 103.462L594.142 92.8665L595.657 92.8569C595.657 92.8569 595.657 92.8569 595.669 92.8555C602.005 94.905 606.797 99.6342 609.653 105.596C609.722 105.747 609.792 105.899 609.862 106.051Z" fill="#D28D7D"/>
<path d="M622.119 72.5205C623.703 80.1022 623.927 89.5662 620.905 100.183C616.244 116.557 602.208 112.261 598.273 109.84C591.209 105.495 585.341 98.5685 582.677 90.1977C580.012 81.8256 580.799 72.0341 585.422 64.7537C590.045 57.4719 598.612 53.1863 606.559 54.9207C614.506 56.6538 620.23 63.4809 622.119 72.5205Z" fill="#D28D7D"/>
<path d="M615.54 64.679C615.794 67.602 613.195 69.9873 610.575 70.6203C607.953 71.2518 605.224 70.7101 602.543 70.869C599.862 71.028 596.901 72.2013 595.871 74.9128C594.485 78.5613 597.272 83.0044 595.716 86.57C594.934 88.3624 593.184 89.5205 592.556 91.3849C591.466 94.6201 594.157 97.7172 595.744 100.695C597.122 103.281 597.729 106.432 597.045 109.329C596.362 112.227 594.274 114.775 591.613 115.464C588.316 116.316 584.794 114.351 581.521 115.302C577.566 116.45 575.624 121.202 572.652 124.277C569.599 127.433 565.322 128.84 561.13 129.13C556.314 129.465 551.152 128.286 547.701 124.594C544.251 120.904 543.215 114.307 546.339 110.284C547.869 108.314 550.105 107.203 551.993 105.647C553.879 104.091 555.539 101.643 555.048 99.1158C554.727 97.4671 553.573 96.197 552.607 94.8855C550.071 91.4415 548.57 86.9652 549.029 82.5718C549.488 78.1784 552.093 73.9882 555.873 72.4224C559.927 70.7433 564.772 72.0962 568.565 69.7994C572.151 67.6255 573.628 62.9543 575.576 59.0073C579.78 50.4928 587.858 43.9946 596.699 43.6767C605.54 43.3589 614.554 50.1487 615.695 59.5836C617.378 58.8014 619.267 60.164 620.387 61.7437C622.431 64.6265 622.617 67.8162 621.908 71.3431C620.759 68.3096 618.92 66.6 615.54 64.679Z" fill="#FFC64C"/>
<path d="M555.906 97.0166C555.966 99.9575 554.768 102.9 552.732 104.821C551.189 106.276 549.257 107.123 547.382 107.997C545.508 108.87 543.602 109.833 542.2 111.45C540.796 113.067 539.994 115.497 540.723 117.578" stroke="#FFC64C" stroke-miterlimit="10"/>
<path d="M576.986 57.9388C575.254 61.919 573.185 66.2032 569.46 67.8851C567.229 68.8926 564.73 68.7959 562.316 68.7889C559.902 68.782 557.361 68.9216 555.307 70.3092C553.252 71.6967 551.938 74.7399 553.07 77.0713" stroke="#FFC64C" stroke-miterlimit="10"/>
<path d="M596.079 72.1681C598.253 70.916 600.776 70.5788 603.122 71.227C604.707 71.6637 606.195 72.5302 607.779 72.9641C609.365 73.3995 611.17 73.3345 612.432 72.0921C613.337 71.2021 613.848 69.7524 613.756 68.3427C613.664 66.9317 612.969 65.6008 611.96 64.896" stroke="#FFC64C" stroke-miterlimit="10"/>
<path d="M615.46 85.2085C615.65 84.2563 616.511 83.6524 617.381 83.8611C618.252 84.0697 618.803 85.0109 618.613 85.9631C618.422 86.9153 617.562 87.5192 616.691 87.3105C615.821 87.1019 615.269 86.1607 615.46 85.2085Z" fill="#383838"/>
<path d="M603.231 85.4269C603.422 84.4747 604.282 83.8708 605.153 84.0794C606.023 84.2881 606.574 85.2293 606.385 86.1815C606.194 87.1337 605.333 87.7376 604.463 87.5289C603.591 87.3202 603.04 86.3791 603.231 85.4269Z" fill="#383838"/>
<path d="M604.129 78.6248C605.656 77.9434 607.182 77.2621 608.708 76.5808C609.102 76.4053 609.532 76.1938 609.708 75.7696C609.893 75.3301 609.725 74.7842 609.403 74.4539C609.081 74.1222 608.637 73.9716 608.2 73.8969C606.378 73.5874 604.429 74.5562 603.445 76.2616C603.21 76.6693 603.021 77.1391 603.067 77.6187C603.112 78.0969 603.505 78.9026 604.129 78.6248Z" fill="#FFC64C"/>
<path d="M620.102 78.4893C618.555 77.8674 617.008 77.2455 615.461 76.6236C615.061 76.4633 614.626 76.2684 614.435 75.8524C614.236 75.4199 614.387 74.8685 614.698 74.5257C615.008 74.1816 615.447 74.013 615.881 73.9232C617.692 73.5431 619.671 74.4359 620.71 76.1012C620.958 76.4992 621.161 76.9622 621.131 77.4431C621.1 77.9227 620.734 78.7436 620.102 78.4893Z" fill="#FFC64C"/>
<path d="M587.944 91.4702C587.554 88.2543 589.621 85.301 592.561 84.8739C595.501 84.4469 598.2 86.7079 598.59 89.9238C598.98 93.1397 596.913 96.093 593.974 96.5201C591.035 96.9471 588.335 94.6861 587.944 91.4702Z" fill="#D28D7D"/>
<path d="M590.564 88.2695C593.181 88.6275 595.482 90.9257 596.045 93.7436" stroke="#8A4E42" stroke-width="0.7" stroke-miterlimit="10"/>
<path d="M591.201 91.853C592.24 91.1136 593.498 90.7515 594.734 90.8359" stroke="#8A4E42" stroke-width="0.7" stroke-miterlimit="10"/>
<path d="M621.421 80.9329C620.223 80.8734 618.969 80.8251 617.838 80.8251C616.64 80.8251 615.315 81.0006 614.541 81.9998C613.856 82.8829 613.771 84.1433 613.85 85.2972C613.975 87.1339 614.454 88.9844 615.479 90.4438C616.505 91.9032 618.131 92.9217 619.814 92.8499C621.93 92.7587 623.412 91.3476 624.432 89.3175C625.23 87.7282 625.525 85.7809 625.421 83.7466C625.329 81.9362 624.369 81.0793 621.421 80.9329Z" stroke="#D1D1D1" stroke-miterlimit="10"/>
<path d="M612.307 78.126C611.684 82.5097 612.715 87.1491 615.108 90.7298C615.566 91.4153 616.095 92.1312 616.108 92.9798C616.125 94.0232 615.326 94.8993 614.438 95.2808C612.801 95.9842 610.757 95.2808 609.783 93.6776" stroke="#8A4E42" stroke-width="0.7" stroke-miterlimit="10"/>
<path d="M602.197 80.9329C603.394 80.8734 604.649 80.8251 605.779 80.8251C606.977 80.8251 608.302 81.0006 609.077 81.9998C609.762 82.8829 609.846 84.1433 609.768 85.2972C609.643 87.1339 609.164 88.9844 608.138 90.4438C607.112 91.9032 605.486 92.9217 603.803 92.8499C601.686 92.7587 600.205 91.3476 599.186 89.3175C598.387 87.7282 598.092 85.7809 598.197 83.7466C598.289 81.9362 599.249 81.0793 602.197 80.9329Z" stroke="#D1D1D1" stroke-miterlimit="10"/>
<path d="M609.675 85.7901C610.997 85.1431 612.59 85.1954 613.872 85.9278" stroke="#D1D1D1" stroke-miterlimit="10"/>
<path d="M606.421 97.3521C608.826 99.6836 612.843 99.6628 615.226 97.3065" stroke="#383838" stroke-width="0.7" stroke-miterlimit="10"/>
<g opacity="0.3294">
<path d="M952.4 114.705C924.141 113.441 894.611 118.825 872.344 137.901C850.077 156.976 836.385 188.851 840.843 219.402C845.3 249.954 869.715 276.755 897.971 278.076C907.31 278.513 916.657 276.379 925.978 277.158C942.359 278.529 956.894 288.639 972.432 294.479C990.444 301.249 1011.14 302 1027.91 292.125C1044.68 282.251 1055.99 260.218 1051.22 240.049C1048.5 228.548 1041.27 219.088 1035.8 208.824C1025.34 189.181 1009.01 117.24 952.4 114.705Z" fill="#E4E6F2"/>
<path d="M954.807 317.439C943.7 312.85 932.226 308.809 920.369 308.126C908.512 307.443 896.112 310.42 886.888 318.599C875.005 329.137 870.004 347.595 873.428 363.905C876.852 380.214 888.03 393.998 901.884 401.092C915.739 408.187 931.955 408.893 946.734 404.569C959.076 400.958 970.781 393.727 978.694 382.756C986.607 371.784 990.335 356.865 987.022 343.369C983.708 329.871 971.639 324.394 954.807 317.439Z" fill="#E4E6F2"/>
</g>
<path d="M828.96 396.234C828.159 400.988 827.332 405.821 825.186 410.148C823.04 414.475 819.342 418.303 814.61 419.455C807.804 421.112 800.828 417.006 793.835 417.483C788.773 417.828 783.958 420.75 780.744 425.603C789.062 432.37 799.61 435.718 809.881 438.92C823.384 443.131 828.525 447.923 838.412 446.972C840.94 442.588 843.156 436.333 842.587 431.133C841.331 419.644 843.626 410.476 847.832 400.091C841.714 397.945 835.467 396.154 828.96 396.234Z" fill="#905338"/>
<path d="M824.304 411.084C819.649 410.171 814.929 409.655 810.2 409.546C808.42 409.505 806.21 409.831 805.61 411.665C805.198 412.924 805.849 414.376 806.851 415.143C807.852 415.912 809.118 416.129 810.34 416.2C815.183 416.485 820.102 414.738 823.868 411.397C821.211 416.394 820.017 422.306 820.504 428.062C820.621 429.457 821.096 431.151 822.359 431.384C823.325 431.564 824.195 430.742 824.814 429.911C828.701 424.693 828.697 416.47 824.304 411.084Z" stroke="#BD8168" stroke-miterlimit="10"/>
<path d="M948.215 417.089C955.815 426.515 958.442 439.368 962.464 451.141C965.579 460.263 970.02 470.195 974.075 478.863C974.897 480.618 975.886 482.534 977.604 483.124C979.358 483.726 981.21 482.717 982.769 481.65C986.052 479.403 988.935 475.169 989.76 471.028C991.347 463.068 983.352 456.264 983.224 448.119C983.124 441.84 987.701 435.345 984.875 429.781C984.558 426.843 982.156 424.698 979.701 423.456C977.247 422.215 974.532 421.518 972.331 419.799C967.971 416.396 966.675 409.916 963.18 405.719C958.109 409.409 953.035 413.099 948.215 417.089Z" fill="#905338"/>
<path d="M959.272 438.627C957.121 445.551 956.877 453.169 958.58 460.24C958.898 461.562 959.301 462.902 960.113 463.941C960.924 464.981 962.232 465.658 963.438 465.3C965.364 464.728 965.972 462.081 966.005 459.898C966.109 453.042 963.545 443.421 959.485 438.199C961.571 442.092 964.906 448.131 968.475 450.394C969.521 451.057 970.846 451.632 971.89 450.964C972.744 450.417 973.063 449.176 972.865 448.116C972.668 447.055 972.057 446.145 971.403 445.333C968.313 441.484 963.851 438.995 959.272 438.627Z" stroke="#BD8168" stroke-miterlimit="10"/>
<path d="M943.555 199.688C952.101 217.762 970.591 230.525 973.012 250.701C974.904 266.474 968.031 276.137 957.679 287.31C947.327 298.484 932.97 311.739 924.322 324.919C938.605 335.517 963.737 391.039 983.678 419.672C974.159 431.023 960.825 442.48 943.833 442.48C932.421 416.905 910.123 366.191 898.71 340.616C895.793 334.079 892.824 327.332 892.384 320.075C891.875 311.65 894.009 303.066 897.716 295.66C910.161 270.802 914.656 263.608 920.977 248.41C919.923 240.775 914.324 238.545 909.989 229.381C916.882 222.783 935.787 204.278 943.555 199.688Z" fill="#A7C2FF"/>
<path d="M932.769 242.325C872.098 264.759 856.903 265.75 848.617 283.128C839.815 301.588 824.266 368.974 813.031 401.548C826.64 413.713 837.94 417.676 855.44 415.893C863.368 380.871 860.894 355.257 871.546 308.198C890.414 301.625 910.492 296.376 929.361 289.803C939.134 286.4 949.846 282.171 954.679 272.274C958.057 265.356 957.655 256.418 953.672 249.895C949.688 243.371 942.111 238.87 932.769 242.325Z" fill="#A7C2FF"/>
<path d="M935.022 214.77C938.014 222.533 943.705 228.592 948.267 235.377C952.829 242.164 956.419 250.766 954.257 258.852C952.902 263.914 949.499 267.961 946.201 271.81C932.745 287.516 919.29 303.221 905.835 318.928C907.909 319.273 909.985 319.619 912.06 319.964C910.503 320.325 909.585 322.236 909.64 323.976C909.696 325.716 910.479 327.317 911.243 328.844C929.142 364.61 947.041 400.378 964.941 436.145" stroke="#889ED1" stroke-miterlimit="10"/>
<path d="M894.715 303.17C905.235 286.141 914.7 268.333 922.49 249.817C919.828 244.705 917.166 239.591 914.506 234.479" stroke="#889ED1" stroke-miterlimit="10"/>
<path d="M908.805 279.293C902.07 283.873 894.061 285.468 886.398 287.703C878.736 289.938 870.837 293.202 865.897 299.986C863.026 303.93 861.392 308.755 859.834 313.501C849.082 346.245 839.724 379.536 831.801 413.232" stroke="#889ED1" stroke-miterlimit="10"/>
<path d="M926.099 222.903C929.387 229.768 933.235 237.188 939.885 239.862C943.262 241.221 947.179 241.107 950.34 239.226" stroke="#889ED1" stroke-miterlimit="10"/>
<path d="M945.341 209.54C949.624 219.262 956.852 227.398 965.613 232.358" stroke="#889ED1" stroke-miterlimit="10"/>
<path d="M890.863 107.904L894.203 120.572L897.688 133.712L912.699 129.135L908.517 113.305L905.85 103.171L904.401 103.624C904.401 103.624 904.401 103.624 904.389 103.626L890.863 107.904Z" fill="#F58556"/>
<path opacity="0.5412" d="M893.415 117.368L895.592 125.617C897.094 126.629 899.064 126.568 900.639 125.745C902.375 124.828 903.688 123.124 904.673 121.282C906.497 117.891 907.364 114.065 907.729 110.102L905.062 99.9674L903.613 100.421C903.613 100.421 903.613 100.421 903.6 100.422C898.071 104.318 894.702 110.301 893.498 116.868C893.471 117.034 893.443 117.201 893.415 117.368Z" fill="#F58556"/>
<path d="M870.736 80.1674C869.747 87.1673 869.824 89.1795 866.848 93.3255C863.873 97.4715 860.009 100.748 856.851 104.728C853.694 108.709 851.186 113.811 851.2 119.34C857.05 123.642 863.545 126.892 870.345 128.918C875.347 130.407 880.672 131.23 885.701 129.853C891.359 128.304 896.121 124.11 900.065 119.238C896.95 109.243 892.878 99.6053 887.938 90.5324C886.152 87.2516 884.226 84.0108 881.699 81.3753C879.171 78.7412 876.139 78.2451 870.736 80.1674Z" fill="#383838"/>
<path d="M870.256 89.1836C869.007 92.1784 866.12 93.8921 863.345 95.1635C860.569 96.435 857.584 97.5682 855.586 100.031C853.888 102.125 853.11 105.074 853.527 107.837C853.944 110.599 855.549 113.117 857.773 114.502" stroke="#383838" stroke-miterlimit="10"/>
<path d="M874.276 85.1438C873.842 92.8761 875.023 102.214 879.568 112.101C886.578 127.35 901.319 121.984 904.831 118.899C911.135 113.363 915.881 105.506 917.261 96.8024C918.642 88.0999 916.417 78.6208 910.792 72.2981C905.166 65.9741 896.105 63.3013 888.545 66.4315C880.986 69.5631 874.795 75.9245 874.276 85.1438Z" fill="#F58556"/>
<path d="M882.69 77.8165C887.15 83.6914 894.482 86.7898 901.396 85.7174C899.895 88.3404 900.446 91.7885 901.545 94.6396C902.644 97.4907 904.246 100.152 904.797 103.187C905.359 106.286 904.773 109.498 905.025 112.646C905.449 117.918 908.391 122.871 912.617 124.899C920.159 125.45 927.855 121.608 932.418 115.016C933.983 112.754 935.24 110.153 937.307 108.438C939.49 106.628 942.29 106.044 944.867 105.03C947.445 104.015 950.095 102.228 950.575 99.4711C948.612 92.8596 942.352 89.0052 936.314 86.8354C930.276 84.6657 923.759 83.4343 918.639 79.3146C913.45 75.1368 911.522 70.1215 906.094 66.3224C896.412 59.545 885.339 63.6026 881.089 69.9391C868.155 70.6328 867.863 89.377 875.088 97.85C873.773 90.4756 876.947 82.326 882.69 77.8165Z" fill="#383838"/>
<path d="M893.99 71.212C896.006 69.7361 898.001 68.1689 899.597 66.1691C901.192 64.1694 902.375 61.679 902.506 59.0283C902.638 56.3776 901.58 53.5832 899.526 52.1694C897.472 50.7556 894.445 51.0693 892.939 53.152C889.43 52.4361 885.599 54.4248 883.889 57.8522C882.179 61.2796 882.721 65.8803 885.168 68.7217C887.615 71.5631 891.937 72.7143 893.99 71.212Z" fill="#383838"/>
<path d="M911.242 73.3733C916.829 78.9179 923.921 82.6231 931.375 83.8931C935.922 84.667 940.593 84.5578 945.069 85.7298C949.545 86.9003 954.024 89.7044 955.75 94.3714" stroke="#383838" stroke-miterlimit="10"/>
<path d="M882.769 98.8146C882.44 97.9135 881.505 97.474 880.681 97.8347C879.858 98.1941 879.456 99.2167 879.786 100.118C880.114 101.019 881.049 101.458 881.873 101.098C882.697 100.737 883.097 99.7157 882.769 98.8146Z" fill="#383838"/>
<path d="M894.807 96.8495C894.479 95.9484 893.544 95.509 892.72 95.8697C891.896 96.229 891.495 97.2517 891.824 98.1527C892.153 99.0538 893.088 99.4933 893.911 99.1326C894.735 98.7732 895.137 97.7506 894.807 96.8495Z" fill="#383838"/>
<path d="M895.178 89.3107C893.537 89.33 891.897 89.348 890.256 89.3673C889.833 89.3729 889.364 89.3591 889.052 89.0453C888.729 88.7192 888.69 88.1484 888.869 87.7089C889.047 87.2694 889.401 86.9433 889.776 86.6904C891.338 85.6373 893.469 85.705 894.972 86.8535C895.331 87.1285 895.67 87.4809 895.797 87.9397C895.926 88.3986 895.849 89.3038 895.178 89.3107Z" fill="#383838"/>
<path d="M877.749 91.8219C879.347 91.4142 880.944 91.0079 882.542 90.6002C882.955 90.4951 883.408 90.3611 883.642 89.9755C883.885 89.5747 883.799 89.0095 883.53 88.6294C883.261 88.2494 882.847 88.0241 882.429 87.8749C880.684 87.2571 878.627 87.8748 877.416 89.3799C877.126 89.7392 876.874 90.1704 876.85 90.6485C876.826 91.1281 877.096 91.9877 877.749 91.8219Z" fill="#383838"/>
<path d="M894.3 108.197C892.11 111.79 888.651 113.555 885.174 111.8" stroke="#383838" stroke-width="0.7" stroke-miterlimit="10"/>
<path d="M910.717 100.06C910.621 96.8329 908.152 94.3011 905.202 94.4061C902.252 94.5111 899.938 97.2116 900.034 100.439C900.13 103.666 902.598 106.197 905.548 106.092C908.498 105.987 910.813 103.287 910.717 100.06Z" fill="#F58556"/>
<path d="M907.668 97.3843C905.152 98.2024 903.235 100.868 903.101 103.736" stroke="#C7512E" stroke-width="0.7" stroke-miterlimit="10"/>
<path d="M907.576 101.013C906.446 100.476 905.157 100.345 903.955 100.646" stroke="#C7512E" stroke-width="0.7" stroke-miterlimit="10"/>
<path d="M886.015 90.8116C885.263 94.351 884.512 97.8903 883.76 101.43C883.548 102.43 883.338 103.503 883.672 104.463C884.081 105.645 885.247 106.356 886.398 106.474C887.548 106.591 888.691 106.218 889.776 105.788" stroke="#C7512E" stroke-width="0.7" stroke-miterlimit="10"/>
<path d="M990.888 194.413C996.325 197.314 1001.66 201.198 1004.28 207.569C1000.87 211.963 997.513 213.573 992.045 214.497C987.778 212.074 982.558 209.423 980.796 204.531C980.196 202.866 979.871 201.041 979.832 199.6C979.733 195.956 985.45 191.513 990.888 194.413Z" fill="#F58556"/>
<path d="M999.206 200.199C1003.02 204.235 1006.2 208.983 1008.57 214.175C1009.14 215.412 1009.67 216.73 1009.63 218.112C1009.61 218.928 1009.26 219.862 1008.54 220.044C1008.07 220.162 1007.58 219.918 1007.24 219.552C1006.89 219.186 1006.67 218.709 1006.45 218.245C1003.84 212.783 1000.39 207.8 996.301 203.562C996.953 202.424 997.849 201.451 999.206 200.199Z" fill="#F58556"/>
<path d="M999.706 205.926C1002.61 210.787 1004.75 216.188 1006.01 221.828C1006.3 223.172 1006.55 224.585 1006.24 225.924C1006.05 226.714 1005.52 227.541 1004.78 227.543C1004.3 227.544 1003.87 227.188 1003.61 226.748C1003.35 226.307 1003.23 225.789 1003.11 225.283C1001.67 219.324 999.321 213.627 996.189 208.503C997.058 207.548 998.13 206.817 999.706 205.926Z" fill="#F58556"/>
<path d="M996.079 205.97C998.978 210.831 1001.12 216.232 1002.38 221.871C1002.68 223.214 1002.93 224.628 1002.61 225.967C1002.42 226.756 1001.9 227.584 1001.15 227.586C1000.67 227.587 1000.24 227.23 999.981 226.791C999.722 226.35 999.603 225.832 999.48 225.326C998.042 219.365 995.694 213.67 992.563 208.546C993.431 207.592 994.501 206.861 996.079 205.97Z" fill="#F58556"/>
<path d="M992.689 205.864C994.789 210.584 996.152 215.696 996.699 220.912C996.829 222.155 996.907 223.455 996.484 224.616C996.234 225.301 995.678 225.979 995.008 225.887C994.579 225.829 994.229 225.456 994.041 225.029C993.854 224.602 993.799 224.121 993.742 223.653C993.068 218.127 991.548 212.725 989.268 207.74C990.146 206.993 991.182 206.469 992.689 205.864Z" fill="#F58556"/>
<path d="M992.378 195.14C994.848 196.652 997.528 197.7 1000.1 198.993C1002.56 200.233 1004.97 201.745 1006.86 203.76C1007.01 203.927 1007.1 204.181 1007.02 204.407C1006.71 205.362 1005.67 205.957 1004.72 205.906C1003.64 205.848 1002.67 205.186 1001.81 204.483C1000.94 203.779 1000.09 202.998 999.069 202.631C998.102 202.284 997.052 202.336 996.06 202.088C993.241 201.383 991.262 197.939 992.378 195.14Z" fill="#F58556"/>
<path d="M913.527 135.707C927.089 156.916 949.024 171.475 972.484 174.841C978.894 175.762 986.301 176.414 990.038 182.184C994.268 188.714 991.198 197.758 987.541 204.689C984.184 211.05 979.338 217.823 972.624 217.956C968.849 218.03 965.363 215.919 962.086 213.868C945.792 203.671 929.274 193.288 916.116 178.642C911.087 173.045 906.465 166.578 904.87 158.928C903.275 151.276 905.433 142.248 913.527 135.707Z" fill="#6F65B8"/>
<path d="M890.503 139.202C889.151 141.637 886.568 142.974 884.001 143.451C881.432 143.927 878.806 143.677 876.202 143.679C873.597 143.68 870.896 143.968 868.639 145.391C866.383 146.814 864.69 149.627 865.117 152.438C865.544 155.249 868.641 157.403 870.931 156.048" stroke="#6F65B8" stroke-miterlimit="10"/>
<path d="M915.328 131.113C915.507 126.703 911.702 122.955 907.693 122.459C903.683 121.963 899.731 124.039 896.616 126.844C887.446 135.102 884.309 148.893 883.128 161.82C882.165 172.352 882.234 183.453 886.573 192.914C888.515 197.147 891.338 201.189 891.474 205.923C891.586 209.78 889.887 213.833 891.317 217.36C892.783 220.975 897.03 222.558 898.339 226.245C899.457 229.395 898.041 232.91 898.177 236.285C898.41 242 903.254 246.508 908.378 247.649C913.502 248.791 918.795 247.303 923.758 245.503C927.185 244.262 930.736 242.736 933.005 239.666C934.846 237.174 935.656 233.893 937.611 231.508C940.868 227.536 946.346 227.04 950.553 224.342C956.547 220.499 959.379 212.298 958.879 204.718C958.379 197.139 955.065 190.111 951.138 183.841C947.212 177.572 942.516 171.873 939.007 165.314C933.14 154.343 932.124 133.191 915.328 131.113Z" fill="#8075D4"/>
<path d="M907.232 128.59C911.872 123.228 920.008 122.006 925.795 125.804C928.398 127.512 930.457 130.034 932.788 132.16C937.322 136.293 942.985 139.018 946.709 144.028C949.695 148.044 951.154 153.72 949.431 158.542C947.707 163.364 942.27 166.552 937.938 164.468C935.859 163.469 934.318 161.512 932.85 159.617C925.254 149.812 917.658 140.005 907.232 128.59Z" fill="#8075D4"/>
<path d="M842.999 218.199C837.512 215.411 831.393 213.333 825.221 215.125C824.253 220.792 825.227 224.656 828.019 229.88C832.428 231.973 837.602 234.735 842.184 233.147C843.744 232.606 845.244 231.731 846.29 230.855C848.938 228.641 848.486 220.986 842.999 218.199Z" fill="#F58556"/>
<path d="M833.648 214.785C828.38 214.093 823.004 214.384 817.824 215.645C816.59 215.945 815.32 216.326 814.364 217.23C813.799 217.763 813.354 218.644 813.683 219.376C813.894 219.846 814.376 220.111 814.853 220.171C815.329 220.23 815.807 220.118 816.275 220.015C821.797 218.787 827.505 218.57 833.092 219.373C833.49 218.101 833.615 216.727 833.648 214.785Z" fill="#F58556"/>
<path d="M829.269 217.971C823.992 218.575 818.809 220.164 814.014 222.65C812.872 223.242 811.711 223.923 810.961 225.037C810.519 225.695 810.264 226.661 810.733 227.295C811.033 227.703 811.559 227.844 812.034 227.787C812.51 227.731 812.954 227.504 813.39 227.288C818.525 224.751 824.046 223.153 829.657 222.58C829.788 221.242 829.632 219.872 829.269 217.971Z" fill="#F58556"/>
<path d="M831.526 221.079C826.249 221.683 821.066 223.272 816.271 225.759C815.128 226.35 813.967 227.03 813.218 228.145C812.776 228.803 812.52 229.769 812.99 230.404C813.29 230.811 813.816 230.952 814.291 230.896C814.767 230.838 815.211 230.612 815.646 230.397C820.782 227.859 826.303 226.262 831.914 225.688C832.044 224.35 831.888 222.981 831.526 221.079Z" fill="#F58556"/>
<path d="M833.738 223.89C829.065 225.084 824.579 227.15 820.532 229.974C819.568 230.645 818.597 231.4 818.039 232.492C817.711 233.136 817.581 234.035 818.067 234.547C818.379 234.876 818.864 234.938 819.286 234.827C819.707 234.717 820.082 234.46 820.451 234.212C824.797 231.3 829.588 229.185 834.563 227.977C834.54 226.761 834.259 225.551 833.738 223.89Z" fill="#F58556"/>
<path d="M841.542 217.392C838.913 216.249 836.48 214.633 833.94 213.268C831.51 211.96 828.915 210.865 826.297 210.537C826.081 210.509 825.846 210.599 825.732 210.802C825.25 211.667 825.483 212.926 826.124 213.706C826.844 214.584 827.923 214.987 828.968 215.279C830.013 215.57 831.102 215.797 832.009 216.435C832.865 217.039 833.489 217.963 834.292 218.649C836.57 220.595 840.261 220.105 841.542 217.392Z" fill="#F58556"/>
<path d="M899.49 131.456C894.185 130.993 889.572 135.406 886.44 140.11C879.848 150.011 876.807 162.12 872.311 173.336C867.814 184.553 860.994 195.74 850.449 199.857C847.824 200.882 845.052 201.428 842.472 202.582C839.892 203.736 837.419 205.649 836.371 208.475C834.887 212.477 836.618 216.961 838.322 220.857C840.825 226.581 844.165 233.022 849.896 234.009C853.084 234.558 856.272 233.21 859.213 231.754C872.75 225.051 885.2 215.309 894.293 202.455C903.387 189.601 908.964 173.515 908.578 157.266C908.35 147.635 905.716 137.49 899.49 131.456Z" fill="#8075D4"/>
<path d="M902.088 125.55C907.426 124.791 912.185 129.041 915.984 133.213C926.258 144.498 935.105 157.334 942.196 171.244" stroke="#6F65B8" stroke-miterlimit="10"/>
<path d="M885.818 212.616C896.797 199.69 903.381 182.394 904.033 164.764" stroke="#6F65B8" stroke-miterlimit="10"/>
</svg>
