<svg width="1442" height="3171" viewBox="0 0 1442 3171" fill="none" xmlns="http://www.w3.org/2000/svg">
<path d="M1159.61 1755.37C1153.74 1755.37 1148.97 1750.61 1148.97 1744.74C1148.97 1738.86 1153.74 1734.1 1159.61 1734.1C1165.49 1734.1 1170.25 1738.86 1170.25 1744.74C1170.25 1750.61 1165.49 1755.37 1159.61 1755.37Z" fill="#E6F6FF"/>
<path d="M888.326 2228.79C882.451 2228.79 877.688 2224.03 877.688 2218.15C877.688 2212.28 882.451 2207.52 888.326 2207.52C894.202 2207.52 898.965 2212.28 898.965 2218.15C898.965 2224.03 894.202 2228.79 888.326 2228.79Z" fill="#E6F6FF"/>
<path d="M313.84 1776.65C307.964 1776.65 303.201 1771.89 303.201 1766.01C303.201 1760.14 307.964 1755.37 313.84 1755.37C319.715 1755.37 324.479 1760.14 324.479 1766.01C324.479 1771.89 319.715 1776.65 313.84 1776.65Z" fill="#E6F6FF"/>
<path d="M345.756 2117.09C339.88 2117.09 335.117 2112.32 335.117 2106.45C335.117 2100.57 339.88 2095.81 345.756 2095.81C351.631 2095.81 356.395 2100.57 356.395 2106.45C356.395 2112.32 351.631 2117.09 345.756 2117.09Z" fill="#E6F6FF"/>
<path d="M1031.95 1010.67C1026.07 1010.67 1021.31 1005.91 1021.31 1000.03C1021.31 994.156 1026.07 989.393 1031.95 989.393C1037.82 989.393 1042.59 994.156 1042.59 1000.03C1042.59 1005.91 1037.82 1010.67 1031.95 1010.67Z" fill="#E6F6FF"/>
<path d="M952.158 1909.64C946.283 1909.64 941.52 1904.87 941.52 1899C941.52 1893.12 946.283 1888.36 952.158 1888.36C958.034 1888.36 962.797 1893.12 962.797 1899C962.797 1904.87 958.034 1909.64 952.158 1909.64Z" fill="#E6F6FF"/>
<path d="M984.074 1494.73C978.199 1494.73 973.436 1489.97 973.436 1484.09C973.436 1478.21 978.199 1473.45 984.074 1473.45C989.95 1473.45 994.713 1478.21 994.713 1484.09C994.713 1489.97 989.95 1494.73 984.074 1494.73Z" fill="#E6F6FF"/>
<path d="M712.789 2005.38C706.914 2005.38 702.15 2000.62 702.15 1994.74C702.15 1988.87 706.914 1984.1 712.789 1984.1C718.665 1984.1 723.428 1988.87 723.428 1994.74C723.428 2000.62 718.665 2005.38 712.789 2005.38Z" fill="#E6F6FF"/>
<path d="M154.261 1516.01C148.385 1516.01 143.622 1511.24 143.622 1505.37C143.622 1499.49 148.385 1494.73 154.261 1494.73C160.136 1494.73 164.899 1499.49 164.899 1505.37C164.899 1511.24 160.136 1516.01 154.261 1516.01Z" fill="#E6F6FF"/>
<path d="M170.219 1867.08C164.343 1867.08 159.58 1862.32 159.58 1856.44C159.58 1850.57 164.343 1845.8 170.219 1845.8C176.094 1845.8 180.857 1850.57 180.857 1856.44C180.857 1862.32 176.094 1867.08 170.219 1867.08Z" fill="#E6F6FF"/>
<path d="M824.494 765.982C818.619 765.982 813.856 761.219 813.856 755.343C813.856 749.467 818.619 744.704 824.494 744.704C830.37 744.704 835.133 749.467 835.133 755.343C835.133 761.219 830.37 765.982 824.494 765.982Z" fill="#E6F6FF"/>
<path d="M744.704 1633.03C738.829 1633.03 734.066 1628.27 734.066 1622.39C734.066 1616.52 738.829 1611.75 744.704 1611.75C750.58 1611.75 755.343 1616.52 755.343 1622.39C755.343 1628.27 750.58 1633.03 744.704 1633.03Z" fill="#E6F6FF"/>
<path d="M1255.36 2255.39C1249.48 2255.39 1244.72 2250.63 1244.72 2244.75C1244.72 2238.88 1249.48 2234.11 1255.36 2234.11C1261.23 2234.11 1266 2238.88 1266 2244.75C1266 2250.63 1261.23 2255.39 1255.36 2255.39Z" fill="#E6F6FF"/>
<path d="M1095.78 2457.53C1089.9 2457.53 1085.14 2452.76 1085.14 2446.89C1085.14 2441.01 1089.9 2436.25 1095.78 2436.25C1101.65 2436.25 1106.42 2441.01 1106.42 2446.89C1106.42 2452.76 1101.65 2457.53 1095.78 2457.53Z" fill="#E6F6FF"/>
<path d="M1335.15 904.284C1329.27 904.284 1324.51 899.521 1324.51 893.645C1324.51 887.77 1329.27 883.006 1335.15 883.006C1341.02 883.006 1345.79 887.77 1345.79 893.645C1345.79 899.521 1341.02 904.284 1335.15 904.284Z" fill="#E6F6FF"/>
<path d="M1430.9 101.067C1425.02 101.067 1420.26 96.3039 1420.26 90.4283C1420.26 84.5527 1425.02 79.7897 1430.9 79.7897C1436.77 79.7897 1441.54 84.5528 1441.54 90.4283C1441.54 96.3039 1436.77 101.067 1430.9 101.067Z" fill="#E6F6FF"/>
<path d="M968.116 223.411C962.241 223.411 957.478 218.648 957.478 212.773C957.478 206.897 962.241 202.134 968.116 202.134C973.992 202.134 978.755 206.897 978.755 212.773C978.755 218.648 973.992 223.411 968.116 223.411Z" fill="#E6F6FF"/>
<path d="M808.536 462.781C802.661 462.781 797.898 458.017 797.898 452.142C797.898 446.266 802.661 441.503 808.536 441.503C814.412 441.503 819.175 446.266 819.175 452.142C819.175 458.017 814.412 462.781 808.536 462.781Z" fill="#E6F6FF"/>
<path d="M585.125 936.2C579.249 936.2 574.486 931.437 574.486 925.562C574.486 919.686 579.249 914.923 585.125 914.923C591.001 914.923 595.764 919.686 595.764 925.562C595.764 931.437 591.001 936.2 585.125 936.2Z" fill="#E6F6FF"/>
<path d="M10.6387 484.058C4.76316 484.058 7.82615e-05 479.295 7.85184e-05 473.419C7.87752e-05 467.544 4.76316 462.781 10.6387 462.781C16.5143 462.781 21.2773 467.544 21.2773 473.419C21.2773 479.295 16.5143 484.058 10.6387 484.058Z" fill="#E6F6FF"/>
<path d="M26.5967 813.855C20.7212 813.855 15.9581 809.092 15.9581 803.217C15.9581 797.341 20.7212 792.578 26.5967 792.578C32.4723 792.578 37.2354 797.341 37.2354 803.217C37.2354 809.092 32.4723 813.855 26.5967 813.855Z" fill="#E6F6FF"/>
<path d="M680.873 53.1933C674.998 53.1933 670.234 48.4302 670.234 42.5546C670.234 36.6791 674.998 31.916 680.873 31.916C686.749 31.916 691.512 36.6791 691.512 42.5546C691.512 48.4302 686.749 53.1933 680.873 53.1933Z" fill="#E6F6FF"/>
<path d="M648.957 585.125C643.082 585.125 638.318 580.362 638.318 574.486C638.318 568.611 643.082 563.848 648.957 563.848C654.833 563.848 659.596 568.611 659.596 574.486C659.596 580.362 654.833 585.125 648.957 585.125Z" fill="#E6F6FF"/>
<path d="M409.588 526.612C403.712 526.612 398.949 521.849 398.949 515.974C398.949 510.098 403.712 505.335 409.588 505.335C415.463 505.335 420.227 510.098 420.227 515.974C420.227 521.849 415.463 526.612 409.588 526.612Z" fill="#E6F6FF"/>
<path d="M601.083 1111.74C595.207 1111.74 590.444 1106.97 590.444 1101.1C590.444 1095.22 595.207 1090.46 601.083 1090.46C606.959 1090.46 611.722 1095.22 611.722 1101.1C611.722 1106.97 606.959 1111.74 601.083 1111.74Z" fill="#E6F6FF"/>
<path d="M1383.02 1547.92C1377.15 1547.92 1372.38 1543.16 1372.38 1537.28C1372.38 1531.41 1377.15 1526.64 1383.02 1526.64C1388.9 1526.64 1393.66 1531.41 1393.66 1537.28C1393.66 1543.16 1388.9 1547.92 1383.02 1547.92Z" fill="#E6F6FF"/>
<path d="M489.377 2047.94C483.501 2047.94 478.738 2043.17 478.738 2037.3C478.738 2031.42 483.501 2026.66 489.377 2026.66C495.253 2026.66 500.016 2031.42 500.016 2037.3C500.016 2043.17 495.253 2047.94 489.377 2047.94Z" fill="#E6F6FF"/>
<path d="M441.504 1670.27C435.628 1670.27 430.865 1665.5 430.865 1659.63C430.865 1653.75 435.628 1648.99 441.504 1648.99C447.38 1648.99 452.143 1653.75 452.143 1659.63C452.143 1665.5 447.379 1670.27 441.504 1670.27Z" fill="#E6F6FF"/>
<path d="M569.167 2361.78C563.291 2361.78 558.528 2357.01 558.528 2351.14C558.528 2345.26 563.291 2340.5 569.167 2340.5C575.043 2340.5 579.806 2345.26 579.806 2351.14C579.806 2357.01 575.043 2361.78 569.167 2361.78Z" fill="#E6F6FF"/>
<path d="M457.462 2601.15C451.586 2601.15 446.823 2596.38 446.823 2590.51C446.823 2584.63 451.586 2579.87 457.462 2579.87C463.338 2579.87 468.101 2584.63 468.101 2590.51C468.101 2596.38 463.338 2601.15 457.462 2601.15Z" fill="#E6F6FF"/>
<path d="M664.915 984.074C659.04 984.074 654.276 979.311 654.276 973.435C654.276 967.56 659.04 962.797 664.915 962.797C670.791 962.797 675.554 967.56 675.554 973.435C675.554 979.311 670.791 984.074 664.915 984.074Z" fill="#E6F6FF"/>
<path d="M1015.99 122.344C1010.11 122.344 1005.35 117.581 1005.35 111.706C1005.35 105.83 1010.11 101.067 1015.99 101.067C1021.86 101.067 1026.63 105.83 1026.63 111.706C1026.63 117.581 1021.86 122.344 1015.99 122.344Z" fill="#E6F6FF"/>
<path d="M728.747 505.335C722.872 505.335 718.108 500.572 718.108 494.697C718.108 488.821 722.872 484.058 728.747 484.058C734.623 484.058 739.386 488.821 739.386 494.697C739.386 500.572 734.623 505.335 728.747 505.335Z" fill="#E6F6FF"/>
<path d="M202.135 143.622C196.259 143.622 191.496 138.859 191.496 132.983C191.496 127.108 196.259 122.345 202.135 122.345C208.01 122.345 212.773 127.108 212.773 132.983C212.773 138.859 208.01 143.622 202.135 143.622Z" fill="#E6F6FF"/>
<path d="M218.092 393.629C212.216 393.629 207.453 388.866 207.453 382.991C207.453 377.115 212.216 372.352 218.092 372.352C223.967 372.352 228.73 377.115 228.73 382.991C228.73 388.866 223.967 393.629 218.092 393.629Z" fill="#E6F6FF"/>
<path d="M840.452 21.2774C834.577 21.2774 829.814 16.5143 829.814 10.6388C829.814 4.7632 834.577 0.000121348 840.452 0.000121605C846.328 0.000121862 851.091 4.7632 851.091 10.6388C851.091 16.5143 846.328 21.2774 840.452 21.2774Z" fill="#E6F6FF"/>
<path d="M792.578 244.689C786.703 244.689 781.94 239.926 781.94 234.05C781.94 228.175 786.703 223.412 792.578 223.412C798.454 223.412 803.217 228.175 803.217 234.05C803.217 239.926 798.454 244.689 792.578 244.689Z" fill="#E6F6FF"/>
<path d="M425.546 276.605C419.67 276.605 414.907 271.842 414.907 265.966C414.907 260.091 419.67 255.328 425.546 255.328C431.421 255.328 436.185 260.091 436.185 265.966C436.185 271.842 431.421 276.605 425.546 276.605Z" fill="#E6F6FF"/>
<path d="M281.924 617.041C276.048 617.041 271.285 612.278 271.285 606.402C271.285 600.527 276.048 595.764 281.924 595.764C287.799 595.764 292.562 600.527 292.562 606.402C292.562 612.278 287.799 617.041 281.924 617.041Z" fill="#E6F6FF"/>
<path d="M74.4707 648.956C68.5952 648.956 63.8321 644.193 63.8321 638.318C63.8321 632.442 68.5952 627.679 74.4707 627.679C80.3463 627.679 85.1094 632.442 85.1094 638.318C85.1094 644.193 80.3463 648.956 74.4707 648.956Z" fill="#E6F6FF"/>
<path d="M186.177 1228.76C180.301 1228.76 175.538 1224 175.538 1218.12C175.538 1212.25 180.301 1207.48 186.177 1207.48C192.052 1207.48 196.815 1212.25 196.815 1218.12C196.815 1224 192.052 1228.76 186.177 1228.76Z" fill="#E6F6FF"/>
<path d="M696.831 1808.57C690.956 1808.57 686.192 1803.81 686.192 1797.93C686.192 1792.05 690.956 1787.29 696.831 1787.29C702.707 1787.29 707.47 1792.05 707.47 1797.93C707.47 1803.81 702.707 1808.57 696.831 1808.57Z" fill="#E6F6FF"/>
<path d="M234.05 2750.09C228.174 2750.09 223.411 2745.32 223.411 2739.45C223.411 2733.57 228.174 2728.81 234.05 2728.81C239.925 2728.81 244.688 2733.57 244.688 2739.45C244.688 2745.32 239.925 2750.09 234.05 2750.09Z" fill="#E6F6FF"/>
<path d="M122.345 2532C116.469 2532 111.706 2527.23 111.706 2521.36C111.706 2515.48 116.469 2510.72 122.345 2510.72C128.22 2510.72 132.983 2515.48 132.983 2521.36C132.983 2527.23 128.22 2532 122.345 2532Z" fill="#E6F6FF"/>
<path d="M250.008 2835.2C244.132 2835.2 239.369 2830.43 239.369 2824.56C239.369 2818.68 244.132 2813.92 250.008 2813.92C255.883 2813.92 260.646 2818.68 260.646 2824.56C260.646 2830.43 255.883 2835.2 250.008 2835.2Z" fill="#E6F6FF"/>
<path d="M138.303 3005.41C132.427 3005.41 127.664 3000.65 127.664 2994.78C127.664 2988.9 132.427 2984.14 138.303 2984.14C144.178 2984.14 148.941 2988.9 148.941 2994.78C148.941 3000.65 144.178 3005.41 138.303 3005.41Z" fill="#E6F6FF"/>
<path d="M265.966 1585.16C260.09 1585.16 255.327 1580.39 255.327 1574.52C255.327 1568.64 260.09 1563.88 265.966 1563.88C271.841 1563.88 276.604 1568.64 276.604 1574.52C276.604 1580.39 271.841 1585.16 265.966 1585.16Z" fill="#E6F6FF"/>
<path d="M473.42 420.226C467.544 420.226 462.781 415.463 462.781 409.587C462.781 403.712 467.544 398.949 473.42 398.949C479.296 398.949 484.059 403.712 484.059 409.587C484.059 415.463 479.296 420.226 473.42 420.226Z" fill="#E6F6FF"/>
<path d="M106.387 563.848C100.511 563.848 95.7481 559.084 95.7481 553.209C95.7481 547.333 100.511 542.57 106.387 542.57C112.262 542.57 117.025 547.333 117.025 553.209C117.025 559.084 112.262 563.848 106.387 563.848Z" fill="#E6F6FF"/>
<path d="M90.4287 1324.51C84.5532 1324.51 79.7901 1319.75 79.7901 1313.87C79.7901 1308 84.5532 1303.23 90.4288 1303.23C96.3043 1303.23 101.067 1308 101.067 1313.87C101.067 1319.75 96.3043 1324.51 90.4287 1324.51Z" fill="#E6F6FF"/>
<path d="M42.5547 1398.98C36.6792 1398.98 31.9161 1394.22 31.9161 1388.34C31.9161 1382.47 36.6792 1377.7 42.5547 1377.7C48.4303 1377.7 53.1934 1382.47 53.1934 1388.34C53.1934 1394.22 48.4303 1398.98 42.5547 1398.98Z" fill="#E6F6FF"/>
<path d="M58.5127 2079.85C52.6372 2079.85 47.8741 2075.09 47.8741 2069.21C47.8741 2063.34 52.6372 2058.58 58.5127 2058.58C64.3883 2058.58 69.1514 2063.34 69.1514 2069.21C69.1514 2075.09 64.3883 2079.85 58.5127 2079.85Z" fill="#E6F6FF"/>
<path d="M297.882 2686.25C292.006 2686.25 287.243 2681.49 287.243 2675.62C287.243 2669.74 292.006 2664.98 297.882 2664.98C303.757 2664.98 308.521 2669.74 308.521 2675.62C308.521 2681.49 303.757 2686.25 297.882 2686.25Z" fill="#E6F6FF"/>
<path d="M1143.65 2946.9C1137.78 2946.9 1133.01 2942.14 1133.01 2936.26C1133.01 2930.39 1137.78 2925.62 1143.65 2925.62C1149.53 2925.62 1154.29 2930.39 1154.29 2936.26C1154.29 2942.14 1149.53 2946.9 1143.65 2946.9Z" fill="#E6F6FF"/>
<path d="M920.242 2861.79C914.367 2861.79 909.604 2857.03 909.604 2851.15C909.604 2845.28 914.367 2840.51 920.242 2840.51C926.118 2840.51 930.881 2845.28 930.881 2851.15C930.881 2857.03 926.118 2861.79 920.242 2861.79Z" fill="#E6F6FF"/>
<path d="M1223.44 3037.33C1217.57 3037.33 1212.8 3032.57 1212.8 3026.69C1212.8 3020.82 1217.57 3016.05 1223.44 3016.05C1229.32 3016.05 1234.08 3020.82 1234.08 3026.69C1234.08 3032.57 1229.32 3037.33 1223.44 3037.33Z" fill="#E6F6FF"/>
<path d="M1079.82 3058.61C1073.95 3058.61 1069.18 3053.84 1069.18 3047.97C1069.18 3042.09 1073.95 3037.33 1079.82 3037.33C1085.7 3037.33 1090.46 3042.09 1090.46 3047.97C1090.46 3053.84 1085.7 3058.61 1079.82 3058.61Z" fill="#E6F6FF"/>
<path d="M1319.19 2308.58C1313.31 2308.58 1308.55 2303.82 1308.55 2297.94C1308.55 2292.07 1313.31 2287.31 1319.19 2287.31C1325.07 2287.31 1329.83 2292.07 1329.83 2297.94C1329.83 2303.82 1325.07 2308.58 1319.19 2308.58Z" fill="#E6F6FF"/>
<path d="M1414.94 851.09C1409.06 851.09 1404.3 846.327 1404.3 840.452C1404.3 834.576 1409.06 829.813 1414.94 829.813C1420.81 829.813 1425.58 834.576 1425.58 840.452C1425.58 846.327 1420.81 851.09 1414.94 851.09Z" fill="#E6F6FF"/>
<path d="M1207.49 1297.91C1201.61 1297.91 1196.85 1293.15 1196.85 1287.27C1196.85 1281.4 1201.61 1276.64 1207.49 1276.64C1213.36 1276.64 1218.12 1281.4 1218.12 1287.27C1218.12 1293.15 1213.36 1297.91 1207.49 1297.91Z" fill="#E6F6FF"/>
<path d="M617.041 877.687C611.165 877.687 606.402 872.924 606.402 867.048C606.402 861.173 611.166 856.41 617.041 856.41C622.917 856.41 627.68 861.173 627.68 867.048C627.68 872.924 622.917 877.687 617.041 877.687Z" fill="#E6F6FF"/>
<path d="M632.999 1202.17C627.124 1202.17 622.36 1197.4 622.36 1191.53C622.36 1185.65 627.124 1180.89 632.999 1180.89C638.875 1180.89 643.638 1185.65 643.638 1191.53C643.638 1197.4 638.875 1202.17 632.999 1202.17Z" fill="#E6F6FF"/>
<path d="M1303.23 164.899C1297.36 164.899 1292.59 160.136 1292.59 154.26C1292.59 148.385 1297.36 143.621 1303.23 143.621C1309.11 143.621 1313.87 148.385 1313.87 154.26C1313.87 160.136 1309.11 164.899 1303.23 164.899Z" fill="#E6F6FF"/>
<path d="M1271.32 962.797C1265.44 962.797 1260.68 958.034 1260.68 952.158C1260.68 946.283 1265.44 941.52 1271.32 941.52C1277.19 941.52 1281.96 946.283 1281.96 952.158C1281.96 958.034 1277.19 962.797 1271.32 962.797Z" fill="#E6F6FF"/>
<path d="M904.284 1159.61C898.409 1159.61 893.646 1154.85 893.646 1148.97C893.646 1143.1 898.409 1138.33 904.284 1138.33C910.16 1138.33 914.923 1143.1 914.923 1148.97C914.923 1154.85 910.16 1159.61 904.284 1159.61Z" fill="#E6F6FF"/>
<path d="M776.62 1888.36C770.745 1888.36 765.982 1883.59 765.982 1877.72C765.982 1871.84 770.745 1867.08 776.62 1867.08C782.496 1867.08 787.259 1871.84 787.259 1877.72C787.259 1883.59 782.496 1888.36 776.62 1888.36Z" fill="#E6F6FF"/>
<path d="M361.714 1973.47C355.838 1973.47 351.075 1968.7 351.075 1962.83C351.075 1956.95 355.838 1952.19 361.714 1952.19C367.589 1952.19 372.353 1956.95 372.353 1962.83C372.353 1968.7 367.589 1973.47 361.714 1973.47Z" fill="#E6F6FF"/>
<path d="M537.251 2553.27C531.375 2553.27 526.612 2548.51 526.612 2542.63C526.612 2536.76 531.375 2532 537.251 2532C543.127 2532 547.89 2536.76 547.89 2542.63C547.89 2548.51 543.127 2553.27 537.251 2553.27Z" fill="#E6F6FF"/>
<path d="M1367.06 2888.39C1361.19 2888.39 1356.43 2883.63 1356.43 2877.75C1356.43 2871.87 1361.19 2867.11 1367.06 2867.11C1372.94 2867.11 1377.7 2871.87 1377.7 2877.75C1377.7 2883.63 1372.94 2888.39 1367.06 2888.39Z" fill="#E6F6FF"/>
<path d="M1127.7 3127.76C1121.82 3127.76 1117.06 3122.99 1117.06 3117.12C1117.06 3111.24 1121.82 3106.48 1127.7 3106.48C1133.57 3106.48 1138.33 3111.24 1138.33 3117.12C1138.33 3122.99 1133.57 3127.76 1127.7 3127.76Z" fill="#E6F6FF"/>
<path d="M521.293 2914.99C515.417 2914.99 510.654 2910.22 510.654 2904.35C510.654 2898.47 515.417 2893.71 521.293 2893.71C527.169 2893.71 531.932 2898.47 531.932 2904.35C531.932 2910.22 527.169 2914.99 521.293 2914.99Z" fill="#E6F6FF"/>
<path d="M553.209 3095.84C547.333 3095.84 542.57 3091.08 542.57 3085.2C542.57 3079.33 547.333 3074.57 553.209 3074.57C559.085 3074.57 563.848 3079.33 563.848 3085.2C563.848 3091.08 559.085 3095.84 553.209 3095.84Z" fill="#E6F6FF"/>
<path d="M1239.4 2335.18C1233.53 2335.18 1228.76 2330.42 1228.76 2324.54C1228.76 2318.67 1233.53 2313.9 1239.4 2313.9C1245.28 2313.9 1250.04 2318.67 1250.04 2324.54C1250.04 2330.42 1245.28 2335.18 1239.4 2335.18Z" fill="#E6F6FF"/>
<path d="M1175.57 2978.82C1169.69 2978.82 1164.93 2974.05 1164.93 2968.18C1164.93 2962.3 1169.69 2957.54 1175.57 2957.54C1181.44 2957.54 1186.21 2962.3 1186.21 2968.18C1186.21 2974.05 1181.44 2978.82 1175.57 2978.82Z" fill="#E6F6FF"/>
<path d="M1111.74 2138.37C1105.86 2138.37 1101.1 2133.6 1101.1 2127.73C1101.1 2121.85 1105.86 2117.09 1111.74 2117.09C1117.61 2117.09 1122.38 2121.85 1122.38 2127.73C1122.38 2133.6 1117.61 2138.37 1111.74 2138.37Z" fill="#E6F6FF"/>
<path d="M872.368 1707.5C866.493 1707.5 861.73 1702.74 861.73 1696.86C861.73 1690.99 866.493 1686.22 872.368 1686.22C878.244 1686.22 883.007 1690.99 883.007 1696.86C883.007 1702.74 878.244 1707.5 872.368 1707.5Z" fill="#E6F6FF"/>
<path d="M1191.53 2393.69C1185.65 2393.69 1180.89 2388.93 1180.89 2383.05C1180.89 2377.18 1185.65 2372.41 1191.53 2372.41C1197.4 2372.41 1202.17 2377.18 1202.17 2383.05C1202.17 2388.93 1197.4 2393.69 1191.53 2393.69Z" fill="#E6F6FF"/>
<path d="M936.2 2728.81C930.325 2728.81 925.562 2724.05 925.562 2718.17C925.562 2712.3 930.325 2707.53 936.2 2707.53C942.076 2707.53 946.839 2712.3 946.839 2718.17C946.839 2724.05 942.076 2728.81 936.2 2728.81Z" fill="#E6F6FF"/>
<path d="M377.672 2414.97C371.796 2414.97 367.033 2410.21 367.033 2404.33C367.033 2398.46 371.796 2393.69 377.672 2393.69C383.547 2393.69 388.311 2398.46 388.311 2404.33C388.311 2410.21 383.547 2414.97 377.672 2414.97Z" fill="#E6F6FF"/>
<path d="M393.63 2654.34C387.754 2654.34 382.991 2649.58 382.991 2643.7C382.991 2637.83 387.754 2633.06 393.63 2633.06C399.505 2633.06 404.269 2637.83 404.269 2643.7C404.269 2649.58 399.505 2654.34 393.63 2654.34Z" fill="#E6F6FF"/>
<path d="M1063.86 1606.43C1057.99 1606.43 1053.22 1601.67 1053.22 1595.8C1053.22 1589.92 1057.99 1585.16 1063.86 1585.16C1069.74 1585.16 1074.5 1589.92 1074.5 1595.8C1074.5 1601.67 1069.74 1606.43 1063.86 1606.43Z" fill="#E6F6FF"/>
<path d="M1000.03 2489.44C994.156 2489.44 989.393 2484.68 989.393 2478.8C989.393 2472.93 994.156 2468.16 1000.03 2468.16C1005.91 2468.16 1010.67 2472.93 1010.67 2478.8C1010.67 2484.68 1005.91 2489.44 1000.03 2489.44Z" fill="#E6F6FF"/>
<path d="M1047.91 2627.74C1042.03 2627.74 1037.27 2622.98 1037.27 2617.1C1037.27 2611.23 1042.03 2606.47 1047.91 2606.47C1053.78 2606.47 1058.54 2611.23 1058.54 2617.1C1058.54 2622.98 1053.78 2627.74 1047.91 2627.74Z" fill="#E6F6FF"/>
<path d="M1287.27 1037.27C1281.4 1037.27 1276.64 1032.5 1276.64 1026.63C1276.64 1020.75 1281.4 1015.99 1287.27 1015.99C1293.15 1015.99 1297.91 1020.75 1297.91 1026.63C1297.91 1032.5 1293.15 1037.27 1287.27 1037.27Z" fill="#E6F6FF"/>
<path d="M1398.98 191.495C1393.1 191.495 1388.34 186.732 1388.34 180.857C1388.34 174.981 1393.1 170.218 1398.98 170.218C1404.86 170.218 1409.62 174.981 1409.62 180.857C1409.62 186.732 1404.86 191.495 1398.98 191.495Z" fill="#E6F6FF"/>
<path d="M856.41 303.201C850.535 303.201 845.772 298.438 845.772 292.562C845.772 286.687 850.535 281.924 856.41 281.924C862.286 281.924 867.049 286.687 867.049 292.562C867.049 298.438 862.286 303.201 856.41 303.201Z" fill="#E6F6FF"/>
<path d="M760.662 696.831C754.787 696.831 750.024 692.068 750.024 686.192C750.024 680.317 754.787 675.554 760.662 675.554C766.538 675.554 771.301 680.317 771.301 686.192C771.301 692.068 766.538 696.831 760.662 696.831Z" fill="#E6F6FF"/>
<path d="M329.798 744.705C323.922 744.705 319.159 739.942 319.159 734.066C319.159 728.19 323.922 723.427 329.798 723.427C335.673 723.427 340.437 728.19 340.437 734.066C340.437 739.942 335.673 744.705 329.798 744.705Z" fill="#E6F6FF"/>
<path d="M505.335 1250.04C499.459 1250.04 494.696 1245.28 494.696 1239.4C494.696 1233.53 499.459 1228.76 505.335 1228.76C511.211 1228.76 515.974 1233.53 515.974 1239.4C515.974 1245.28 511.211 1250.04 505.335 1250.04Z" fill="#E6F6FF"/>
<path d="M1351.11 1936.23C1345.23 1936.23 1340.47 1931.47 1340.47 1925.59C1340.47 1919.72 1345.23 1914.95 1351.11 1914.95C1356.98 1914.95 1361.75 1919.72 1361.75 1925.59C1361.75 1931.47 1356.98 1936.23 1351.11 1936.23Z" fill="#E6F6FF"/>
<path d="M1103.76 2143.68C1102.29 2143.68 1101.1 2142.49 1101.1 2141.03C1101.1 2139.56 1102.29 2138.37 1103.76 2138.37C1105.23 2138.37 1106.42 2139.56 1106.42 2141.03C1106.42 2142.49 1105.23 2143.68 1103.76 2143.68Z" fill="#E6F6FF"/>
<path d="M832.473 1723.46C831.005 1723.46 829.814 1722.27 829.814 1720.8C829.814 1719.33 831.005 1718.14 832.473 1718.14C833.942 1718.14 835.133 1719.33 835.133 1720.8C835.133 1722.27 833.942 1723.46 832.473 1723.46Z" fill="#E6F6FF"/>
<path d="M1103.76 2425.61C1102.29 2425.61 1101.1 2424.42 1101.1 2422.95C1101.1 2421.48 1102.29 2420.29 1103.76 2420.29C1105.23 2420.29 1106.42 2421.48 1106.42 2422.95C1106.42 2424.42 1105.23 2425.61 1103.76 2425.61Z" fill="#E6F6FF"/>
<path d="M1008.01 2659.66C1006.54 2659.66 1005.35 2658.47 1005.35 2657C1005.35 2655.53 1006.54 2654.34 1008.01 2654.34C1009.48 2654.34 1010.67 2655.53 1010.67 2657C1010.67 2658.47 1009.48 2659.66 1008.01 2659.66Z" fill="#E6F6FF"/>
<path d="M1279.3 1058.54C1277.83 1058.54 1276.64 1057.35 1276.64 1055.88C1276.64 1054.42 1277.83 1053.23 1279.3 1053.23C1280.76 1053.23 1281.96 1054.42 1281.96 1055.88C1281.96 1057.35 1280.76 1058.54 1279.3 1058.54Z" fill="#E6F6FF"/>
<path d="M1391 202.134C1389.53 202.134 1388.34 200.943 1388.34 199.474C1388.34 198.006 1389.53 196.815 1391 196.815C1392.47 196.815 1393.66 198.006 1393.66 199.474C1393.66 200.943 1392.47 202.134 1391 202.134Z" fill="#E6F6FF"/>
<path d="M832.473 308.52C831.005 308.52 829.814 307.329 829.814 305.861C829.814 304.392 831.005 303.201 832.473 303.201C833.942 303.201 835.133 304.392 835.133 305.861C835.133 307.329 833.942 308.52 832.473 308.52Z" fill="#E6F6FF"/>
<path d="M720.768 718.108C719.299 718.108 718.109 716.917 718.109 715.448C718.109 713.98 719.299 712.789 720.768 712.789C722.237 712.789 723.428 713.98 723.428 715.448C723.428 716.917 722.237 718.108 720.768 718.108Z" fill="#E6F6FF"/>
<path d="M273.945 771.3C272.476 771.3 271.286 770.109 271.286 768.641C271.286 767.172 272.476 765.981 273.945 765.981C275.414 765.981 276.604 767.172 276.604 768.641C276.604 770.109 275.414 771.3 273.945 771.3Z" fill="#E6F6FF"/>
<path d="M465.441 1271.32C463.972 1271.32 462.782 1270.13 462.782 1268.66C462.782 1267.19 463.972 1266 465.441 1266C466.91 1266 468.101 1267.19 468.101 1268.66C468.101 1270.13 466.91 1271.32 465.441 1271.32Z" fill="#E6F6FF"/>
<path d="M1343.13 1946.87C1341.66 1946.87 1340.47 1945.68 1340.47 1944.21C1340.47 1942.74 1341.66 1941.55 1343.13 1941.55C1344.6 1941.55 1345.79 1942.74 1345.79 1944.21C1345.79 1945.68 1344.6 1946.87 1343.13 1946.87Z" fill="#E6F6FF"/>
<path d="M1008.01 2186.24C1006.54 2186.24 1005.35 2185.05 1005.35 2183.58C1005.35 2182.11 1006.54 2180.92 1008.01 2180.92C1009.48 2180.92 1010.67 2182.11 1010.67 2183.58C1010.67 2185.05 1009.48 2186.24 1008.01 2186.24Z" fill="#E6F6FF"/>
<path d="M720.768 2085.17C719.299 2085.17 718.109 2083.98 718.109 2082.51C718.109 2081.04 719.299 2079.85 720.768 2079.85C722.237 2079.85 723.428 2081.04 723.428 2082.51C723.428 2083.98 722.237 2085.17 720.768 2085.17Z" fill="#E6F6FF"/>
<path d="M1039.93 2500.08C1038.46 2500.08 1037.27 2498.89 1037.27 2497.42C1037.27 2495.95 1038.46 2494.76 1039.93 2494.76C1041.4 2494.76 1042.59 2495.95 1042.59 2497.42C1042.59 2498.89 1041.4 2500.08 1039.93 2500.08Z" fill="#E6F6FF"/>
<path d="M832.473 2755.41C831.005 2755.41 829.814 2754.21 829.814 2752.75C829.814 2751.28 831.005 2750.09 832.473 2750.09C833.942 2750.09 835.133 2751.28 835.133 2752.75C835.133 2754.21 833.942 2755.41 832.473 2755.41Z" fill="#E6F6FF"/>
<path d="M1279.3 1180.89C1277.83 1180.89 1276.64 1179.7 1276.64 1178.23C1276.64 1176.76 1277.83 1175.57 1279.3 1175.57C1280.76 1175.57 1281.96 1176.76 1281.96 1178.23C1281.96 1179.7 1280.76 1180.89 1279.3 1180.89Z" fill="#E6F6FF"/>
<path d="M1391 250.007C1389.53 250.007 1388.34 248.817 1388.34 247.348C1388.34 245.879 1389.53 244.688 1391 244.688C1392.47 244.688 1393.66 245.879 1393.66 247.348C1393.66 248.817 1392.47 250.007 1391 250.007Z" fill="#E6F6FF"/>
<path d="M720.768 335.117C719.299 335.117 718.109 333.926 718.109 332.457C718.109 330.989 719.299 329.798 720.768 329.798C722.237 329.798 723.428 330.989 723.428 332.457C723.428 333.926 722.237 335.117 720.768 335.117Z" fill="#E6F6FF"/>
<path d="M1231.42 664.915C1229.95 664.915 1228.76 663.724 1228.76 662.255C1228.76 660.786 1229.95 659.596 1231.42 659.596C1232.89 659.596 1234.08 660.786 1234.08 662.255C1234.08 663.724 1232.89 664.915 1231.42 664.915Z" fill="#E6F6FF"/>
<path d="M1151.63 313.839C1150.16 313.839 1148.97 312.649 1148.97 311.18C1148.97 309.711 1150.16 308.52 1151.63 308.52C1153.1 308.52 1154.29 309.711 1154.29 311.18C1154.29 312.649 1153.1 313.839 1151.63 313.839Z" fill="#E6F6FF"/>
<path d="M1167.59 1042.59C1166.12 1042.59 1164.93 1041.4 1164.93 1039.93C1164.93 1038.46 1166.12 1037.27 1167.59 1037.27C1169.06 1037.27 1170.25 1038.46 1170.25 1039.93C1170.25 1041.4 1169.06 1042.59 1167.59 1042.59Z" fill="#E6F6FF"/>
<path d="M1327.17 1558.56C1325.7 1558.56 1324.51 1557.37 1324.51 1555.9C1324.51 1554.43 1325.7 1553.24 1327.17 1553.24C1328.64 1553.24 1329.83 1554.43 1329.83 1555.9C1329.83 1557.37 1328.64 1558.56 1327.17 1558.56Z" fill="#E6F6FF"/>
<path d="M1359.09 2574.55C1357.62 2574.55 1356.43 2573.36 1356.43 2571.89C1356.43 2570.42 1357.62 2569.23 1359.09 2569.23C1360.55 2569.23 1361.75 2570.42 1361.75 2571.89C1361.75 2573.36 1360.55 2574.55 1359.09 2574.55Z" fill="#E6F6FF"/>
<path d="M720.768 1345.79C719.299 1345.79 718.109 1344.6 718.109 1343.13C718.109 1341.66 719.299 1340.47 720.768 1340.47C722.237 1340.47 723.428 1341.66 723.428 1343.13C723.428 1344.6 722.237 1345.79 720.768 1345.79Z" fill="#E6F6FF"/>
<path d="M720.768 69.1509C719.299 69.1509 718.109 67.9602 718.109 66.4914C718.109 65.0226 719.299 63.8319 720.768 63.8319C722.237 63.8319 723.428 65.0226 723.428 66.4914C723.428 67.9602 722.237 69.1509 720.768 69.1509Z" fill="#E6F6FF"/>
<path d="M688.852 787.258C687.383 787.258 686.193 786.068 686.193 784.599C686.193 783.13 687.383 781.939 688.852 781.939C690.321 781.939 691.512 783.13 691.512 784.599C691.512 786.068 690.321 787.258 688.852 787.258Z" fill="#E6F6FF"/>
<path d="M273.945 819.175C272.476 819.175 271.286 817.984 271.286 816.515C271.286 815.047 272.476 813.856 273.945 813.856C275.414 813.856 276.604 815.047 276.604 816.515C276.604 817.984 275.414 819.175 273.945 819.175Z" fill="#E6F6FF"/>
<path d="M449.483 1409.62C448.014 1409.62 446.824 1408.43 446.824 1406.96C446.824 1405.49 448.014 1404.3 449.483 1404.3C450.952 1404.3 452.143 1405.49 452.143 1406.96C452.143 1408.43 450.952 1409.62 449.483 1409.62Z" fill="#E6F6FF"/>
<path d="M1279.3 2154.32C1277.83 2154.32 1276.64 2153.13 1276.64 2151.66C1276.64 2150.19 1277.83 2149 1279.3 2149C1280.76 2149 1281.96 2150.19 1281.96 2151.66C1281.96 2153.13 1280.76 2154.32 1279.3 2154.32Z" fill="#E6F6FF"/>
<path d="M1103.76 1643.67C1102.29 1643.67 1101.1 1642.48 1101.1 1641.01C1101.1 1639.54 1102.29 1638.35 1103.76 1638.35C1105.23 1638.35 1106.42 1639.54 1106.42 1641.01C1106.42 1642.48 1105.23 1643.67 1103.76 1643.67Z" fill="#E6F6FF"/>
<path d="M1391 1473.45C1389.53 1473.45 1388.34 1472.26 1388.34 1470.79C1388.34 1469.32 1389.53 1468.13 1391 1468.13C1392.47 1468.13 1393.66 1469.32 1393.66 1470.79C1393.66 1472.26 1392.47 1473.45 1391 1473.45Z" fill="#E6F6FF"/>
<path d="M928.221 2468.16C926.753 2468.16 925.562 2466.97 925.562 2465.5C925.562 2464.03 926.753 2462.84 928.221 2462.84C929.69 2462.84 930.881 2464.03 930.881 2465.5C930.881 2466.97 929.69 2468.16 928.221 2468.16Z" fill="#E6F6FF"/>
<path d="M768.641 2920.31C767.173 2920.31 765.982 2919.11 765.982 2917.65C765.982 2916.18 767.173 2914.99 768.641 2914.99C770.11 2914.99 771.301 2916.18 771.301 2917.65C771.301 2919.11 770.11 2920.31 768.641 2920.31Z" fill="#E6F6FF"/>
<path d="M1008.01 3069.25C1006.54 3069.25 1005.35 3068.06 1005.35 3066.59C1005.35 3065.12 1006.54 3063.93 1008.01 3063.93C1009.48 3063.93 1010.67 3065.12 1010.67 3066.59C1010.67 3068.06 1009.48 3069.25 1008.01 3069.25Z" fill="#E6F6FF"/>
<path d="M1438.88 2579.87C1437.41 2579.87 1436.22 2578.68 1436.22 2577.21C1436.22 2575.74 1437.41 2574.55 1438.88 2574.55C1440.34 2574.55 1441.54 2575.74 1441.54 2577.21C1441.54 2578.68 1440.34 2579.87 1438.88 2579.87Z" fill="#E6F6FF"/>
<path d="M656.936 2766.04C655.467 2766.04 654.277 2764.85 654.277 2763.39C654.277 2761.92 655.467 2760.73 656.936 2760.73C658.405 2760.73 659.596 2761.92 659.596 2763.39C659.596 2764.85 658.405 2766.04 656.936 2766.04Z" fill="#E6F6FF"/>
<path d="M433.525 1047.91C432.056 1047.91 430.866 1046.71 430.866 1045.25C430.866 1043.78 432.056 1042.59 433.525 1042.59C434.994 1042.59 436.185 1043.78 436.185 1045.25C436.185 1046.71 434.994 1047.91 433.525 1047.91Z" fill="#E6F6FF"/>
<path d="M449.483 590.444C448.014 590.444 446.824 589.254 446.824 587.785C446.824 586.316 448.014 585.125 449.483 585.125C450.952 585.125 452.143 586.316 452.143 587.785C452.143 589.254 450.952 590.444 449.483 590.444Z" fill="#E6F6FF"/>
<path d="M800.557 1303.23C799.089 1303.23 797.898 1302.04 797.898 1300.57C797.898 1299.1 799.089 1297.91 800.557 1297.91C802.026 1297.91 803.217 1299.1 803.217 1300.57C803.217 1302.04 802.026 1303.23 800.557 1303.23Z" fill="#E6F6FF"/>
<path d="M1231.42 1728.78C1229.95 1728.78 1228.76 1727.59 1228.76 1726.12C1228.76 1724.65 1229.95 1723.46 1231.42 1723.46C1232.89 1723.46 1234.08 1724.65 1234.08 1726.12C1234.08 1727.59 1232.89 1728.78 1231.42 1728.78Z" fill="#E6F6FF"/>
<path d="M1039.93 1941.55C1038.46 1941.55 1037.27 1940.36 1037.27 1938.89C1037.27 1937.42 1038.46 1936.23 1039.93 1936.23C1041.4 1936.23 1042.59 1937.42 1042.59 1938.89C1042.59 1940.36 1041.4 1941.55 1039.93 1941.55Z" fill="#E6F6FF"/>
<path d="M433.525 2159.64C432.056 2159.64 430.866 2158.45 430.866 2156.98C430.866 2155.51 432.056 2154.32 433.525 2154.32C434.994 2154.32 436.185 2155.51 436.185 2156.98C436.185 2158.45 434.994 2159.64 433.525 2159.64Z" fill="#E6F6FF"/>
<path d="M577.146 2340.5C575.677 2340.5 574.487 2339.31 574.487 2337.84C574.487 2336.37 575.677 2335.18 577.146 2335.18C578.615 2335.18 579.806 2336.37 579.806 2337.84C579.806 2339.31 578.615 2340.5 577.146 2340.5Z" fill="#E6F6FF"/>
<path d="M832.473 2276.67C831.005 2276.67 829.814 2275.48 829.814 2274.01C829.814 2272.54 831.005 2271.35 832.473 2271.35C833.942 2271.35 835.133 2272.54 835.133 2274.01C835.133 2275.48 833.942 2276.67 832.473 2276.67Z" fill="#E6F6FF"/>
<path d="M688.852 2175.6C687.383 2175.6 686.193 2174.41 686.193 2172.94C686.193 2171.47 687.383 2170.28 688.852 2170.28C690.321 2170.28 691.512 2171.47 691.512 2172.94C691.512 2174.41 690.321 2175.6 688.852 2175.6Z" fill="#E6F6FF"/>
<path d="M832.473 2696.89C831.005 2696.89 829.814 2695.7 829.814 2694.23C829.814 2692.76 831.005 2691.57 832.473 2691.57C833.942 2691.57 835.133 2692.76 835.133 2694.23C835.133 2695.7 833.942 2696.89 832.473 2696.89Z" fill="#E6F6FF"/>
<path d="M720.768 2797.96C719.299 2797.96 718.109 2796.77 718.109 2795.3C718.109 2793.83 719.299 2792.64 720.768 2792.64C722.237 2792.64 723.428 2793.83 723.428 2795.3C723.428 2796.77 722.237 2797.96 720.768 2797.96Z" fill="#E6F6FF"/>
<path d="M481.399 1074.5C479.93 1074.5 478.74 1073.31 478.74 1071.84C478.74 1070.37 479.93 1069.18 481.399 1069.18C482.868 1069.18 484.059 1070.37 484.059 1071.84C484.059 1073.31 482.868 1074.5 481.399 1074.5Z" fill="#E6F6FF"/>
<path d="M497.357 627.679C495.888 627.679 494.698 626.489 494.698 625.02C494.698 623.551 495.888 622.36 497.357 622.36C498.826 622.36 500.017 623.551 500.017 625.02C500.017 626.489 498.826 627.679 497.357 627.679Z" fill="#E6F6FF"/>
<path d="M880.347 1351.11C878.879 1351.11 877.688 1349.92 877.688 1348.45C877.688 1346.98 878.879 1345.79 880.347 1345.79C881.816 1345.79 883.007 1346.98 883.007 1348.45C883.007 1349.92 881.816 1351.11 880.347 1351.11Z" fill="#E6F6FF"/>
<path d="M1327.17 1781.97C1325.7 1781.97 1324.51 1780.78 1324.51 1779.31C1324.51 1777.84 1325.7 1776.65 1327.17 1776.65C1328.64 1776.65 1329.83 1777.84 1329.83 1779.31C1329.83 1780.78 1328.64 1781.97 1327.17 1781.97Z" fill="#E6F6FF"/>
<path d="M1103.76 1978.79C1102.29 1978.79 1101.1 1977.59 1101.1 1976.13C1101.1 1974.66 1102.29 1973.47 1103.76 1973.47C1105.23 1973.47 1106.42 1974.66 1106.42 1976.13C1106.42 1977.59 1105.23 1978.79 1103.76 1978.79Z" fill="#E6F6FF"/>
<path d="M481.399 2191.56C479.93 2191.56 478.74 2190.37 478.74 2188.9C478.74 2187.43 479.93 2186.24 481.399 2186.24C482.868 2186.24 484.059 2187.43 484.059 2188.9C484.059 2190.37 482.868 2191.56 481.399 2191.56Z" fill="#E6F6FF"/>
<path d="M1183.55 1340.47C1182.08 1340.47 1180.89 1339.28 1180.89 1337.81C1180.89 1336.34 1182.08 1335.15 1183.55 1335.15C1185.02 1335.15 1186.21 1336.34 1186.21 1337.81C1186.21 1339.28 1185.02 1340.47 1183.55 1340.47Z" fill="#E6F6FF"/>
<path d="M1008.01 824.494C1006.54 824.494 1005.35 823.303 1005.35 821.834C1005.35 820.365 1006.54 819.175 1008.01 819.175C1009.48 819.175 1010.67 820.365 1010.67 821.834C1010.67 823.303 1009.48 824.494 1008.01 824.494Z" fill="#E6F6FF"/>
<path d="M1327.17 712.788C1325.7 712.788 1324.51 711.597 1324.51 710.129C1324.51 708.66 1325.7 707.469 1327.17 707.469C1328.64 707.469 1329.83 708.66 1329.83 710.129C1329.83 711.597 1328.64 712.788 1327.17 712.788Z" fill="#E6F6FF"/>
<path d="M832.473 1680.9C831.005 1680.9 829.814 1679.71 829.814 1678.24C829.814 1676.78 831.005 1675.59 832.473 1675.59C833.942 1675.59 835.133 1676.78 835.133 1678.24C835.133 1679.71 833.942 1680.9 832.473 1680.9Z" fill="#E6F6FF"/>
<path d="M688.852 2313.9C687.383 2313.9 686.193 2312.71 686.193 2311.24C686.193 2309.78 687.383 2308.58 688.852 2308.58C690.321 2308.58 691.512 2309.78 691.512 2311.24C691.512 2312.71 690.321 2313.9 688.852 2313.9Z" fill="#E6F6FF"/>
<path d="M880.347 2558.59C878.879 2558.59 877.688 2557.4 877.688 2555.93C877.688 2554.46 878.879 2553.27 880.347 2553.27C881.816 2553.27 883.007 2554.46 883.007 2555.93C883.007 2557.4 881.816 2558.59 880.347 2558.59Z" fill="#E6F6FF"/>
<path d="M1375.04 1845.8C1373.57 1845.8 1372.38 1844.61 1372.38 1843.14C1372.38 1841.67 1373.57 1840.48 1375.04 1840.48C1376.51 1840.48 1377.7 1841.67 1377.7 1843.14C1377.7 1844.61 1376.51 1845.8 1375.04 1845.8Z" fill="#E6F6FF"/>
<path d="M577.146 2095.81C575.677 2095.81 574.487 2094.62 574.487 2093.15C574.487 2091.68 575.677 2090.49 577.146 2090.49C578.615 2090.49 579.806 2091.68 579.806 2093.15C579.806 2094.62 578.615 2095.81 577.146 2095.81Z" fill="#E6F6FF"/>
<path d="M481.399 1521.32C479.93 1521.32 478.74 1520.13 478.74 1518.66C478.74 1517.2 479.93 1516.01 481.399 1516.01C482.868 1516.01 484.059 1517.2 484.059 1518.66C484.059 1520.13 482.868 1521.32 481.399 1521.32Z" fill="#E6F6FF"/>
<path d="M1343.13 324.478C1341.66 324.478 1340.47 323.288 1340.47 321.819C1340.47 320.35 1341.66 319.159 1343.13 319.159C1344.6 319.159 1345.79 320.35 1345.79 321.819C1345.79 323.288 1344.6 324.478 1343.13 324.478Z" fill="#E6F6FF"/>
<path d="M688.852 351.074C687.383 351.074 686.193 349.884 686.193 348.415C686.193 346.946 687.383 345.755 688.852 345.755C690.321 345.755 691.512 346.946 691.512 348.415C691.512 349.884 690.321 351.074 688.852 351.074Z" fill="#E6F6FF"/>
<path d="M497.357 63.8316C495.888 63.8316 494.698 62.641 494.698 61.1722C494.698 59.7034 495.888 58.5127 497.357 58.5127C498.826 58.5127 500.017 59.7034 500.017 61.1722C500.017 62.641 498.826 63.8316 497.357 63.8316Z" fill="#E6F6FF"/>
<path d="M832.473 58.5124C831.005 58.5124 829.814 57.3217 829.814 55.853C829.814 54.3842 831.005 53.1935 832.473 53.1935C833.942 53.1935 835.133 54.3842 835.133 55.853C835.133 57.3217 833.942 58.5124 832.473 58.5124Z" fill="#E6F6FF"/>
<path d="M401.609 675.553C400.14 675.553 398.95 674.362 398.95 672.893C398.95 671.425 400.14 670.234 401.609 670.234C403.078 670.234 404.269 671.425 404.269 672.893C404.269 674.362 403.078 675.553 401.609 675.553Z" fill="#E6F6FF"/>
<path d="M257.987 1335.15C256.518 1335.15 255.328 1333.96 255.328 1332.49C255.328 1331.02 256.518 1329.83 257.987 1329.83C259.456 1329.83 260.646 1331.02 260.646 1332.49C260.646 1333.96 259.456 1335.15 257.987 1335.15Z" fill="#E6F6FF"/>
<path d="M449.483 1563.88C448.014 1563.88 446.824 1562.69 446.824 1561.22C446.824 1559.75 448.014 1558.56 449.483 1558.56C450.952 1558.56 452.143 1559.75 452.143 1561.22C452.143 1562.69 450.952 1563.88 449.483 1563.88Z" fill="#E6F6FF"/>
<path d="M896.305 856.41C894.837 856.41 893.646 855.219 893.646 853.751C893.646 852.282 894.837 851.091 896.305 851.091C897.774 851.091 898.965 852.282 898.965 853.751C898.965 855.219 897.774 856.41 896.305 856.41Z" fill="#E6F6FF"/>
<path d="M98.4079 1122.38C96.9391 1122.38 95.7484 1121.19 95.7484 1119.72C95.7484 1118.25 96.9391 1117.06 98.4079 1117.06C99.8767 1117.06 101.067 1118.25 101.067 1119.72C101.067 1121.19 99.8767 1122.38 98.4079 1122.38Z" fill="#E6F6FF"/>
<path d="M18.6179 537.251C17.1491 537.251 15.9584 536.06 15.9584 534.591C15.9584 533.122 17.1491 531.932 18.6179 531.932C20.0867 531.932 21.2773 533.122 21.2773 534.591C21.2773 536.06 20.0867 537.251 18.6179 537.251Z" fill="#E6F6FF"/>
<path d="M1183.55 707.468C1182.08 707.468 1180.89 706.278 1180.89 704.809C1180.89 703.34 1182.08 702.149 1183.55 702.149C1185.02 702.149 1186.21 703.34 1186.21 704.809C1186.21 706.278 1185.02 707.468 1183.55 707.468Z" fill="#E6F6FF"/>
<path d="M1103.76 340.436C1102.29 340.436 1101.1 339.245 1101.1 337.777C1101.1 336.308 1102.29 335.117 1103.76 335.117C1105.23 335.117 1106.42 336.308 1106.42 337.777C1106.42 339.245 1105.23 340.436 1103.76 340.436Z" fill="#E6F6FF"/>
<path d="M1103.76 1063.86C1102.29 1063.86 1101.1 1062.67 1101.1 1061.2C1101.1 1059.73 1102.29 1058.54 1103.76 1058.54C1105.23 1058.54 1106.42 1059.73 1106.42 1061.2C1106.42 1062.67 1105.23 1063.86 1103.76 1063.86Z" fill="#E6F6FF"/>
<path d="M1279.3 1611.75C1277.83 1611.75 1276.64 1610.56 1276.64 1609.09C1276.64 1607.62 1277.83 1606.43 1279.3 1606.43C1280.76 1606.43 1281.96 1607.62 1281.96 1609.09C1281.96 1610.56 1280.76 1611.75 1279.3 1611.75Z" fill="#E6F6FF"/>
<path d="M1103.76 1164.93C1102.29 1164.93 1101.1 1163.74 1101.1 1162.27C1101.1 1160.8 1102.29 1159.61 1103.76 1159.61C1105.23 1159.61 1106.42 1160.8 1106.42 1162.27C1106.42 1163.74 1105.23 1164.93 1103.76 1164.93Z" fill="#E6F6FF"/>
<path d="M1391 1015.99C1389.53 1015.99 1388.34 1014.8 1388.34 1013.33C1388.34 1011.86 1389.53 1010.67 1391 1010.67C1392.47 1010.67 1393.66 1011.86 1393.66 1013.33C1393.66 1014.8 1392.47 1015.99 1391 1015.99Z" fill="#E6F6FF"/>
<path d="M928.221 1984.11C926.753 1984.11 925.562 1982.91 925.562 1981.45C925.562 1979.98 926.753 1978.79 928.221 1978.79C929.69 1978.79 930.881 1979.98 930.881 1981.45C930.881 1982.91 929.69 1984.11 928.221 1984.11Z" fill="#E6F6FF"/>
<path d="M768.641 2563.91C767.173 2563.91 765.982 2562.72 765.982 2561.25C765.982 2559.78 767.173 2558.59 768.641 2558.59C770.11 2558.59 771.301 2559.78 771.301 2561.25C771.301 2562.72 770.11 2563.91 768.641 2563.91Z" fill="#E6F6FF"/>
<path d="M1008.01 2771.36C1006.54 2771.36 1005.35 2770.17 1005.35 2768.7C1005.35 2767.24 1006.54 2766.04 1008.01 2766.04C1009.48 2766.04 1010.67 2767.24 1010.67 2768.7C1010.67 2770.17 1009.48 2771.36 1008.01 2771.36Z" fill="#E6F6FF"/>
<path d="M1438.88 2149C1437.41 2149 1436.22 2147.81 1436.22 2146.34C1436.22 2144.87 1437.41 2143.68 1438.88 2143.68C1440.34 2143.68 1441.54 2144.87 1441.54 2146.34C1441.54 2147.81 1440.34 2149 1438.88 2149Z" fill="#E6F6FF"/>
<path d="M656.936 2372.42C655.467 2372.42 654.277 2371.22 654.277 2369.76C654.277 2368.29 655.467 2367.1 656.936 2367.1C658.405 2367.1 659.596 2368.29 659.596 2369.76C659.596 2371.22 658.405 2372.42 656.936 2372.42Z" fill="#E6F6FF"/>
<path d="M577.146 1819.21C575.677 1819.21 574.487 1818.01 574.487 1816.55C574.487 1815.08 575.677 1813.89 577.146 1813.89C578.615 1813.89 579.806 1815.08 579.806 1816.55C579.806 1818.01 578.615 1819.21 577.146 1819.21Z" fill="#E6F6FF"/>
<path d="M1327.17 2606.46C1325.7 2606.46 1324.51 2605.27 1324.51 2603.81C1324.51 2602.34 1325.7 2601.15 1327.17 2601.15C1328.64 2601.15 1329.83 2602.34 1329.83 2603.81C1329.83 2605.27 1328.64 2606.46 1327.17 2606.46Z" fill="#E6F6FF"/>
<path d="M688.852 1372.38C687.383 1372.38 686.193 1371.19 686.193 1369.72C686.193 1368.26 687.383 1367.06 688.852 1367.06C690.321 1367.06 691.512 1368.26 691.512 1369.72C691.512 1371.19 690.321 1372.38 688.852 1372.38Z" fill="#E6F6FF"/>
<path d="M688.852 74.4701C687.383 74.4701 686.193 73.2794 686.193 71.8106C686.193 70.3418 687.383 69.1511 688.852 69.1511C690.321 69.1511 691.512 70.3418 691.512 71.8106C691.512 73.2794 690.321 74.4701 688.852 74.4701Z" fill="#E6F6FF"/>
<path d="M656.936 883.007C655.467 883.007 654.277 881.816 654.277 880.347C654.277 878.879 655.467 877.688 656.936 877.688C658.405 877.688 659.596 878.879 659.596 880.347C659.596 881.816 658.405 883.007 656.936 883.007Z" fill="#E6F6FF"/>
<path d="M257.987 914.922C256.518 914.922 255.328 913.731 255.328 912.263C255.328 910.794 256.518 909.603 257.987 909.603C259.456 909.603 260.646 910.794 260.646 912.263C260.646 913.731 259.456 914.922 257.987 914.922Z" fill="#E6F6FF"/>
<path d="M417.567 1441.53C416.098 1441.53 414.908 1440.34 414.908 1438.87C414.908 1437.41 416.098 1436.22 417.567 1436.22C419.036 1436.22 420.227 1437.41 420.227 1438.87C420.227 1440.34 419.036 1441.53 417.567 1441.53Z" fill="#E6F6FF"/>
<path d="M1279.3 2202.2C1277.83 2202.2 1276.64 2201.01 1276.64 2199.54C1276.64 2198.07 1277.83 2196.88 1279.3 2196.88C1280.76 2196.88 1281.96 2198.07 1281.96 2199.54C1281.96 2201.01 1280.76 2202.2 1279.3 2202.2Z" fill="#E6F6FF"/>
<path d="M720.768 2436.25C719.299 2436.25 718.109 2435.06 718.109 2433.59C718.109 2432.12 719.299 2430.93 720.768 2430.93C722.237 2430.93 723.428 2432.12 723.428 2433.59C723.428 2435.06 722.237 2436.25 720.768 2436.25Z" fill="#E6F6FF"/>
<path d="M656.936 2266.03C655.467 2266.03 654.277 2264.84 654.277 2263.37C654.277 2261.9 655.467 2260.71 656.936 2260.71C658.405 2260.71 659.596 2261.9 659.596 2263.37C659.596 2264.84 658.405 2266.03 656.936 2266.03Z" fill="#E6F6FF"/>
<path d="M752.683 2787.32C751.215 2787.32 750.024 2786.13 750.024 2784.66C750.024 2783.19 751.215 2782 752.683 2782C754.152 2782 755.343 2783.19 755.343 2784.66C755.343 2786.13 754.152 2787.32 752.683 2787.32Z" fill="#E6F6FF"/>
<path d="M497.357 1053.22C495.888 1053.22 494.698 1052.03 494.698 1050.56C494.698 1049.1 495.888 1047.91 497.357 1047.91C498.826 1047.91 500.017 1049.1 500.017 1050.56C500.017 1052.03 498.826 1053.22 497.357 1053.22Z" fill="#E6F6FF"/>
<path d="M513.314 622.359C511.845 622.359 510.655 621.169 510.655 619.7C510.655 618.231 511.845 617.041 513.314 617.041C514.783 617.041 515.974 618.231 515.974 619.7C515.974 621.169 514.783 622.359 513.314 622.359Z" fill="#E6F6FF"/>
<path d="M912.263 1329.83C910.795 1329.83 909.604 1328.64 909.604 1327.17C909.604 1325.7 910.795 1324.51 912.263 1324.51C913.732 1324.51 914.923 1325.7 914.923 1327.17C914.923 1328.64 913.732 1329.83 912.263 1329.83Z" fill="#E6F6FF"/>
<path d="M1343.13 1734.1C1341.66 1734.1 1340.47 1732.91 1340.47 1731.44C1340.47 1729.97 1341.66 1728.78 1343.13 1728.78C1344.6 1728.78 1345.79 1729.97 1345.79 1731.44C1345.79 1732.91 1344.6 1734.1 1343.13 1734.1Z" fill="#E6F6FF"/>
<path d="M1119.72 1952.19C1118.25 1952.19 1117.06 1951 1117.06 1949.53C1117.06 1948.06 1118.25 1946.87 1119.72 1946.87C1121.19 1946.87 1122.38 1948.06 1122.38 1949.53C1122.38 1951 1121.19 1952.19 1119.72 1952.19Z" fill="#E6F6FF"/>
<path d="M481.399 2170.28C479.93 2170.28 478.74 2169.09 478.74 2167.62C478.74 2166.15 479.93 2164.96 481.399 2164.96C482.868 2164.96 484.059 2166.15 484.059 2167.62C484.059 2169.09 482.868 2170.28 481.399 2170.28Z" fill="#E6F6FF"/>
<path d="M609.062 2420.29C607.593 2420.29 606.403 2419.1 606.403 2417.63C606.403 2416.16 607.593 2414.97 609.062 2414.97C610.531 2414.97 611.722 2416.16 611.722 2417.63C611.722 2419.1 610.531 2420.29 609.062 2420.29Z" fill="#E6F6FF"/>
<path d="M912.263 2281.99C910.795 2281.99 909.604 2280.8 909.604 2279.33C909.604 2277.86 910.795 2276.67 912.263 2276.67C913.732 2276.67 914.923 2277.86 914.923 2279.33C914.923 2280.8 913.732 2281.99 912.263 2281.99Z" fill="#E6F6FF"/>
<path d="M465.44 3016.05C463.971 3016.05 462.781 3014.86 462.781 3013.39C462.781 3011.92 463.971 3010.73 465.44 3010.73C466.909 3010.73 468.1 3011.92 468.1 3013.39C468.1 3014.86 466.909 3016.05 465.44 3016.05Z" fill="#E6F6FF"/>
<path d="M289.903 3149.04C288.434 3149.04 287.244 3147.85 287.244 3146.38C287.244 3144.91 288.434 3143.72 289.903 3143.72C291.372 3143.72 292.562 3144.91 292.562 3146.38C292.562 3147.85 291.372 3149.04 289.903 3149.04Z" fill="#E6F6FF"/>
<path d="M481.398 3164.99C479.929 3164.99 478.739 3163.8 478.739 3162.33C478.739 3160.86 479.929 3159.67 481.398 3159.67C482.867 3159.67 484.058 3160.86 484.058 3162.33C484.058 3163.8 482.867 3164.99 481.398 3164.99Z" fill="#E6F6FF"/>
<path d="M1008.01 3074.56C1006.54 3074.56 1005.35 3073.37 1005.35 3071.9C1005.35 3070.44 1006.54 3069.25 1008.01 3069.25C1009.48 3069.25 1010.67 3070.44 1010.67 3071.9C1010.67 3073.37 1009.48 3074.56 1008.01 3074.56Z" fill="#E6F6FF"/>
<path d="M194.156 3133.08C192.687 3133.08 191.496 3131.89 191.496 3130.42C191.496 3128.95 192.687 3127.76 194.156 3127.76C195.625 3127.76 196.815 3128.95 196.815 3130.42C196.815 3131.89 195.625 3133.08 194.156 3133.08Z" fill="#E6F6FF"/>
<path d="M82.4499 2893.71C80.9811 2893.71 79.7904 2892.52 79.7904 2891.05C79.7904 2889.58 80.9811 2888.39 82.4499 2888.39C83.9187 2888.39 85.1094 2889.58 85.1094 2891.05C85.1094 2892.52 83.9187 2893.71 82.4499 2893.71Z" fill="#E6F6FF"/>
<path d="M688.852 2808.6C687.383 2808.6 686.193 2807.41 686.193 2805.94C686.193 2804.47 687.383 2803.28 688.852 2803.28C690.321 2803.28 691.512 2804.47 691.512 2805.94C691.512 2807.41 690.321 2808.6 688.852 2808.6Z" fill="#E6F6FF"/>
<path d="M465.441 1127.69C463.972 1127.69 462.782 1126.5 462.782 1125.04C462.782 1123.57 463.972 1122.38 465.441 1122.38C466.91 1122.38 468.101 1123.57 468.101 1125.04C468.101 1126.5 466.91 1127.69 465.441 1127.69Z" fill="#E6F6FF"/>
<path d="M465.441 670.233C463.972 670.233 462.782 669.042 462.782 667.574C462.782 666.105 463.972 664.914 465.441 664.914C466.91 664.914 468.101 666.105 468.101 667.574C468.101 669.042 466.91 670.233 465.441 670.233Z" fill="#E6F6FF"/>
<path d="M832.473 1377.7C831.005 1377.7 829.814 1376.51 829.814 1375.04C829.814 1373.58 831.005 1372.38 832.473 1372.38C833.942 1372.38 835.133 1373.58 835.133 1375.04C835.133 1376.51 833.942 1377.7 832.473 1377.7Z" fill="#E6F6FF"/>
<path d="M1279.3 1824.53C1277.83 1824.53 1276.64 1823.33 1276.64 1821.87C1276.64 1820.4 1277.83 1819.21 1279.3 1819.21C1280.76 1819.21 1281.96 1820.4 1281.96 1821.87C1281.96 1823.33 1280.76 1824.53 1279.3 1824.53Z" fill="#E6F6FF"/>
<path d="M1087.8 2021.34C1086.33 2021.34 1085.14 2020.15 1085.14 2018.68C1085.14 2017.21 1086.33 2016.02 1087.8 2016.02C1089.27 2016.02 1090.46 2017.21 1090.46 2018.68C1090.46 2020.15 1089.27 2021.34 1087.8 2021.34Z" fill="#E6F6FF"/>
<path d="M449.483 2234.11C448.014 2234.11 446.824 2232.92 446.824 2231.45C446.824 2229.98 448.014 2228.79 449.483 2228.79C450.952 2228.79 452.143 2229.98 452.143 2231.45C452.143 2232.92 450.952 2234.11 449.483 2234.11Z" fill="#E6F6FF"/>
<path d="M1103.76 1430.9C1102.29 1430.9 1101.1 1429.7 1101.1 1428.24C1101.1 1426.77 1102.29 1425.58 1103.76 1425.58C1105.23 1425.58 1106.42 1426.77 1106.42 1428.24C1106.42 1429.7 1105.23 1430.9 1103.76 1430.9Z" fill="#E6F6FF"/>
<path d="M1343.13 345.755C1341.66 345.755 1340.47 344.565 1340.47 343.096C1340.47 341.627 1341.66 340.436 1343.13 340.436C1344.6 340.436 1345.79 341.627 1345.79 343.096C1345.79 344.565 1344.6 345.755 1343.13 345.755Z" fill="#E6F6FF"/>
<path d="M656.936 367.033C655.467 367.033 654.277 365.842 654.277 364.373C654.277 362.904 655.467 361.714 656.936 361.714C658.405 361.714 659.596 362.904 659.596 364.373C659.596 365.842 658.405 367.033 656.936 367.033Z" fill="#E6F6FF"/>
<path d="M1135.67 723.426C1134.21 723.426 1133.02 722.236 1133.02 720.767C1133.02 719.298 1134.21 718.108 1135.67 718.108C1137.14 718.108 1138.33 719.298 1138.33 720.767C1138.33 722.236 1137.14 723.426 1135.67 723.426Z" fill="#E6F6FF"/>
<path d="M960.137 281.923C958.669 281.923 957.478 280.733 957.478 279.264C957.478 277.795 958.669 276.604 960.137 276.604C961.606 276.604 962.797 277.795 962.797 279.264C962.797 280.733 961.606 281.923 960.137 281.923Z" fill="#E6F6FF"/>
<path d="M1279.3 196.815C1277.83 196.815 1276.64 195.624 1276.64 194.155C1276.64 192.686 1277.83 191.496 1279.3 191.496C1280.76 191.496 1281.96 192.686 1281.96 194.155C1281.96 195.624 1280.76 196.815 1279.3 196.815Z" fill="#E6F6FF"/>
<path d="M800.557 1117.06C799.089 1117.06 797.898 1115.87 797.898 1114.4C797.898 1112.93 799.089 1111.74 800.557 1111.74C802.026 1111.74 803.217 1112.93 803.217 1114.4C803.217 1115.87 802.026 1117.06 800.557 1117.06Z" fill="#E6F6FF"/>
<path d="M656.936 1712.82C655.467 1712.82 654.277 1711.63 654.277 1710.16C654.277 1708.69 655.467 1707.5 656.936 1707.5C658.405 1707.5 659.596 1708.69 659.596 1710.16C659.596 1711.63 658.405 1712.82 656.936 1712.82Z" fill="#E6F6FF"/>
<path d="M832.473 2026.66C831.005 2026.66 829.814 2025.47 829.814 2024C829.814 2022.53 831.005 2021.34 832.473 2021.34C833.942 2021.34 835.133 2022.53 835.133 2024C835.133 2025.47 833.942 2026.66 832.473 2026.66Z" fill="#E6F6FF"/>
<path d="M1343.13 1255.36C1341.66 1255.36 1340.47 1254.17 1340.47 1252.7C1340.47 1251.23 1341.66 1250.04 1343.13 1250.04C1344.6 1250.04 1345.79 1251.23 1345.79 1252.7C1345.79 1254.17 1344.6 1255.36 1343.13 1255.36Z" fill="#E6F6FF"/>
<path d="M513.314 1452.17C511.845 1452.17 510.655 1450.98 510.655 1449.51C510.655 1448.05 511.845 1446.85 513.314 1446.85C514.783 1446.85 515.974 1448.05 515.974 1449.51C515.974 1450.98 514.783 1452.17 513.314 1452.17Z" fill="#E6F6FF"/>
<path d="M449.483 941.519C448.014 941.519 446.824 940.328 446.824 938.859C446.824 937.391 448.014 936.2 449.483 936.2C450.952 936.2 452.143 937.391 452.143 938.859C452.143 940.328 450.952 941.519 449.483 941.519Z" fill="#E6F6FF"/>
<path d="M1055.88 356.394C1054.42 356.394 1053.22 355.203 1053.22 353.734C1053.22 352.265 1054.42 351.075 1055.88 351.075C1057.35 351.075 1058.54 352.265 1058.54 353.734C1058.54 355.203 1057.35 356.394 1055.88 356.394Z" fill="#E6F6FF"/>
<path d="M1087.8 1079.82C1086.33 1079.82 1085.14 1078.63 1085.14 1077.16C1085.14 1075.69 1086.33 1074.5 1087.8 1074.5C1089.27 1074.5 1090.46 1075.69 1090.46 1077.16C1090.46 1078.63 1089.27 1079.82 1087.8 1079.82Z" fill="#E6F6FF"/>
<path d="M1231.42 1648.99C1229.95 1648.99 1228.76 1647.8 1228.76 1646.33C1228.76 1644.86 1229.95 1643.67 1231.42 1643.67C1232.89 1643.67 1234.08 1644.86 1234.08 1646.33C1234.08 1647.8 1232.89 1648.99 1231.42 1648.99Z" fill="#E6F6FF"/>
<path d="M1279.3 2633.06C1277.83 2633.06 1276.64 2631.87 1276.64 2630.4C1276.64 2628.93 1277.83 2627.74 1279.3 2627.74C1280.76 2627.74 1281.96 2628.93 1281.96 2630.4C1281.96 2631.87 1280.76 2633.06 1279.3 2633.06Z" fill="#E6F6FF"/>
<path d="M1103.76 2196.88C1102.29 2196.88 1101.1 2195.69 1101.1 2194.22C1101.1 2192.75 1102.29 2191.56 1103.76 2191.56C1105.23 2191.56 1106.42 2192.75 1106.42 2194.22C1106.42 2195.69 1105.23 2196.88 1103.76 2196.88Z" fill="#E6F6FF"/>
<path d="M1391 2090.49C1389.53 2090.49 1388.34 2089.3 1388.34 2087.83C1388.34 2086.36 1389.53 2085.17 1391 2085.17C1392.47 2085.17 1393.66 2086.36 1393.66 2087.83C1393.66 2089.3 1392.47 2090.49 1391 2090.49Z" fill="#E6F6FF"/>
<path d="M928.221 2840.52C926.753 2840.52 925.562 2839.32 925.562 2837.86C925.562 2836.39 926.753 2835.2 928.221 2835.2C929.69 2835.2 930.881 2836.39 930.881 2837.86C930.881 2839.32 929.69 2840.52 928.221 2840.52Z" fill="#E6F6FF"/>
<path d="M768.641 3138.4C767.173 3138.4 765.982 3137.21 765.982 3135.74C765.982 3134.27 767.173 3133.08 768.641 3133.08C770.11 3133.08 771.301 3134.27 771.301 3135.74C771.301 3137.21 770.11 3138.4 768.641 3138.4Z" fill="#E6F6FF"/>
<path d="M1008.01 3154.35C1006.54 3154.35 1005.35 3153.16 1005.35 3151.69C1005.35 3150.23 1006.54 3149.04 1008.01 3149.04C1009.48 3149.04 1010.67 3150.23 1010.67 3151.69C1010.67 3153.16 1009.48 3154.35 1008.01 3154.35Z" fill="#E6F6FF"/>
<path d="M1438.88 2984.14C1437.41 2984.14 1436.22 2982.95 1436.22 2981.48C1436.22 2980.01 1437.41 2978.82 1438.88 2978.82C1440.34 2978.82 1441.54 2980.01 1441.54 2981.48C1441.54 2982.95 1440.34 2984.14 1438.88 2984.14Z" fill="#E6F6FF"/>
<path d="M656.936 3101.16C655.467 3101.16 654.277 3099.97 654.277 3098.5C654.277 3097.03 655.467 3095.84 656.936 3095.84C658.405 3095.84 659.596 3097.03 659.596 3098.5C659.596 3099.97 658.405 3101.16 656.936 3101.16Z" fill="#E6F6FF"/>
<path d="M577.146 2782C575.677 2782 574.487 2780.81 574.487 2779.34C574.487 2777.87 575.677 2776.68 577.146 2776.68C578.615 2776.68 579.806 2777.87 579.806 2779.34C579.806 2780.81 578.615 2782 577.146 2782Z" fill="#E6F6FF"/>
<path d="M656.936 1414.94C655.467 1414.94 654.277 1413.75 654.277 1412.28C654.277 1410.81 655.467 1409.62 656.936 1409.62C658.405 1409.62 659.596 1410.81 659.596 1412.28C659.596 1413.75 658.405 1414.94 656.936 1414.94Z" fill="#E6F6FF"/>
<path d="M656.936 79.7893C655.467 79.7893 654.277 78.5986 654.277 77.1298C654.277 75.661 655.467 74.4703 656.936 74.4703C658.405 74.4703 659.596 75.661 659.596 77.1298C659.596 78.5986 658.405 79.7893 656.936 79.7893Z" fill="#E6F6FF"/>
<path d="M656.936 989.392C655.467 989.392 654.277 988.202 654.277 986.733C654.277 985.264 655.467 984.073 656.936 984.073C658.405 984.073 659.596 985.264 659.596 986.733C659.596 988.202 658.405 989.392 656.936 989.392Z" fill="#E6F6FF"/>
<path d="M257.987 1069.18C256.518 1069.18 255.328 1067.99 255.328 1066.52C255.328 1065.05 256.518 1063.86 257.987 1063.86C259.456 1063.86 260.646 1065.05 260.646 1066.52C260.646 1067.99 259.456 1069.18 257.987 1069.18Z" fill="#E6F6FF"/>
<path d="M273.945 1468.13C272.476 1468.13 271.286 1466.94 271.286 1465.47C271.286 1464 272.476 1462.81 273.945 1462.81C275.414 1462.81 276.604 1464 276.604 1465.47C276.604 1466.94 275.414 1468.13 273.945 1468.13Z" fill="#E6F6FF"/>
<path d="M1183.55 2287.31C1182.08 2287.31 1180.89 2286.12 1180.89 2284.65C1180.89 2283.18 1182.08 2281.99 1183.55 2281.99C1185.02 2281.99 1186.21 2283.18 1186.21 2284.65C1186.21 2286.12 1185.02 2287.31 1183.55 2287.31Z" fill="#E6F6FF"/>
<path d="M688.852 2569.23C687.383 2569.23 686.193 2568.04 686.193 2566.57C686.193 2565.1 687.383 2563.91 688.852 2563.91C690.321 2563.91 691.512 2565.1 691.512 2566.57C691.512 2568.04 690.321 2569.23 688.852 2569.23Z" fill="#E6F6FF"/>
<path d="M656.936 2430.93C655.467 2430.93 654.277 2429.74 654.277 2428.27C654.277 2426.8 655.467 2425.61 656.936 2425.61C658.405 2425.61 659.596 2426.8 659.596 2428.27C659.596 2429.74 658.405 2430.93 656.936 2430.93Z" fill="#E6F6FF"/>
<path d="M720.767 2803.28C719.298 2803.28 718.108 2802.09 718.108 2800.62C718.108 2799.15 719.298 2797.96 720.767 2797.96C722.236 2797.96 723.427 2799.15 723.427 2800.62C723.427 2802.09 722.236 2803.28 720.767 2803.28Z" fill="#E6F6FF"/>
<path d="M481.399 1085.14C479.93 1085.14 478.74 1083.95 478.74 1082.48C478.74 1081.01 479.93 1079.82 481.399 1079.82C482.868 1079.82 484.059 1081.01 484.059 1082.48C484.059 1083.95 482.868 1085.14 481.399 1085.14Z" fill="#E6F6FF"/>
<path d="M481.399 659.595C479.93 659.595 478.74 658.404 478.74 656.935C478.74 655.466 479.93 654.276 481.399 654.276C482.868 654.276 484.059 655.466 484.059 656.935C484.059 658.404 482.868 659.595 481.399 659.595Z" fill="#E6F6FF"/>
<path d="M864.389 1361.75C862.921 1361.75 861.73 1360.55 861.73 1359.09C861.73 1357.62 862.921 1356.43 864.389 1356.43C865.858 1356.43 867.049 1357.62 867.049 1359.09C867.049 1360.55 865.858 1361.75 864.389 1361.75Z" fill="#E6F6FF"/>
<path d="M1295.25 1813.89C1293.78 1813.89 1292.59 1812.7 1292.59 1811.23C1292.59 1809.76 1293.78 1808.57 1295.25 1808.57C1296.72 1808.57 1297.91 1809.76 1297.91 1811.23C1297.91 1812.7 1296.72 1813.89 1295.25 1813.89Z" fill="#E6F6FF"/>
<path d="M1103.76 2010.7C1102.29 2010.7 1101.1 2009.51 1101.1 2008.04C1101.1 2006.57 1102.29 2005.38 1103.76 2005.38C1105.23 2005.38 1106.42 2006.57 1106.42 2008.04C1106.42 2009.51 1105.23 2010.7 1103.76 2010.7Z" fill="#E6F6FF"/>
<path d="M465.441 2207.52C463.972 2207.52 462.782 2206.33 462.782 2204.86C462.782 2203.39 463.972 2202.2 465.441 2202.2C466.91 2202.2 468.101 2203.39 468.101 2204.86C468.101 2206.33 466.91 2207.52 465.441 2207.52Z" fill="#E6F6FF"/>
<path d="M656.936 2867.11C655.467 2867.11 654.277 2865.92 654.277 2864.45C654.277 2862.98 655.467 2861.79 656.936 2861.79C658.405 2861.79 659.596 2862.98 659.596 2864.45C659.596 2865.92 658.405 2867.11 656.936 2867.11Z" fill="#E6F6FF"/>
<path d="M1008.01 1457.49C1006.54 1457.49 1005.35 1456.3 1005.35 1454.83C1005.35 1453.36 1006.54 1452.17 1008.01 1452.17C1009.48 1452.17 1010.67 1453.36 1010.67 1454.83C1010.67 1456.3 1009.48 1457.49 1008.01 1457.49Z" fill="#E6F6FF"/>
<path d="M1279.3 361.713C1277.83 361.713 1276.64 360.523 1276.64 359.054C1276.64 357.585 1277.83 356.395 1279.3 356.395C1280.76 356.395 1281.96 357.585 1281.96 359.054C1281.96 360.523 1280.76 361.713 1279.3 361.713Z" fill="#E6F6FF"/>
<path d="M625.02 430.865C623.551 430.865 622.361 429.674 622.361 428.205C622.361 426.736 623.551 425.546 625.02 425.546C626.489 425.546 627.68 426.736 627.68 428.205C627.68 429.674 626.489 430.865 625.02 430.865Z" fill="#E6F6FF"/>
<path d="M1103.76 792.578C1102.29 792.578 1101.1 791.388 1101.1 789.919C1101.1 788.45 1102.29 787.259 1103.76 787.259C1105.23 787.259 1106.42 788.45 1106.42 789.919C1106.42 791.388 1105.23 792.578 1103.76 792.578Z" fill="#E6F6FF"/>
<path d="M1023.97 425.545C1022.5 425.545 1021.31 424.355 1021.31 422.886C1021.31 421.417 1022.5 420.226 1023.97 420.226C1025.44 420.226 1026.63 421.417 1026.63 422.886C1026.63 424.355 1025.44 425.545 1023.97 425.545Z" fill="#E6F6FF"/>
<path d="M1039.93 1170.25C1038.46 1170.25 1037.27 1169.06 1037.27 1167.59C1037.27 1166.12 1038.46 1164.93 1039.93 1164.93C1041.4 1164.93 1042.59 1166.12 1042.59 1167.59C1042.59 1169.06 1041.4 1170.25 1039.93 1170.25Z" fill="#E6F6FF"/>
<path d="M1183.55 1718.14C1182.08 1718.14 1180.89 1716.95 1180.89 1715.48C1180.89 1714.01 1182.08 1712.82 1183.55 1712.82C1185.02 1712.82 1186.21 1714.01 1186.21 1715.48C1186.21 1716.95 1185.02 1718.14 1183.55 1718.14Z" fill="#E6F6FF"/>
<path d="M1263.34 2691.57C1261.87 2691.57 1260.68 2690.38 1260.68 2688.91C1260.68 2687.45 1261.87 2686.26 1263.34 2686.26C1264.81 2686.26 1266 2687.45 1266 2688.91C1266 2690.38 1264.81 2691.57 1263.34 2691.57Z" fill="#E6F6FF"/>
<path d="M625.02 1446.85C623.551 1446.85 622.361 1445.66 622.361 1444.19C622.361 1442.73 623.551 1441.53 625.02 1441.53C626.489 1441.53 627.68 1442.73 627.68 1444.19C627.68 1445.66 626.489 1446.85 625.02 1446.85Z" fill="#E6F6FF"/>
<path d="M609.062 170.218C607.593 170.218 606.403 169.027 606.403 167.558C606.403 166.09 607.593 164.899 609.062 164.899C610.531 164.899 611.722 166.09 611.722 167.558C611.722 169.027 610.531 170.218 609.062 170.218Z" fill="#E6F6FF"/>
<path d="M449.483 31.9158C448.014 31.9158 446.824 30.7251 446.824 29.2563C446.824 27.7875 448.014 26.5968 449.483 26.5968C450.952 26.5968 452.143 27.7875 452.143 29.2563C452.143 30.7251 450.952 31.9158 449.483 31.9158Z" fill="#E6F6FF"/>
<path d="M720.768 26.5965C719.299 26.5965 718.109 25.4059 718.109 23.9371C718.109 22.4683 719.299 21.2776 720.768 21.2776C722.237 21.2776 723.428 22.4683 723.428 23.9371C723.428 25.4059 722.237 26.5965 720.768 26.5965Z" fill="#E6F6FF"/>
<path d="M273.945 436.184C272.476 436.184 271.286 434.993 271.286 433.524C271.286 432.056 272.476 430.865 273.945 430.865C275.414 430.865 276.604 432.056 276.604 433.524C276.604 434.993 275.414 436.184 273.945 436.184Z" fill="#E6F6FF"/>
<path d="M130.324 1090.46C128.855 1090.46 127.664 1089.27 127.664 1087.8C127.664 1086.33 128.855 1085.14 130.324 1085.14C131.793 1085.14 132.983 1086.33 132.983 1087.8C132.983 1089.27 131.793 1090.46 130.324 1090.46Z" fill="#E6F6FF"/>
<path d="M353.735 1367.06C352.266 1367.06 351.076 1365.87 351.076 1364.4C351.076 1362.94 352.266 1361.74 353.735 1361.74C355.204 1361.74 356.395 1362.94 356.395 1364.4C356.395 1365.87 355.204 1367.06 353.735 1367.06Z" fill="#E6F6FF"/>
<path d="M816.515 595.763C815.047 595.763 813.856 594.573 813.856 593.104C813.856 591.635 815.047 590.444 816.515 590.444C817.984 590.444 819.175 591.635 819.175 593.104C819.175 594.573 817.984 595.763 816.515 595.763Z" fill="#E6F6FF"/>
<path d="M34.5759 829.813C33.1071 829.813 31.9164 828.623 31.9164 827.154C31.9164 825.685 33.1071 824.494 34.5759 824.494C36.0447 824.494 37.2354 825.685 37.2354 827.154C37.2354 828.623 36.0447 829.813 34.5759 829.813Z" fill="#E6F6FF"/>
<path d="M2.65986 329.797C1.19107 329.797 0.000381865 328.607 0.000381929 327.138C0.000381993 325.669 1.19107 324.479 2.65986 324.479C4.12865 324.479 5.31934 325.669 5.31934 327.138C5.31934 328.607 4.12865 329.797 2.65986 329.797Z" fill="#E6F6FF"/>
<path d="M609.062 1175.57C607.593 1175.57 606.403 1174.38 606.403 1172.91C606.403 1171.44 607.593 1170.25 609.062 1170.25C610.531 1170.25 611.722 1171.44 611.722 1172.91C611.722 1174.38 610.531 1175.57 609.062 1175.57Z" fill="#E6F6FF"/>
<path d="M242.029 1207.48C240.56 1207.48 239.37 1206.29 239.37 1204.83C239.37 1203.36 240.56 1202.17 242.029 1202.17C243.498 1202.17 244.688 1203.36 244.688 1204.83C244.688 1206.29 243.498 1207.48 242.029 1207.48Z" fill="#E6F6FF"/>
<path d="M273.945 1686.22C272.476 1686.22 271.286 1685.03 271.286 1683.56C271.286 1682.09 272.476 1680.9 273.945 1680.9C275.414 1680.9 276.604 1682.09 276.604 1683.56C276.604 1685.03 275.414 1686.22 273.945 1686.22Z" fill="#E6F6FF"/>
<path d="M1103.76 2494.76C1102.29 2494.76 1101.1 2493.57 1101.1 2492.1C1101.1 2490.63 1102.29 2489.44 1103.76 2489.44C1105.23 2489.44 1106.42 2490.63 1106.42 2492.1C1106.42 2493.57 1105.23 2494.76 1103.76 2494.76Z" fill="#E6F6FF"/>
<path d="M656.936 2707.53C655.467 2707.53 654.277 2706.34 654.277 2704.87C654.277 2703.4 655.467 2702.21 656.936 2702.21C658.405 2702.21 659.596 2703.4 659.596 2704.87C659.596 2706.34 658.405 2707.53 656.936 2707.53Z" fill="#E6F6FF"/>
<path d="M609.062 2505.4C607.593 2505.4 606.403 2504.21 606.403 2502.74C606.403 2501.27 607.593 2500.08 609.062 2500.08C610.531 2500.08 611.722 2501.27 611.722 2502.74C611.722 2504.21 610.531 2505.4 609.062 2505.4Z" fill="#E6F6FF"/>
<path d="M688.852 2813.92C687.383 2813.92 686.193 2812.73 686.193 2811.26C686.193 2809.79 687.383 2808.6 688.852 2808.6C690.321 2808.6 691.512 2809.79 691.512 2811.26C691.512 2812.73 690.321 2813.92 688.852 2813.92Z" fill="#E6F6FF"/>
<path d="M449.483 1133.01C448.014 1133.01 446.824 1131.82 446.824 1130.35C446.824 1128.89 448.014 1127.7 449.483 1127.7C450.952 1127.7 452.143 1128.89 452.143 1130.35C452.143 1131.82 450.952 1133.01 449.483 1133.01Z" fill="#E6F6FF"/>
<path d="M449.483 702.15C448.014 702.15 446.824 700.959 446.824 699.49C446.824 698.021 448.014 696.831 449.483 696.831C450.952 696.831 452.143 698.021 452.143 699.49C452.143 700.959 450.952 702.15 449.483 702.15Z" fill="#E6F6FF"/>
<path d="M832.473 1404.3C831.005 1404.3 829.814 1403.11 829.814 1401.64C829.814 1400.17 831.005 1398.98 832.473 1398.98C833.942 1398.98 835.133 1400.17 835.133 1401.64C835.133 1403.11 833.942 1404.3 832.473 1404.3Z" fill="#E6F6FF"/>
<path d="M1279.3 1840.48C1277.83 1840.48 1276.64 1839.29 1276.64 1837.82C1276.64 1836.36 1277.83 1835.16 1279.3 1835.16C1280.76 1835.16 1281.96 1836.36 1281.96 1837.82C1281.96 1839.29 1280.76 1840.48 1279.3 1840.48Z" fill="#E6F6FF"/>
<path d="M1039.93 2053.26C1038.46 2053.26 1037.27 2052.07 1037.27 2050.6C1037.27 2049.13 1038.46 2047.94 1039.93 2047.94C1041.4 2047.94 1042.59 2049.13 1042.59 2050.6C1042.59 2052.07 1041.4 2053.26 1039.93 2053.26Z" fill="#E6F6FF"/>
<path d="M449.483 2260.71C448.014 2260.71 446.824 2259.52 446.824 2258.05C446.824 2256.58 448.014 2255.39 449.483 2255.39C450.952 2255.39 452.143 2256.58 452.143 2258.05C452.143 2259.52 450.952 2260.71 449.483 2260.71Z" fill="#E6F6FF"/>
<path d="M497.356 2462.84C495.887 2462.84 494.697 2461.65 494.697 2460.18C494.697 2458.72 495.887 2457.52 497.356 2457.52C498.825 2457.52 500.016 2458.72 500.016 2460.18C500.016 2461.65 498.825 2462.84 497.356 2462.84Z" fill="#E6F6FF"/>
<path d="M832.473 2367.1C831.005 2367.1 829.814 2365.9 829.814 2364.44C829.814 2362.97 831.005 2361.78 832.473 2361.78C833.942 2361.78 835.133 2362.97 835.133 2364.44C835.133 2365.9 833.942 2367.1 832.473 2367.1Z" fill="#E6F6FF"/>
<path d="M385.651 3063.93C384.182 3063.93 382.992 3062.74 382.992 3061.27C382.992 3059.8 384.182 3058.61 385.651 3058.61C387.12 3058.61 388.311 3059.8 388.311 3061.27C388.311 3062.74 387.12 3063.93 385.651 3063.93Z" fill="#E6F6FF"/>
<path d="M242.029 3159.67C240.56 3159.67 239.37 3158.48 239.37 3157.01C239.37 3155.54 240.56 3154.35 242.029 3154.35C243.498 3154.35 244.688 3155.54 244.688 3157.01C244.688 3158.48 243.498 3159.67 242.029 3159.67Z" fill="#E6F6FF"/>
<path d="M449.483 3170.31C448.014 3170.31 446.824 3169.12 446.824 3167.65C446.824 3166.18 448.014 3164.99 449.483 3164.99C450.952 3164.99 452.143 3166.18 452.143 3167.65C452.143 3169.12 450.952 3170.31 449.483 3170.31Z" fill="#E6F6FF"/>
<path d="M880.347 3106.48C878.879 3106.48 877.688 3105.29 877.688 3103.82C877.688 3102.35 878.879 3101.16 880.347 3101.16C881.816 3101.16 883.007 3102.35 883.007 3103.82C883.007 3105.29 881.816 3106.48 880.347 3106.48Z" fill="#E6F6FF"/>
<path d="M98.4079 3143.72C96.9391 3143.72 95.7484 3142.53 95.7484 3141.06C95.7484 3139.59 96.9391 3138.4 98.4079 3138.4C99.8767 3138.4 101.067 3139.59 101.067 3141.06C101.067 3142.53 99.8767 3143.72 98.4079 3143.72Z" fill="#E6F6FF"/>
<path d="M2.65986 2952.22C1.19107 2952.22 0.000381865 2951.03 0.000381929 2949.56C0.000381993 2948.09 1.19107 2946.9 2.65986 2946.9C4.12865 2946.9 5.31934 2948.09 5.31934 2949.56C5.31934 2951.03 4.12865 2952.22 2.65986 2952.22Z" fill="#E6F6FF"/>
<path d="M656.936 2957.54C655.467 2957.54 654.277 2956.35 654.277 2954.88C654.277 2953.41 655.467 2952.22 656.936 2952.22C658.405 2952.22 659.596 2953.41 659.596 2954.88C659.596 2956.35 658.405 2957.54 656.936 2957.54Z" fill="#E6F6FF"/>
<path d="M832.473 1526.64C831.005 1526.64 829.814 1525.45 829.814 1523.98C829.814 1522.52 831.005 1521.33 832.473 1521.33C833.942 1521.33 835.133 1522.52 835.133 1523.98C835.133 1525.45 833.942 1526.64 832.473 1526.64Z" fill="#E6F6FF"/>
<path d="M1279.3 372.352C1277.83 372.352 1276.64 371.161 1276.64 369.693C1276.64 368.224 1277.83 367.033 1279.3 367.033C1280.76 367.033 1281.96 368.224 1281.96 369.693C1281.96 371.161 1280.76 372.352 1279.3 372.352Z" fill="#E6F6FF"/>
<path d="M609.062 542.57C607.593 542.57 606.403 541.379 606.403 539.911C606.403 538.442 607.593 537.251 609.062 537.251C610.531 537.251 611.722 538.442 611.722 539.911C611.722 541.379 610.531 542.57 609.062 542.57Z" fill="#E6F6FF"/>
<path d="M1103.76 909.602C1102.29 909.602 1101.1 908.412 1101.1 906.943C1101.1 905.474 1102.29 904.283 1103.76 904.283C1105.23 904.283 1106.42 905.474 1106.42 906.943C1106.42 908.412 1105.23 909.602 1103.76 909.602Z" fill="#E6F6FF"/>
<path d="M880.347 398.949C878.879 398.949 877.688 397.758 877.688 396.289C877.688 394.82 878.879 393.63 880.347 393.63C881.816 393.63 883.007 394.82 883.007 396.289C883.007 397.758 881.816 398.949 880.347 398.949Z" fill="#E6F6FF"/>
<path d="M1231.42 319.159C1229.95 319.159 1228.76 317.968 1228.76 316.499C1228.76 315.03 1229.95 313.84 1231.42 313.84C1232.89 313.84 1234.08 315.03 1234.08 316.499C1234.08 317.968 1232.89 319.159 1231.42 319.159Z" fill="#E6F6FF"/>
<path d="M720.768 1266C719.299 1266 718.109 1264.81 718.109 1263.34C718.109 1261.87 719.299 1260.68 720.768 1260.68C722.237 1260.68 723.428 1261.87 723.428 1263.34C723.428 1264.81 722.237 1266 720.768 1266Z" fill="#E6F6FF"/>
<path d="M609.062 1914.95C607.593 1914.95 606.403 1913.76 606.403 1912.29C606.403 1910.83 607.593 1909.63 609.062 1909.63C610.531 1909.63 611.722 1910.83 611.722 1912.29C611.722 1913.76 610.531 1914.95 609.062 1914.95Z" fill="#E6F6FF"/>
<path d="M800.557 2180.92C799.089 2180.92 797.898 2179.73 797.898 2178.26C797.898 2176.79 799.089 2175.6 800.557 2175.6C802.026 2175.6 803.217 2176.79 803.217 2178.26C803.217 2179.73 802.026 2180.92 800.557 2180.92Z" fill="#E6F6FF"/>
<path d="M1327.17 1420.26C1325.7 1420.26 1324.51 1419.07 1324.51 1417.6C1324.51 1416.13 1325.7 1414.94 1327.17 1414.94C1328.64 1414.94 1329.83 1416.13 1329.83 1417.6C1329.83 1419.07 1328.64 1420.26 1327.17 1420.26Z" fill="#E6F6FF"/>
<path d="M481.399 1675.58C479.93 1675.58 478.74 1674.39 478.74 1672.93C478.74 1671.46 479.93 1670.27 481.399 1670.27C482.868 1670.27 484.059 1671.46 484.059 1672.93C484.059 1674.39 482.868 1675.58 481.399 1675.58Z" fill="#E6F6FF"/>
<path d="M417.567 1138.33C416.098 1138.33 414.908 1137.14 414.908 1135.67C414.908 1134.2 416.098 1133.01 417.567 1133.01C419.036 1133.01 420.227 1134.2 420.227 1135.67C420.227 1137.14 419.036 1138.33 417.567 1138.33Z" fill="#E6F6FF"/>
<path d="M1008.01 531.932C1006.54 531.932 1005.35 530.741 1005.35 529.272C1005.35 527.803 1006.54 526.613 1008.01 526.613C1009.48 526.613 1010.67 527.803 1010.67 529.272C1010.67 530.741 1009.48 531.932 1008.01 531.932Z" fill="#E6F6FF"/>
<path d="M1023.97 1260.68C1022.5 1260.68 1021.31 1259.49 1021.31 1258.02C1021.31 1256.55 1022.5 1255.36 1023.97 1255.36C1025.44 1255.36 1026.63 1256.55 1026.63 1258.02C1026.63 1259.49 1025.44 1260.68 1023.97 1260.68Z" fill="#E6F6FF"/>
<path d="M1183.55 1829.84C1182.08 1829.84 1180.89 1828.65 1180.89 1827.19C1180.89 1825.72 1182.08 1824.53 1183.55 1824.53C1185.02 1824.53 1186.21 1825.72 1186.21 1827.19C1186.21 1828.65 1185.02 1829.84 1183.55 1829.84Z" fill="#E6F6FF"/>
<path d="M1231.42 2760.73C1229.95 2760.73 1228.76 2759.53 1228.76 2758.07C1228.76 2756.6 1229.95 2755.41 1231.42 2755.41C1232.89 2755.41 1234.08 2756.6 1234.08 2758.07C1234.08 2759.53 1232.89 2760.73 1231.42 2760.73Z" fill="#E6F6FF"/>
<path d="M609.062 1553.24C607.593 1553.24 606.403 1552.05 606.403 1550.58C606.403 1549.11 607.593 1547.92 609.062 1547.92C610.531 1547.92 611.722 1549.11 611.722 1550.58C611.722 1552.05 610.531 1553.24 609.062 1553.24Z" fill="#E6F6FF"/>
<path d="M609.062 255.327C607.593 255.327 606.403 254.136 606.403 252.667C606.403 251.198 607.593 250.008 609.062 250.008C610.531 250.008 611.722 251.198 611.722 252.667C611.722 254.136 610.531 255.327 609.062 255.327Z" fill="#E6F6FF"/>
<path d="M481.399 1276.64C479.93 1276.64 478.74 1275.45 478.74 1273.98C478.74 1272.51 479.93 1271.32 481.399 1271.32C482.868 1271.32 484.059 1272.51 484.059 1273.98C484.059 1275.45 482.868 1276.64 481.399 1276.64Z" fill="#E6F6FF"/>
<path d="M305.861 776.62C304.392 776.62 303.202 775.429 303.202 773.961C303.202 772.492 304.392 771.301 305.861 771.301C307.33 771.301 308.521 772.492 308.521 773.961C308.521 775.429 307.33 776.62 305.861 776.62Z" fill="#E6F6FF"/>
<path d="M656.936 654.276C655.467 654.276 654.277 653.085 654.277 651.617C654.277 650.148 655.467 648.957 656.936 648.957C658.405 648.957 659.596 650.148 659.596 651.617C659.596 653.085 658.405 654.276 656.936 654.276Z" fill="#E6F6FF"/>
<path d="M194.156 1638.35C192.687 1638.35 191.496 1637.16 191.496 1635.69C191.496 1634.22 192.687 1633.03 194.156 1633.03C195.625 1633.03 196.815 1634.22 196.815 1635.69C196.815 1637.16 195.625 1638.35 194.156 1638.35Z" fill="#E6F6FF"/>
<path d="M34.5759 2271.35C33.1071 2271.35 31.9164 2270.16 31.9164 2268.69C31.9164 2267.22 33.1071 2266.03 34.5759 2266.03C36.0447 2266.03 37.2354 2267.22 37.2354 2268.69C37.2354 2270.16 36.0447 2271.35 34.5759 2271.35Z" fill="#E6F6FF"/>
<path d="M257.987 2510.72C256.518 2510.72 255.328 2509.53 255.328 2508.06C255.328 2506.59 256.518 2505.4 257.987 2505.4C259.456 2505.4 260.646 2506.59 260.646 2508.06C260.646 2509.53 259.456 2510.72 257.987 2510.72Z" fill="#E6F6FF"/>
<path d="M688.852 1787.29C687.383 1787.29 686.193 1786.1 686.193 1784.63C686.193 1783.16 687.383 1781.97 688.852 1781.97C690.321 1781.97 691.512 1783.16 691.512 1784.63C691.512 1786.1 690.321 1787.29 688.852 1787.29Z" fill="#E6F6FF"/>
<path d="M2.65986 2058.58C1.19107 2058.58 0.000381865 2057.38 0.000381929 2055.92C0.000381993 2054.45 1.19107 2053.26 2.65986 2053.26C4.12865 2053.26 5.31934 2054.45 5.31934 2055.92C5.31934 2057.38 4.12865 2058.58 2.65986 2058.58Z" fill="#E6F6FF"/>
<path d="M2.65986 1462.81C1.19107 1462.81 0.000381865 1461.62 0.000381929 1460.15C0.000381993 1458.68 1.19107 1457.49 2.65986 1457.49C4.12865 1457.49 5.31934 1458.68 5.31934 1460.15C5.31934 1461.62 4.12865 1462.81 2.65986 1462.81Z" fill="#E6F6FF"/>
<path d="M194.156 1356.43C192.687 1356.43 191.496 1355.23 191.496 1353.77C191.496 1352.3 192.687 1351.11 194.156 1351.11C195.625 1351.11 196.815 1352.3 196.815 1353.77C196.815 1355.23 195.625 1356.43 194.156 1356.43Z" fill="#E6F6FF"/>
<path d="M257.987 2016.02C256.518 2016.02 255.328 2014.83 255.328 2013.36C255.328 2011.89 256.518 2010.7 257.987 2010.7C259.456 2010.7 260.646 2011.89 260.646 2013.36C260.646 2014.83 259.456 2016.02 257.987 2016.02Z" fill="#E6F6FF"/>
<path d="M1039.93 2664.98C1038.46 2664.98 1037.27 2663.79 1037.27 2662.32C1037.27 2660.85 1038.46 2659.66 1039.93 2659.66C1041.4 2659.66 1042.59 2660.85 1042.59 2662.32C1042.59 2663.79 1041.4 2664.98 1039.93 2664.98Z" fill="#E6F6FF"/>
<path d="M656.936 2792.64C655.467 2792.64 654.277 2791.45 654.277 2789.98C654.277 2788.51 655.467 2787.32 656.936 2787.32C658.405 2787.32 659.596 2788.51 659.596 2789.98C659.596 2791.45 658.405 2792.64 656.936 2792.64Z" fill="#E6F6FF"/>
<path d="M481.399 2702.21C479.93 2702.21 478.74 2701.02 478.74 2699.55C478.74 2698.08 479.93 2696.89 481.399 2696.89C482.868 2696.89 484.059 2698.08 484.059 2699.55C484.059 2701.02 482.868 2702.21 481.399 2702.21Z" fill="#E6F6FF"/>
<path d="M656.936 2925.62C655.467 2925.62 654.277 2924.43 654.277 2922.96C654.277 2921.5 655.467 2920.3 656.936 2920.3C658.405 2920.3 659.596 2921.5 659.596 2922.96C659.596 2924.43 658.405 2925.62 656.936 2925.62Z" fill="#E6F6FF"/>
<path d="M609.062 3010.73C607.593 3010.73 606.403 3009.54 606.403 3008.07C606.403 3006.6 607.593 3005.41 609.062 3005.41C610.531 3005.41 611.722 3006.6 611.722 3008.07C611.722 3009.54 610.531 3010.73 609.062 3010.73Z" fill="#E6F6FF"/>
<path d="M736.725 1835.16C735.256 1835.16 734.066 1833.97 734.066 1832.5C734.066 1831.04 735.257 1829.84 736.725 1829.84C738.194 1829.84 739.385 1831.04 739.385 1832.5C739.385 1833.97 738.194 1835.16 736.725 1835.16Z" fill="#E6F6FF"/>
<path d="M1183.55 441.503C1182.08 441.503 1180.89 440.312 1180.89 438.844C1180.89 437.375 1182.08 436.184 1183.55 436.184C1185.02 436.184 1186.21 437.375 1186.21 438.844C1186.21 440.312 1185.02 441.503 1183.55 441.503Z" fill="#E6F6FF"/>
<path d="M481.399 781.94C479.93 781.94 478.74 780.749 478.74 779.28C478.74 777.812 479.93 776.621 481.399 776.621C482.868 776.621 484.059 777.812 484.059 779.28C484.059 780.749 482.868 781.94 481.399 781.94Z" fill="#E6F6FF"/>
<path d="M449.483 1425.58C448.014 1425.58 446.824 1424.39 446.824 1422.92C446.824 1421.45 448.014 1420.26 449.483 1420.26C450.952 1420.26 452.143 1421.45 452.143 1422.92C452.143 1424.39 450.952 1425.58 449.483 1425.58Z" fill="#E6F6FF"/>
<path d="M130.324 1436.22C128.855 1436.22 127.664 1435.02 127.664 1433.56C127.664 1432.09 128.855 1430.9 130.324 1430.9C131.793 1430.9 132.983 1432.09 132.983 1433.56C132.983 1435.02 131.793 1436.22 130.324 1436.22Z" fill="#E6F6FF"/>
<path d="M257.987 2164.96C256.518 2164.96 255.328 2163.77 255.328 2162.3C255.328 2160.83 256.518 2159.64 257.987 2159.64C259.456 2159.64 260.646 2160.83 260.646 2162.3C260.646 2163.77 259.456 2164.96 257.987 2164.96Z" fill="#E6F6FF"/>
<path d="M832.473 2776.68C831.005 2776.68 829.814 2775.49 829.814 2774.02C829.814 2772.56 831.005 2771.36 832.473 2771.36C833.942 2771.36 835.133 2772.56 835.133 2774.02C835.133 2775.49 833.942 2776.68 832.473 2776.68Z" fill="#E6F6FF"/>
</svg>
